G04 #@! TF.GenerationSoftware,KiCad,Pcbnew,5.1.3-ffb9f22~84~ubuntu18.04.1*
G04 #@! TF.CreationDate,2019-08-09T22:51:00+03:00*
G04 #@! TF.ProjectId,Edifier_Remote,45646966-6965-4725-9f52-656d6f74652e,rev?*
G04 #@! TF.SameCoordinates,Original*
G04 #@! TF.FileFunction,Soldermask,Top*
G04 #@! TF.FilePolarity,Negative*
%FSLAX46Y46*%
G04 Gerber Fmt 4.6, Leading zero omitted, Abs format (unit mm)*
G04 Created by KiCad (PCBNEW 5.1.3-ffb9f22~84~ubuntu18.04.1) date 2019-08-09 22:51:00*
%MOMM*%
%LPD*%
G04 APERTURE LIST*
%ADD10C,0.100000*%
G04 APERTURE END LIST*
D10*
G36*
X117941703Y-130744686D02*
G01*
X118232883Y-130865297D01*
X118494940Y-131040398D01*
X118717802Y-131263260D01*
X118892903Y-131525317D01*
X119013514Y-131816497D01*
X119075000Y-132125612D01*
X119075000Y-132440788D01*
X119013514Y-132749903D01*
X118892903Y-133041083D01*
X118717802Y-133303140D01*
X118494940Y-133526002D01*
X118232883Y-133701103D01*
X117941703Y-133821714D01*
X117632588Y-133883200D01*
X117317412Y-133883200D01*
X117008297Y-133821714D01*
X116717117Y-133701103D01*
X116455060Y-133526002D01*
X116232198Y-133303140D01*
X116057097Y-133041083D01*
X115936486Y-132749903D01*
X115875000Y-132440788D01*
X115875000Y-132125612D01*
X115936486Y-131816497D01*
X116057097Y-131525317D01*
X116232198Y-131263260D01*
X116455060Y-131040398D01*
X116717117Y-130865297D01*
X117008297Y-130744686D01*
X117317412Y-130683200D01*
X117632588Y-130683200D01*
X117941703Y-130744686D01*
X117941703Y-130744686D01*
G37*
G36*
X126238627Y-129232907D02*
G01*
X126268134Y-129241858D01*
X126295329Y-129256394D01*
X126319165Y-129275955D01*
X126338726Y-129299791D01*
X126353262Y-129326986D01*
X126362213Y-129356493D01*
X126365840Y-129393320D01*
X126365840Y-130865240D01*
X126362213Y-130902067D01*
X126353262Y-130931574D01*
X126338726Y-130958769D01*
X126319165Y-130982605D01*
X126295329Y-131002166D01*
X126268134Y-131016702D01*
X126238627Y-131025653D01*
X126201800Y-131029280D01*
X124729880Y-131029280D01*
X124693053Y-131025653D01*
X124663546Y-131016702D01*
X124636351Y-131002166D01*
X124612515Y-130982605D01*
X124592954Y-130958769D01*
X124578418Y-130931574D01*
X124569467Y-130902067D01*
X124565840Y-130865240D01*
X124565840Y-129393320D01*
X124569467Y-129356493D01*
X124578418Y-129326986D01*
X124592954Y-129299791D01*
X124612515Y-129275955D01*
X124636351Y-129256394D01*
X124663546Y-129241858D01*
X124693053Y-129232907D01*
X124729880Y-129229280D01*
X126201800Y-129229280D01*
X126238627Y-129232907D01*
X126238627Y-129232907D01*
G37*
G36*
X104646360Y-127541746D02*
G01*
X104810150Y-127609590D01*
X104957557Y-127708084D01*
X105082916Y-127833443D01*
X105181410Y-127980850D01*
X105181411Y-127980852D01*
X105249254Y-128144640D01*
X105277841Y-128288356D01*
X105283840Y-128318518D01*
X105283840Y-128495802D01*
X105249254Y-128669680D01*
X105181410Y-128833470D01*
X105082916Y-128980877D01*
X104957557Y-129106236D01*
X104810150Y-129204730D01*
X104810149Y-129204731D01*
X104810148Y-129204731D01*
X104646360Y-129272574D01*
X104472484Y-129307160D01*
X104295196Y-129307160D01*
X104121320Y-129272574D01*
X103957532Y-129204731D01*
X103957531Y-129204731D01*
X103957530Y-129204730D01*
X103810123Y-129106236D01*
X103684764Y-128980877D01*
X103586270Y-128833470D01*
X103518426Y-128669680D01*
X103483840Y-128495802D01*
X103483840Y-128318518D01*
X103489840Y-128288356D01*
X103518426Y-128144640D01*
X103586269Y-127980852D01*
X103586270Y-127980850D01*
X103684764Y-127833443D01*
X103810123Y-127708084D01*
X103957530Y-127609590D01*
X104121320Y-127541746D01*
X104295196Y-127507160D01*
X104472484Y-127507160D01*
X104646360Y-127541746D01*
X104646360Y-127541746D01*
G37*
G36*
X107823840Y-129307160D02*
G01*
X106023840Y-129307160D01*
X106023840Y-127507160D01*
X107823840Y-127507160D01*
X107823840Y-129307160D01*
X107823840Y-129307160D01*
G37*
G36*
X125728360Y-126723866D02*
G01*
X125892150Y-126791710D01*
X126039557Y-126890204D01*
X126164916Y-127015563D01*
X126263410Y-127162970D01*
X126263411Y-127162972D01*
X126331254Y-127326760D01*
X126365840Y-127500636D01*
X126365840Y-127677924D01*
X126334905Y-127833443D01*
X126331254Y-127851800D01*
X126263410Y-128015590D01*
X126164916Y-128162997D01*
X126039557Y-128288356D01*
X125892150Y-128386850D01*
X125892149Y-128386851D01*
X125892148Y-128386851D01*
X125728360Y-128454694D01*
X125554484Y-128489280D01*
X125377196Y-128489280D01*
X125203320Y-128454694D01*
X125039532Y-128386851D01*
X125039531Y-128386851D01*
X125039530Y-128386850D01*
X124892123Y-128288356D01*
X124766764Y-128162997D01*
X124668270Y-128015590D01*
X124600426Y-127851800D01*
X124596775Y-127833443D01*
X124565840Y-127677924D01*
X124565840Y-127500636D01*
X124600426Y-127326760D01*
X124668269Y-127162972D01*
X124668270Y-127162970D01*
X124766764Y-127015563D01*
X124892123Y-126890204D01*
X125039530Y-126791710D01*
X125203320Y-126723866D01*
X125377196Y-126689280D01*
X125554484Y-126689280D01*
X125728360Y-126723866D01*
X125728360Y-126723866D01*
G37*
G36*
X125728360Y-124183866D02*
G01*
X125892150Y-124251710D01*
X126039557Y-124350204D01*
X126164916Y-124475563D01*
X126263410Y-124622970D01*
X126331254Y-124786760D01*
X126365840Y-124960638D01*
X126365840Y-125137922D01*
X126331254Y-125311800D01*
X126263410Y-125475590D01*
X126164916Y-125622997D01*
X126039557Y-125748356D01*
X125892150Y-125846850D01*
X125892149Y-125846851D01*
X125892148Y-125846851D01*
X125728360Y-125914694D01*
X125554484Y-125949280D01*
X125377196Y-125949280D01*
X125203320Y-125914694D01*
X125039532Y-125846851D01*
X125039531Y-125846851D01*
X125039530Y-125846850D01*
X124892123Y-125748356D01*
X124766764Y-125622997D01*
X124668270Y-125475590D01*
X124600426Y-125311800D01*
X124565840Y-125137922D01*
X124565840Y-124960638D01*
X124600426Y-124786760D01*
X124668270Y-124622970D01*
X124766764Y-124475563D01*
X124892123Y-124350204D01*
X125039530Y-124251710D01*
X125203320Y-124183866D01*
X125377196Y-124149280D01*
X125554484Y-124149280D01*
X125728360Y-124183866D01*
X125728360Y-124183866D01*
G37*
G36*
X104920195Y-117454522D02*
G01*
X104969267Y-117464283D01*
X105107942Y-117521724D01*
X105232747Y-117605116D01*
X105338884Y-117711253D01*
X105422276Y-117836058D01*
X105479717Y-117974733D01*
X105509000Y-118121950D01*
X105509000Y-118272050D01*
X105479717Y-118419267D01*
X105422276Y-118557942D01*
X105338884Y-118682747D01*
X105232747Y-118788884D01*
X105107942Y-118872276D01*
X104969267Y-118929717D01*
X104920195Y-118939478D01*
X104822052Y-118959000D01*
X104671948Y-118959000D01*
X104573805Y-118939478D01*
X104524733Y-118929717D01*
X104386058Y-118872276D01*
X104261253Y-118788884D01*
X104155116Y-118682747D01*
X104071724Y-118557942D01*
X104014283Y-118419267D01*
X103985000Y-118272050D01*
X103985000Y-118121950D01*
X104014283Y-117974733D01*
X104071724Y-117836058D01*
X104155116Y-117711253D01*
X104261253Y-117605116D01*
X104386058Y-117521724D01*
X104524733Y-117464283D01*
X104573805Y-117454522D01*
X104671948Y-117435000D01*
X104822052Y-117435000D01*
X104920195Y-117454522D01*
X104920195Y-117454522D01*
G37*
G36*
X130320195Y-117454522D02*
G01*
X130369267Y-117464283D01*
X130507942Y-117521724D01*
X130632747Y-117605116D01*
X130738884Y-117711253D01*
X130822276Y-117836058D01*
X130879717Y-117974733D01*
X130909000Y-118121950D01*
X130909000Y-118272050D01*
X130879717Y-118419267D01*
X130822276Y-118557942D01*
X130738884Y-118682747D01*
X130632747Y-118788884D01*
X130507942Y-118872276D01*
X130369267Y-118929717D01*
X130320195Y-118939478D01*
X130222052Y-118959000D01*
X130071948Y-118959000D01*
X129973805Y-118939478D01*
X129924733Y-118929717D01*
X129786058Y-118872276D01*
X129661253Y-118788884D01*
X129555116Y-118682747D01*
X129471724Y-118557942D01*
X129414283Y-118419267D01*
X129385000Y-118272050D01*
X129385000Y-118121950D01*
X129414283Y-117974733D01*
X129471724Y-117836058D01*
X129555116Y-117711253D01*
X129661253Y-117605116D01*
X129786058Y-117521724D01*
X129924733Y-117464283D01*
X129973805Y-117454522D01*
X130071948Y-117435000D01*
X130222052Y-117435000D01*
X130320195Y-117454522D01*
X130320195Y-117454522D01*
G37*
G36*
X130320195Y-114914522D02*
G01*
X130369267Y-114924283D01*
X130507942Y-114981724D01*
X130632747Y-115065116D01*
X130738884Y-115171253D01*
X130822276Y-115296058D01*
X130879717Y-115434733D01*
X130909000Y-115581950D01*
X130909000Y-115732050D01*
X130879717Y-115879267D01*
X130822276Y-116017942D01*
X130738884Y-116142747D01*
X130632747Y-116248884D01*
X130507942Y-116332276D01*
X130369267Y-116389717D01*
X130320195Y-116399478D01*
X130222052Y-116419000D01*
X130071948Y-116419000D01*
X129973805Y-116399478D01*
X129924733Y-116389717D01*
X129786058Y-116332276D01*
X129661253Y-116248884D01*
X129555116Y-116142747D01*
X129471724Y-116017942D01*
X129414283Y-115879267D01*
X129385000Y-115732050D01*
X129385000Y-115581950D01*
X129414283Y-115434733D01*
X129471724Y-115296058D01*
X129555116Y-115171253D01*
X129661253Y-115065116D01*
X129786058Y-114981724D01*
X129924733Y-114924283D01*
X129973805Y-114914522D01*
X130071948Y-114895000D01*
X130222052Y-114895000D01*
X130320195Y-114914522D01*
X130320195Y-114914522D01*
G37*
G36*
X104920195Y-114914522D02*
G01*
X104969267Y-114924283D01*
X105107942Y-114981724D01*
X105232747Y-115065116D01*
X105338884Y-115171253D01*
X105422276Y-115296058D01*
X105479717Y-115434733D01*
X105509000Y-115581950D01*
X105509000Y-115732050D01*
X105479717Y-115879267D01*
X105422276Y-116017942D01*
X105338884Y-116142747D01*
X105232747Y-116248884D01*
X105107942Y-116332276D01*
X104969267Y-116389717D01*
X104920195Y-116399478D01*
X104822052Y-116419000D01*
X104671948Y-116419000D01*
X104573805Y-116399478D01*
X104524733Y-116389717D01*
X104386058Y-116332276D01*
X104261253Y-116248884D01*
X104155116Y-116142747D01*
X104071724Y-116017942D01*
X104014283Y-115879267D01*
X103985000Y-115732050D01*
X103985000Y-115581950D01*
X104014283Y-115434733D01*
X104071724Y-115296058D01*
X104155116Y-115171253D01*
X104261253Y-115065116D01*
X104386058Y-114981724D01*
X104524733Y-114924283D01*
X104573805Y-114914522D01*
X104671948Y-114895000D01*
X104822052Y-114895000D01*
X104920195Y-114914522D01*
X104920195Y-114914522D01*
G37*
G36*
X130320195Y-112374522D02*
G01*
X130369267Y-112384283D01*
X130507942Y-112441724D01*
X130632747Y-112525116D01*
X130738884Y-112631253D01*
X130822276Y-112756058D01*
X130879717Y-112894733D01*
X130879717Y-112894734D01*
X130909000Y-113041948D01*
X130909000Y-113192052D01*
X130889478Y-113290195D01*
X130879717Y-113339267D01*
X130822276Y-113477942D01*
X130738884Y-113602747D01*
X130632747Y-113708884D01*
X130507942Y-113792276D01*
X130369267Y-113849717D01*
X130320195Y-113859478D01*
X130222052Y-113879000D01*
X130071948Y-113879000D01*
X129973805Y-113859478D01*
X129924733Y-113849717D01*
X129786058Y-113792276D01*
X129661253Y-113708884D01*
X129555116Y-113602747D01*
X129471724Y-113477942D01*
X129414283Y-113339267D01*
X129404522Y-113290195D01*
X129385000Y-113192052D01*
X129385000Y-113041948D01*
X129414283Y-112894734D01*
X129414283Y-112894733D01*
X129471724Y-112756058D01*
X129555116Y-112631253D01*
X129661253Y-112525116D01*
X129786058Y-112441724D01*
X129924733Y-112384283D01*
X129973805Y-112374522D01*
X130071948Y-112355000D01*
X130222052Y-112355000D01*
X130320195Y-112374522D01*
X130320195Y-112374522D01*
G37*
G36*
X104920195Y-112374522D02*
G01*
X104969267Y-112384283D01*
X105107942Y-112441724D01*
X105232747Y-112525116D01*
X105338884Y-112631253D01*
X105422276Y-112756058D01*
X105479717Y-112894733D01*
X105479717Y-112894734D01*
X105509000Y-113041948D01*
X105509000Y-113192052D01*
X105489478Y-113290195D01*
X105479717Y-113339267D01*
X105422276Y-113477942D01*
X105338884Y-113602747D01*
X105232747Y-113708884D01*
X105107942Y-113792276D01*
X104969267Y-113849717D01*
X104920195Y-113859478D01*
X104822052Y-113879000D01*
X104671948Y-113879000D01*
X104573805Y-113859478D01*
X104524733Y-113849717D01*
X104386058Y-113792276D01*
X104261253Y-113708884D01*
X104155116Y-113602747D01*
X104071724Y-113477942D01*
X104014283Y-113339267D01*
X104004522Y-113290195D01*
X103985000Y-113192052D01*
X103985000Y-113041948D01*
X104014283Y-112894734D01*
X104014283Y-112894733D01*
X104071724Y-112756058D01*
X104155116Y-112631253D01*
X104261253Y-112525116D01*
X104386058Y-112441724D01*
X104524733Y-112384283D01*
X104573805Y-112374522D01*
X104671948Y-112355000D01*
X104822052Y-112355000D01*
X104920195Y-112374522D01*
X104920195Y-112374522D01*
G37*
G36*
X118296723Y-111535782D02*
G01*
X118476264Y-111590246D01*
X118476267Y-111590248D01*
X118476268Y-111590248D01*
X118641741Y-111678694D01*
X118641742Y-111678695D01*
X118641744Y-111678696D01*
X118786778Y-111797722D01*
X118905807Y-111942759D01*
X118994253Y-112108231D01*
X119048718Y-112287776D01*
X119062500Y-112427711D01*
X119062500Y-112616288D01*
X119048718Y-112756223D01*
X118994254Y-112935764D01*
X118905804Y-113101244D01*
X118786778Y-113246278D01*
X118641741Y-113365307D01*
X118476269Y-113453753D01*
X118296724Y-113508218D01*
X118110000Y-113526608D01*
X117923277Y-113508218D01*
X117743732Y-113453753D01*
X117578261Y-113365307D01*
X117578259Y-113365306D01*
X117433222Y-113246278D01*
X117379569Y-113180902D01*
X117314193Y-113101241D01*
X117225747Y-112935769D01*
X117171282Y-112756224D01*
X117157500Y-112616289D01*
X117157500Y-112427712D01*
X117171282Y-112287777D01*
X117225746Y-112108236D01*
X117314196Y-111942756D01*
X117433222Y-111797722D01*
X117578259Y-111678693D01*
X117743731Y-111590247D01*
X117923276Y-111535782D01*
X118110000Y-111517392D01*
X118296723Y-111535782D01*
X118296723Y-111535782D01*
G37*
G36*
X120836723Y-111535782D02*
G01*
X121016264Y-111590246D01*
X121016267Y-111590248D01*
X121016268Y-111590248D01*
X121181741Y-111678694D01*
X121181742Y-111678695D01*
X121181744Y-111678696D01*
X121326778Y-111797722D01*
X121445807Y-111942759D01*
X121534253Y-112108231D01*
X121588718Y-112287776D01*
X121602500Y-112427711D01*
X121602500Y-112616288D01*
X121588718Y-112756223D01*
X121534254Y-112935764D01*
X121445804Y-113101244D01*
X121326778Y-113246278D01*
X121181741Y-113365307D01*
X121016269Y-113453753D01*
X120836724Y-113508218D01*
X120650000Y-113526608D01*
X120463277Y-113508218D01*
X120283732Y-113453753D01*
X120118261Y-113365307D01*
X120118259Y-113365306D01*
X119973222Y-113246278D01*
X119919569Y-113180902D01*
X119854193Y-113101241D01*
X119765747Y-112935769D01*
X119711282Y-112756224D01*
X119697500Y-112616289D01*
X119697500Y-112427712D01*
X119711282Y-112287777D01*
X119765746Y-112108236D01*
X119854196Y-111942756D01*
X119973222Y-111797722D01*
X120118259Y-111678693D01*
X120283731Y-111590247D01*
X120463276Y-111535782D01*
X120650000Y-111517392D01*
X120836723Y-111535782D01*
X120836723Y-111535782D01*
G37*
G36*
X116522500Y-113522000D02*
G01*
X114617500Y-113522000D01*
X114617500Y-111522000D01*
X116522500Y-111522000D01*
X116522500Y-113522000D01*
X116522500Y-113522000D01*
G37*
G36*
X104920195Y-109834522D02*
G01*
X104969267Y-109844283D01*
X105107942Y-109901724D01*
X105232747Y-109985116D01*
X105338884Y-110091253D01*
X105422276Y-110216058D01*
X105479717Y-110354733D01*
X105509000Y-110501950D01*
X105509000Y-110652050D01*
X105479717Y-110799267D01*
X105422276Y-110937942D01*
X105338884Y-111062747D01*
X105232747Y-111168884D01*
X105107942Y-111252276D01*
X104969267Y-111309717D01*
X104920195Y-111319478D01*
X104822052Y-111339000D01*
X104671948Y-111339000D01*
X104573805Y-111319478D01*
X104524733Y-111309717D01*
X104386058Y-111252276D01*
X104261253Y-111168884D01*
X104155116Y-111062747D01*
X104071724Y-110937942D01*
X104014283Y-110799267D01*
X103985000Y-110652050D01*
X103985000Y-110501950D01*
X104014283Y-110354733D01*
X104071724Y-110216058D01*
X104155116Y-110091253D01*
X104261253Y-109985116D01*
X104386058Y-109901724D01*
X104524733Y-109844283D01*
X104573805Y-109834522D01*
X104671948Y-109815000D01*
X104822052Y-109815000D01*
X104920195Y-109834522D01*
X104920195Y-109834522D01*
G37*
G36*
X130320195Y-109834522D02*
G01*
X130369267Y-109844283D01*
X130507942Y-109901724D01*
X130632747Y-109985116D01*
X130738884Y-110091253D01*
X130822276Y-110216058D01*
X130879717Y-110354733D01*
X130909000Y-110501950D01*
X130909000Y-110652050D01*
X130879717Y-110799267D01*
X130822276Y-110937942D01*
X130738884Y-111062747D01*
X130632747Y-111168884D01*
X130507942Y-111252276D01*
X130369267Y-111309717D01*
X130320195Y-111319478D01*
X130222052Y-111339000D01*
X130071948Y-111339000D01*
X129973805Y-111319478D01*
X129924733Y-111309717D01*
X129786058Y-111252276D01*
X129661253Y-111168884D01*
X129555116Y-111062747D01*
X129471724Y-110937942D01*
X129414283Y-110799267D01*
X129385000Y-110652050D01*
X129385000Y-110501950D01*
X129414283Y-110354733D01*
X129471724Y-110216058D01*
X129555116Y-110091253D01*
X129661253Y-109985116D01*
X129786058Y-109901724D01*
X129924733Y-109844283D01*
X129973805Y-109834522D01*
X130071948Y-109815000D01*
X130222052Y-109815000D01*
X130320195Y-109834522D01*
X130320195Y-109834522D01*
G37*
G36*
X104920195Y-107294522D02*
G01*
X104969267Y-107304283D01*
X105107942Y-107361724D01*
X105232747Y-107445116D01*
X105338884Y-107551253D01*
X105422276Y-107676058D01*
X105479717Y-107814733D01*
X105509000Y-107961950D01*
X105509000Y-108112050D01*
X105479717Y-108259267D01*
X105422276Y-108397942D01*
X105338884Y-108522747D01*
X105232747Y-108628884D01*
X105107942Y-108712276D01*
X104969267Y-108769717D01*
X104920195Y-108779478D01*
X104822052Y-108799000D01*
X104671948Y-108799000D01*
X104573805Y-108779478D01*
X104524733Y-108769717D01*
X104386058Y-108712276D01*
X104261253Y-108628884D01*
X104155116Y-108522747D01*
X104071724Y-108397942D01*
X104014283Y-108259267D01*
X103985000Y-108112050D01*
X103985000Y-107961950D01*
X104014283Y-107814733D01*
X104071724Y-107676058D01*
X104155116Y-107551253D01*
X104261253Y-107445116D01*
X104386058Y-107361724D01*
X104524733Y-107304283D01*
X104573805Y-107294522D01*
X104671948Y-107275000D01*
X104822052Y-107275000D01*
X104920195Y-107294522D01*
X104920195Y-107294522D01*
G37*
G36*
X130320195Y-107294522D02*
G01*
X130369267Y-107304283D01*
X130507942Y-107361724D01*
X130632747Y-107445116D01*
X130738884Y-107551253D01*
X130822276Y-107676058D01*
X130879717Y-107814733D01*
X130909000Y-107961950D01*
X130909000Y-108112050D01*
X130879717Y-108259267D01*
X130822276Y-108397942D01*
X130738884Y-108522747D01*
X130632747Y-108628884D01*
X130507942Y-108712276D01*
X130369267Y-108769717D01*
X130320195Y-108779478D01*
X130222052Y-108799000D01*
X130071948Y-108799000D01*
X129973805Y-108779478D01*
X129924733Y-108769717D01*
X129786058Y-108712276D01*
X129661253Y-108628884D01*
X129555116Y-108522747D01*
X129471724Y-108397942D01*
X129414283Y-108259267D01*
X129385000Y-108112050D01*
X129385000Y-107961950D01*
X129414283Y-107814733D01*
X129471724Y-107676058D01*
X129555116Y-107551253D01*
X129661253Y-107445116D01*
X129786058Y-107361724D01*
X129924733Y-107304283D01*
X129973805Y-107294522D01*
X130071948Y-107275000D01*
X130222052Y-107275000D01*
X130320195Y-107294522D01*
X130320195Y-107294522D01*
G37*
G36*
X130320195Y-104754522D02*
G01*
X130369267Y-104764283D01*
X130507942Y-104821724D01*
X130632747Y-104905116D01*
X130738884Y-105011253D01*
X130822276Y-105136058D01*
X130879717Y-105274733D01*
X130909000Y-105421950D01*
X130909000Y-105572050D01*
X130879717Y-105719267D01*
X130822276Y-105857942D01*
X130738884Y-105982747D01*
X130632747Y-106088884D01*
X130507942Y-106172276D01*
X130369267Y-106229717D01*
X130320195Y-106239478D01*
X130222052Y-106259000D01*
X130071948Y-106259000D01*
X129973805Y-106239478D01*
X129924733Y-106229717D01*
X129786058Y-106172276D01*
X129661253Y-106088884D01*
X129555116Y-105982747D01*
X129471724Y-105857942D01*
X129414283Y-105719267D01*
X129385000Y-105572050D01*
X129385000Y-105421950D01*
X129414283Y-105274733D01*
X129471724Y-105136058D01*
X129555116Y-105011253D01*
X129661253Y-104905116D01*
X129786058Y-104821724D01*
X129924733Y-104764283D01*
X129973805Y-104754522D01*
X130071948Y-104735000D01*
X130222052Y-104735000D01*
X130320195Y-104754522D01*
X130320195Y-104754522D01*
G37*
G36*
X104920195Y-104754522D02*
G01*
X104969267Y-104764283D01*
X105107942Y-104821724D01*
X105232747Y-104905116D01*
X105338884Y-105011253D01*
X105422276Y-105136058D01*
X105479717Y-105274733D01*
X105509000Y-105421950D01*
X105509000Y-105572050D01*
X105479717Y-105719267D01*
X105422276Y-105857942D01*
X105338884Y-105982747D01*
X105232747Y-106088884D01*
X105107942Y-106172276D01*
X104969267Y-106229717D01*
X104920195Y-106239478D01*
X104822052Y-106259000D01*
X104671948Y-106259000D01*
X104573805Y-106239478D01*
X104524733Y-106229717D01*
X104386058Y-106172276D01*
X104261253Y-106088884D01*
X104155116Y-105982747D01*
X104071724Y-105857942D01*
X104014283Y-105719267D01*
X103985000Y-105572050D01*
X103985000Y-105421950D01*
X104014283Y-105274733D01*
X104071724Y-105136058D01*
X104155116Y-105011253D01*
X104261253Y-104905116D01*
X104386058Y-104821724D01*
X104524733Y-104764283D01*
X104573805Y-104754522D01*
X104671948Y-104735000D01*
X104822052Y-104735000D01*
X104920195Y-104754522D01*
X104920195Y-104754522D01*
G37*
G36*
X130320195Y-102214522D02*
G01*
X130369267Y-102224283D01*
X130507942Y-102281724D01*
X130632747Y-102365116D01*
X130738884Y-102471253D01*
X130822276Y-102596058D01*
X130879717Y-102734733D01*
X130909000Y-102881950D01*
X130909000Y-103032050D01*
X130879717Y-103179267D01*
X130822276Y-103317942D01*
X130738884Y-103442747D01*
X130632747Y-103548884D01*
X130507942Y-103632276D01*
X130369267Y-103689717D01*
X130320195Y-103699478D01*
X130222052Y-103719000D01*
X130071948Y-103719000D01*
X129973805Y-103699478D01*
X129924733Y-103689717D01*
X129786058Y-103632276D01*
X129661253Y-103548884D01*
X129555116Y-103442747D01*
X129471724Y-103317942D01*
X129414283Y-103179267D01*
X129385000Y-103032050D01*
X129385000Y-102881950D01*
X129414283Y-102734733D01*
X129471724Y-102596058D01*
X129555116Y-102471253D01*
X129661253Y-102365116D01*
X129786058Y-102281724D01*
X129924733Y-102224283D01*
X129973805Y-102214522D01*
X130071948Y-102195000D01*
X130222052Y-102195000D01*
X130320195Y-102214522D01*
X130320195Y-102214522D01*
G37*
G36*
X104920195Y-102214522D02*
G01*
X104969267Y-102224283D01*
X105107942Y-102281724D01*
X105232747Y-102365116D01*
X105338884Y-102471253D01*
X105422276Y-102596058D01*
X105479717Y-102734733D01*
X105509000Y-102881950D01*
X105509000Y-103032050D01*
X105479717Y-103179267D01*
X105422276Y-103317942D01*
X105338884Y-103442747D01*
X105232747Y-103548884D01*
X105107942Y-103632276D01*
X104969267Y-103689717D01*
X104920195Y-103699478D01*
X104822052Y-103719000D01*
X104671948Y-103719000D01*
X104573805Y-103699478D01*
X104524733Y-103689717D01*
X104386058Y-103632276D01*
X104261253Y-103548884D01*
X104155116Y-103442747D01*
X104071724Y-103317942D01*
X104014283Y-103179267D01*
X103985000Y-103032050D01*
X103985000Y-102881950D01*
X104014283Y-102734733D01*
X104071724Y-102596058D01*
X104155116Y-102471253D01*
X104261253Y-102365116D01*
X104386058Y-102281724D01*
X104524733Y-102224283D01*
X104573805Y-102214522D01*
X104671948Y-102195000D01*
X104822052Y-102195000D01*
X104920195Y-102214522D01*
X104920195Y-102214522D01*
G37*
G36*
X130320195Y-99674522D02*
G01*
X130369267Y-99684283D01*
X130507942Y-99741724D01*
X130632747Y-99825116D01*
X130738884Y-99931253D01*
X130822276Y-100056058D01*
X130879717Y-100194733D01*
X130909000Y-100341950D01*
X130909000Y-100492050D01*
X130879717Y-100639267D01*
X130822276Y-100777942D01*
X130738884Y-100902747D01*
X130632747Y-101008884D01*
X130507942Y-101092276D01*
X130369267Y-101149717D01*
X130320195Y-101159478D01*
X130222052Y-101179000D01*
X130071948Y-101179000D01*
X129973805Y-101159478D01*
X129924733Y-101149717D01*
X129786058Y-101092276D01*
X129661253Y-101008884D01*
X129555116Y-100902747D01*
X129471724Y-100777942D01*
X129414283Y-100639267D01*
X129385000Y-100492050D01*
X129385000Y-100341950D01*
X129414283Y-100194733D01*
X129471724Y-100056058D01*
X129555116Y-99931253D01*
X129661253Y-99825116D01*
X129786058Y-99741724D01*
X129924733Y-99684283D01*
X129973805Y-99674522D01*
X130071948Y-99655000D01*
X130222052Y-99655000D01*
X130320195Y-99674522D01*
X130320195Y-99674522D01*
G37*
G36*
X104920195Y-99674522D02*
G01*
X104969267Y-99684283D01*
X105107942Y-99741724D01*
X105232747Y-99825116D01*
X105338884Y-99931253D01*
X105422276Y-100056058D01*
X105479717Y-100194733D01*
X105509000Y-100341950D01*
X105509000Y-100492050D01*
X105479717Y-100639267D01*
X105422276Y-100777942D01*
X105338884Y-100902747D01*
X105232747Y-101008884D01*
X105107942Y-101092276D01*
X104969267Y-101149717D01*
X104920195Y-101159478D01*
X104822052Y-101179000D01*
X104671948Y-101179000D01*
X104573805Y-101159478D01*
X104524733Y-101149717D01*
X104386058Y-101092276D01*
X104261253Y-101008884D01*
X104155116Y-100902747D01*
X104071724Y-100777942D01*
X104014283Y-100639267D01*
X103985000Y-100492050D01*
X103985000Y-100341950D01*
X104014283Y-100194733D01*
X104071724Y-100056058D01*
X104155116Y-99931253D01*
X104261253Y-99825116D01*
X104386058Y-99741724D01*
X104524733Y-99684283D01*
X104573805Y-99674522D01*
X104671948Y-99655000D01*
X104822052Y-99655000D01*
X104920195Y-99674522D01*
X104920195Y-99674522D01*
G37*
G36*
X104920195Y-97134522D02*
G01*
X104969267Y-97144283D01*
X105107942Y-97201724D01*
X105232747Y-97285116D01*
X105338884Y-97391253D01*
X105422276Y-97516058D01*
X105479717Y-97654733D01*
X105509000Y-97801950D01*
X105509000Y-97952050D01*
X105479717Y-98099267D01*
X105422276Y-98237942D01*
X105338884Y-98362747D01*
X105232747Y-98468884D01*
X105107942Y-98552276D01*
X104969267Y-98609717D01*
X104920195Y-98619478D01*
X104822052Y-98639000D01*
X104671948Y-98639000D01*
X104573805Y-98619478D01*
X104524733Y-98609717D01*
X104386058Y-98552276D01*
X104261253Y-98468884D01*
X104155116Y-98362747D01*
X104071724Y-98237942D01*
X104014283Y-98099267D01*
X103985000Y-97952050D01*
X103985000Y-97801950D01*
X104014283Y-97654733D01*
X104071724Y-97516058D01*
X104155116Y-97391253D01*
X104261253Y-97285116D01*
X104386058Y-97201724D01*
X104524733Y-97144283D01*
X104573805Y-97134522D01*
X104671948Y-97115000D01*
X104822052Y-97115000D01*
X104920195Y-97134522D01*
X104920195Y-97134522D01*
G37*
G36*
X130320195Y-97134522D02*
G01*
X130369267Y-97144283D01*
X130507942Y-97201724D01*
X130632747Y-97285116D01*
X130738884Y-97391253D01*
X130822276Y-97516058D01*
X130879717Y-97654733D01*
X130909000Y-97801950D01*
X130909000Y-97952050D01*
X130879717Y-98099267D01*
X130822276Y-98237942D01*
X130738884Y-98362747D01*
X130632747Y-98468884D01*
X130507942Y-98552276D01*
X130369267Y-98609717D01*
X130320195Y-98619478D01*
X130222052Y-98639000D01*
X130071948Y-98639000D01*
X129973805Y-98619478D01*
X129924733Y-98609717D01*
X129786058Y-98552276D01*
X129661253Y-98468884D01*
X129555116Y-98362747D01*
X129471724Y-98237942D01*
X129414283Y-98099267D01*
X129385000Y-97952050D01*
X129385000Y-97801950D01*
X129414283Y-97654733D01*
X129471724Y-97516058D01*
X129555116Y-97391253D01*
X129661253Y-97285116D01*
X129786058Y-97201724D01*
X129924733Y-97144283D01*
X129973805Y-97134522D01*
X130071948Y-97115000D01*
X130222052Y-97115000D01*
X130320195Y-97134522D01*
X130320195Y-97134522D01*
G37*
G36*
X130320195Y-94594522D02*
G01*
X130369267Y-94604283D01*
X130507942Y-94661724D01*
X130632747Y-94745116D01*
X130738884Y-94851253D01*
X130822276Y-94976058D01*
X130879717Y-95114733D01*
X130909000Y-95261950D01*
X130909000Y-95412050D01*
X130879717Y-95559267D01*
X130822276Y-95697942D01*
X130738884Y-95822747D01*
X130632747Y-95928884D01*
X130507942Y-96012276D01*
X130369267Y-96069717D01*
X130320195Y-96079478D01*
X130222052Y-96099000D01*
X130071948Y-96099000D01*
X129973805Y-96079478D01*
X129924733Y-96069717D01*
X129786058Y-96012276D01*
X129661253Y-95928884D01*
X129555116Y-95822747D01*
X129471724Y-95697942D01*
X129414283Y-95559267D01*
X129385000Y-95412050D01*
X129385000Y-95261950D01*
X129414283Y-95114733D01*
X129471724Y-94976058D01*
X129555116Y-94851253D01*
X129661253Y-94745116D01*
X129786058Y-94661724D01*
X129924733Y-94604283D01*
X129973805Y-94594522D01*
X130071948Y-94575000D01*
X130222052Y-94575000D01*
X130320195Y-94594522D01*
X130320195Y-94594522D01*
G37*
G36*
X104920195Y-94594522D02*
G01*
X104969267Y-94604283D01*
X105107942Y-94661724D01*
X105232747Y-94745116D01*
X105338884Y-94851253D01*
X105422276Y-94976058D01*
X105479717Y-95114733D01*
X105509000Y-95261950D01*
X105509000Y-95412050D01*
X105479717Y-95559267D01*
X105422276Y-95697942D01*
X105338884Y-95822747D01*
X105232747Y-95928884D01*
X105107942Y-96012276D01*
X104969267Y-96069717D01*
X104920195Y-96079478D01*
X104822052Y-96099000D01*
X104671948Y-96099000D01*
X104573805Y-96079478D01*
X104524733Y-96069717D01*
X104386058Y-96012276D01*
X104261253Y-95928884D01*
X104155116Y-95822747D01*
X104071724Y-95697942D01*
X104014283Y-95559267D01*
X103985000Y-95412050D01*
X103985000Y-95261950D01*
X104014283Y-95114733D01*
X104071724Y-94976058D01*
X104155116Y-94851253D01*
X104261253Y-94745116D01*
X104386058Y-94661724D01*
X104524733Y-94604283D01*
X104573805Y-94594522D01*
X104671948Y-94575000D01*
X104822052Y-94575000D01*
X104920195Y-94594522D01*
X104920195Y-94594522D01*
G37*
G36*
X130320195Y-92054522D02*
G01*
X130369267Y-92064283D01*
X130507942Y-92121724D01*
X130632747Y-92205116D01*
X130738884Y-92311253D01*
X130822276Y-92436058D01*
X130879717Y-92574733D01*
X130909000Y-92721950D01*
X130909000Y-92872050D01*
X130879717Y-93019267D01*
X130822276Y-93157942D01*
X130738884Y-93282747D01*
X130632747Y-93388884D01*
X130507942Y-93472276D01*
X130369267Y-93529717D01*
X130320195Y-93539478D01*
X130222052Y-93559000D01*
X130071948Y-93559000D01*
X129973805Y-93539478D01*
X129924733Y-93529717D01*
X129786058Y-93472276D01*
X129661253Y-93388884D01*
X129555116Y-93282747D01*
X129471724Y-93157942D01*
X129414283Y-93019267D01*
X129385000Y-92872050D01*
X129385000Y-92721950D01*
X129414283Y-92574733D01*
X129471724Y-92436058D01*
X129555116Y-92311253D01*
X129661253Y-92205116D01*
X129786058Y-92121724D01*
X129924733Y-92064283D01*
X129973805Y-92054522D01*
X130071948Y-92035000D01*
X130222052Y-92035000D01*
X130320195Y-92054522D01*
X130320195Y-92054522D01*
G37*
G36*
X104920195Y-92054522D02*
G01*
X104969267Y-92064283D01*
X105107942Y-92121724D01*
X105232747Y-92205116D01*
X105338884Y-92311253D01*
X105422276Y-92436058D01*
X105479717Y-92574733D01*
X105509000Y-92721950D01*
X105509000Y-92872050D01*
X105479717Y-93019267D01*
X105422276Y-93157942D01*
X105338884Y-93282747D01*
X105232747Y-93388884D01*
X105107942Y-93472276D01*
X104969267Y-93529717D01*
X104920195Y-93539478D01*
X104822052Y-93559000D01*
X104671948Y-93559000D01*
X104573805Y-93539478D01*
X104524733Y-93529717D01*
X104386058Y-93472276D01*
X104261253Y-93388884D01*
X104155116Y-93282747D01*
X104071724Y-93157942D01*
X104014283Y-93019267D01*
X103985000Y-92872050D01*
X103985000Y-92721950D01*
X104014283Y-92574733D01*
X104071724Y-92436058D01*
X104155116Y-92311253D01*
X104261253Y-92205116D01*
X104386058Y-92121724D01*
X104524733Y-92064283D01*
X104573805Y-92054522D01*
X104671948Y-92035000D01*
X104822052Y-92035000D01*
X104920195Y-92054522D01*
X104920195Y-92054522D01*
G37*
G36*
X130320195Y-89514522D02*
G01*
X130369267Y-89524283D01*
X130507942Y-89581724D01*
X130632747Y-89665116D01*
X130738884Y-89771253D01*
X130822276Y-89896058D01*
X130879717Y-90034733D01*
X130909000Y-90181950D01*
X130909000Y-90332050D01*
X130879717Y-90479267D01*
X130822276Y-90617942D01*
X130738884Y-90742747D01*
X130632747Y-90848884D01*
X130507942Y-90932276D01*
X130369267Y-90989717D01*
X130320195Y-90999478D01*
X130222052Y-91019000D01*
X130071948Y-91019000D01*
X129973805Y-90999478D01*
X129924733Y-90989717D01*
X129786058Y-90932276D01*
X129661253Y-90848884D01*
X129555116Y-90742747D01*
X129471724Y-90617942D01*
X129414283Y-90479267D01*
X129385000Y-90332050D01*
X129385000Y-90181950D01*
X129414283Y-90034733D01*
X129471724Y-89896058D01*
X129555116Y-89771253D01*
X129661253Y-89665116D01*
X129786058Y-89581724D01*
X129924733Y-89524283D01*
X129973805Y-89514522D01*
X130071948Y-89495000D01*
X130222052Y-89495000D01*
X130320195Y-89514522D01*
X130320195Y-89514522D01*
G37*
G36*
X104920195Y-89514522D02*
G01*
X104969267Y-89524283D01*
X105107942Y-89581724D01*
X105232747Y-89665116D01*
X105338884Y-89771253D01*
X105422276Y-89896058D01*
X105479717Y-90034733D01*
X105509000Y-90181950D01*
X105509000Y-90332050D01*
X105479717Y-90479267D01*
X105422276Y-90617942D01*
X105338884Y-90742747D01*
X105232747Y-90848884D01*
X105107942Y-90932276D01*
X104969267Y-90989717D01*
X104920195Y-90999478D01*
X104822052Y-91019000D01*
X104671948Y-91019000D01*
X104573805Y-90999478D01*
X104524733Y-90989717D01*
X104386058Y-90932276D01*
X104261253Y-90848884D01*
X104155116Y-90742747D01*
X104071724Y-90617942D01*
X104014283Y-90479267D01*
X103985000Y-90332050D01*
X103985000Y-90181950D01*
X104014283Y-90034733D01*
X104071724Y-89896058D01*
X104155116Y-89771253D01*
X104261253Y-89665116D01*
X104386058Y-89581724D01*
X104524733Y-89524283D01*
X104573805Y-89514522D01*
X104671948Y-89495000D01*
X104822052Y-89495000D01*
X104920195Y-89514522D01*
X104920195Y-89514522D01*
G37*
G36*
X130320195Y-86974522D02*
G01*
X130369267Y-86984283D01*
X130507942Y-87041724D01*
X130632747Y-87125116D01*
X130738884Y-87231253D01*
X130822276Y-87356058D01*
X130879717Y-87494733D01*
X130909000Y-87641950D01*
X130909000Y-87792050D01*
X130879717Y-87939267D01*
X130822276Y-88077942D01*
X130738884Y-88202747D01*
X130632747Y-88308884D01*
X130507942Y-88392276D01*
X130369267Y-88449717D01*
X130320195Y-88459478D01*
X130222052Y-88479000D01*
X130071948Y-88479000D01*
X129973805Y-88459478D01*
X129924733Y-88449717D01*
X129786058Y-88392276D01*
X129661253Y-88308884D01*
X129555116Y-88202747D01*
X129471724Y-88077942D01*
X129414283Y-87939267D01*
X129385000Y-87792050D01*
X129385000Y-87641950D01*
X129414283Y-87494733D01*
X129471724Y-87356058D01*
X129555116Y-87231253D01*
X129661253Y-87125116D01*
X129786058Y-87041724D01*
X129924733Y-86984283D01*
X129973805Y-86974522D01*
X130071948Y-86955000D01*
X130222052Y-86955000D01*
X130320195Y-86974522D01*
X130320195Y-86974522D01*
G37*
G36*
X104920195Y-86974522D02*
G01*
X104969267Y-86984283D01*
X105107942Y-87041724D01*
X105232747Y-87125116D01*
X105338884Y-87231253D01*
X105422276Y-87356058D01*
X105479717Y-87494733D01*
X105509000Y-87641950D01*
X105509000Y-87792050D01*
X105479717Y-87939267D01*
X105422276Y-88077942D01*
X105338884Y-88202747D01*
X105232747Y-88308884D01*
X105107942Y-88392276D01*
X104969267Y-88449717D01*
X104920195Y-88459478D01*
X104822052Y-88479000D01*
X104671948Y-88479000D01*
X104573805Y-88459478D01*
X104524733Y-88449717D01*
X104386058Y-88392276D01*
X104261253Y-88308884D01*
X104155116Y-88202747D01*
X104071724Y-88077942D01*
X104014283Y-87939267D01*
X103985000Y-87792050D01*
X103985000Y-87641950D01*
X104014283Y-87494733D01*
X104071724Y-87356058D01*
X104155116Y-87231253D01*
X104261253Y-87125116D01*
X104386058Y-87041724D01*
X104524733Y-86984283D01*
X104573805Y-86974522D01*
X104671948Y-86955000D01*
X104822052Y-86955000D01*
X104920195Y-86974522D01*
X104920195Y-86974522D01*
G37*
G36*
X130320195Y-84434522D02*
G01*
X130369267Y-84444283D01*
X130507942Y-84501724D01*
X130632747Y-84585116D01*
X130738884Y-84691253D01*
X130822276Y-84816058D01*
X130879717Y-84954733D01*
X130909000Y-85101950D01*
X130909000Y-85252050D01*
X130879717Y-85399267D01*
X130822276Y-85537942D01*
X130738884Y-85662747D01*
X130632747Y-85768884D01*
X130507942Y-85852276D01*
X130369267Y-85909717D01*
X130320195Y-85919478D01*
X130222052Y-85939000D01*
X130071948Y-85939000D01*
X129973805Y-85919478D01*
X129924733Y-85909717D01*
X129786058Y-85852276D01*
X129661253Y-85768884D01*
X129555116Y-85662747D01*
X129471724Y-85537942D01*
X129414283Y-85399267D01*
X129385000Y-85252050D01*
X129385000Y-85101950D01*
X129414283Y-84954733D01*
X129471724Y-84816058D01*
X129555116Y-84691253D01*
X129661253Y-84585116D01*
X129786058Y-84501724D01*
X129924733Y-84444283D01*
X129973805Y-84434522D01*
X130071948Y-84415000D01*
X130222052Y-84415000D01*
X130320195Y-84434522D01*
X130320195Y-84434522D01*
G37*
G36*
X104920195Y-84434522D02*
G01*
X104969267Y-84444283D01*
X105107942Y-84501724D01*
X105232747Y-84585116D01*
X105338884Y-84691253D01*
X105422276Y-84816058D01*
X105479717Y-84954733D01*
X105509000Y-85101950D01*
X105509000Y-85252050D01*
X105479717Y-85399267D01*
X105422276Y-85537942D01*
X105338884Y-85662747D01*
X105232747Y-85768884D01*
X105107942Y-85852276D01*
X104969267Y-85909717D01*
X104920195Y-85919478D01*
X104822052Y-85939000D01*
X104671948Y-85939000D01*
X104573805Y-85919478D01*
X104524733Y-85909717D01*
X104386058Y-85852276D01*
X104261253Y-85768884D01*
X104155116Y-85662747D01*
X104071724Y-85537942D01*
X104014283Y-85399267D01*
X103985000Y-85252050D01*
X103985000Y-85101950D01*
X104014283Y-84954733D01*
X104071724Y-84816058D01*
X104155116Y-84691253D01*
X104261253Y-84585116D01*
X104386058Y-84501724D01*
X104524733Y-84444283D01*
X104573805Y-84434522D01*
X104671948Y-84415000D01*
X104822052Y-84415000D01*
X104920195Y-84434522D01*
X104920195Y-84434522D01*
G37*
G36*
X130320195Y-81894522D02*
G01*
X130369267Y-81904283D01*
X130507942Y-81961724D01*
X130632747Y-82045116D01*
X130738884Y-82151253D01*
X130822276Y-82276058D01*
X130879717Y-82414733D01*
X130909000Y-82561950D01*
X130909000Y-82712050D01*
X130879717Y-82859267D01*
X130822276Y-82997942D01*
X130738884Y-83122747D01*
X130632747Y-83228884D01*
X130507942Y-83312276D01*
X130369267Y-83369717D01*
X130320195Y-83379478D01*
X130222052Y-83399000D01*
X130071948Y-83399000D01*
X129973805Y-83379478D01*
X129924733Y-83369717D01*
X129786058Y-83312276D01*
X129661253Y-83228884D01*
X129555116Y-83122747D01*
X129471724Y-82997942D01*
X129414283Y-82859267D01*
X129385000Y-82712050D01*
X129385000Y-82561950D01*
X129414283Y-82414733D01*
X129471724Y-82276058D01*
X129555116Y-82151253D01*
X129661253Y-82045116D01*
X129786058Y-81961724D01*
X129924733Y-81904283D01*
X129973805Y-81894522D01*
X130071948Y-81875000D01*
X130222052Y-81875000D01*
X130320195Y-81894522D01*
X130320195Y-81894522D01*
G37*
G36*
X104920195Y-81894522D02*
G01*
X104969267Y-81904283D01*
X105107942Y-81961724D01*
X105232747Y-82045116D01*
X105338884Y-82151253D01*
X105422276Y-82276058D01*
X105479717Y-82414733D01*
X105509000Y-82561950D01*
X105509000Y-82712050D01*
X105479717Y-82859267D01*
X105422276Y-82997942D01*
X105338884Y-83122747D01*
X105232747Y-83228884D01*
X105107942Y-83312276D01*
X104969267Y-83369717D01*
X104920195Y-83379478D01*
X104822052Y-83399000D01*
X104671948Y-83399000D01*
X104573805Y-83379478D01*
X104524733Y-83369717D01*
X104386058Y-83312276D01*
X104261253Y-83228884D01*
X104155116Y-83122747D01*
X104071724Y-82997942D01*
X104014283Y-82859267D01*
X103985000Y-82712050D01*
X103985000Y-82561950D01*
X104014283Y-82414733D01*
X104071724Y-82276058D01*
X104155116Y-82151253D01*
X104261253Y-82045116D01*
X104386058Y-81961724D01*
X104524733Y-81904283D01*
X104573805Y-81894522D01*
X104671948Y-81875000D01*
X104822052Y-81875000D01*
X104920195Y-81894522D01*
X104920195Y-81894522D01*
G37*
G36*
X104920195Y-79354522D02*
G01*
X104969267Y-79364283D01*
X105107942Y-79421724D01*
X105232747Y-79505116D01*
X105338884Y-79611253D01*
X105422276Y-79736058D01*
X105479717Y-79874733D01*
X105509000Y-80021950D01*
X105509000Y-80172050D01*
X105479717Y-80319267D01*
X105422276Y-80457942D01*
X105338884Y-80582747D01*
X105232747Y-80688884D01*
X105107942Y-80772276D01*
X104969267Y-80829717D01*
X104920195Y-80839478D01*
X104822052Y-80859000D01*
X104671948Y-80859000D01*
X104573805Y-80839478D01*
X104524733Y-80829717D01*
X104386058Y-80772276D01*
X104261253Y-80688884D01*
X104155116Y-80582747D01*
X104071724Y-80457942D01*
X104014283Y-80319267D01*
X103985000Y-80172050D01*
X103985000Y-80021950D01*
X104014283Y-79874733D01*
X104071724Y-79736058D01*
X104155116Y-79611253D01*
X104261253Y-79505116D01*
X104386058Y-79421724D01*
X104524733Y-79364283D01*
X104573805Y-79354522D01*
X104671948Y-79335000D01*
X104822052Y-79335000D01*
X104920195Y-79354522D01*
X104920195Y-79354522D01*
G37*
G36*
X130320195Y-79354522D02*
G01*
X130369267Y-79364283D01*
X130507942Y-79421724D01*
X130632747Y-79505116D01*
X130738884Y-79611253D01*
X130822276Y-79736058D01*
X130879717Y-79874733D01*
X130909000Y-80021950D01*
X130909000Y-80172050D01*
X130879717Y-80319267D01*
X130822276Y-80457942D01*
X130738884Y-80582747D01*
X130632747Y-80688884D01*
X130507942Y-80772276D01*
X130369267Y-80829717D01*
X130320195Y-80839478D01*
X130222052Y-80859000D01*
X130071948Y-80859000D01*
X129973805Y-80839478D01*
X129924733Y-80829717D01*
X129786058Y-80772276D01*
X129661253Y-80688884D01*
X129555116Y-80582747D01*
X129471724Y-80457942D01*
X129414283Y-80319267D01*
X129385000Y-80172050D01*
X129385000Y-80021950D01*
X129414283Y-79874733D01*
X129471724Y-79736058D01*
X129555116Y-79611253D01*
X129661253Y-79505116D01*
X129786058Y-79421724D01*
X129924733Y-79364283D01*
X129973805Y-79354522D01*
X130071948Y-79335000D01*
X130222052Y-79335000D01*
X130320195Y-79354522D01*
X130320195Y-79354522D01*
G37*
G36*
X130320195Y-76814522D02*
G01*
X130369267Y-76824283D01*
X130507942Y-76881724D01*
X130632747Y-76965116D01*
X130738884Y-77071253D01*
X130822276Y-77196058D01*
X130879717Y-77334733D01*
X130909000Y-77481950D01*
X130909000Y-77632050D01*
X130879717Y-77779267D01*
X130822276Y-77917942D01*
X130738884Y-78042747D01*
X130632747Y-78148884D01*
X130507942Y-78232276D01*
X130369267Y-78289717D01*
X130320195Y-78299478D01*
X130222052Y-78319000D01*
X130071948Y-78319000D01*
X129973805Y-78299478D01*
X129924733Y-78289717D01*
X129786058Y-78232276D01*
X129661253Y-78148884D01*
X129555116Y-78042747D01*
X129471724Y-77917942D01*
X129414283Y-77779267D01*
X129385000Y-77632050D01*
X129385000Y-77481950D01*
X129414283Y-77334733D01*
X129471724Y-77196058D01*
X129555116Y-77071253D01*
X129661253Y-76965116D01*
X129786058Y-76881724D01*
X129924733Y-76824283D01*
X129973805Y-76814522D01*
X130071948Y-76795000D01*
X130222052Y-76795000D01*
X130320195Y-76814522D01*
X130320195Y-76814522D01*
G37*
G36*
X104920195Y-76814522D02*
G01*
X104969267Y-76824283D01*
X105107942Y-76881724D01*
X105232747Y-76965116D01*
X105338884Y-77071253D01*
X105422276Y-77196058D01*
X105479717Y-77334733D01*
X105509000Y-77481950D01*
X105509000Y-77632050D01*
X105479717Y-77779267D01*
X105422276Y-77917942D01*
X105338884Y-78042747D01*
X105232747Y-78148884D01*
X105107942Y-78232276D01*
X104969267Y-78289717D01*
X104920195Y-78299478D01*
X104822052Y-78319000D01*
X104671948Y-78319000D01*
X104573805Y-78299478D01*
X104524733Y-78289717D01*
X104386058Y-78232276D01*
X104261253Y-78148884D01*
X104155116Y-78042747D01*
X104071724Y-77917942D01*
X104014283Y-77779267D01*
X103985000Y-77632050D01*
X103985000Y-77481950D01*
X104014283Y-77334733D01*
X104071724Y-77196058D01*
X104155116Y-77071253D01*
X104261253Y-76965116D01*
X104386058Y-76881724D01*
X104524733Y-76824283D01*
X104573805Y-76814522D01*
X104671948Y-76795000D01*
X104822052Y-76795000D01*
X104920195Y-76814522D01*
X104920195Y-76814522D01*
G37*
G36*
X130320195Y-74274522D02*
G01*
X130369267Y-74284283D01*
X130507942Y-74341724D01*
X130632747Y-74425116D01*
X130738884Y-74531253D01*
X130822276Y-74656058D01*
X130879717Y-74794733D01*
X130909000Y-74941950D01*
X130909000Y-75092050D01*
X130879717Y-75239267D01*
X130822276Y-75377942D01*
X130738884Y-75502747D01*
X130632747Y-75608884D01*
X130507942Y-75692276D01*
X130369267Y-75749717D01*
X130320195Y-75759478D01*
X130222052Y-75779000D01*
X130071948Y-75779000D01*
X129973805Y-75759478D01*
X129924733Y-75749717D01*
X129786058Y-75692276D01*
X129661253Y-75608884D01*
X129555116Y-75502747D01*
X129471724Y-75377942D01*
X129414283Y-75239267D01*
X129385000Y-75092050D01*
X129385000Y-74941950D01*
X129414283Y-74794733D01*
X129471724Y-74656058D01*
X129555116Y-74531253D01*
X129661253Y-74425116D01*
X129786058Y-74341724D01*
X129924733Y-74284283D01*
X129973805Y-74274522D01*
X130071948Y-74255000D01*
X130222052Y-74255000D01*
X130320195Y-74274522D01*
X130320195Y-74274522D01*
G37*
G36*
X105509000Y-75779000D02*
G01*
X103985000Y-75779000D01*
X103985000Y-74255000D01*
X105509000Y-74255000D01*
X105509000Y-75779000D01*
X105509000Y-75779000D01*
G37*
G36*
X105419503Y-68717886D02*
G01*
X105710683Y-68838497D01*
X105972740Y-69013598D01*
X106195602Y-69236460D01*
X106370703Y-69498517D01*
X106491314Y-69789697D01*
X106552800Y-70098812D01*
X106552800Y-70413988D01*
X106491314Y-70723103D01*
X106370703Y-71014283D01*
X106195602Y-71276340D01*
X105972740Y-71499202D01*
X105710683Y-71674303D01*
X105419503Y-71794914D01*
X105110388Y-71856400D01*
X104795212Y-71856400D01*
X104486097Y-71794914D01*
X104194917Y-71674303D01*
X103932860Y-71499202D01*
X103709998Y-71276340D01*
X103534897Y-71014283D01*
X103414286Y-70723103D01*
X103352800Y-70413988D01*
X103352800Y-70098812D01*
X103414286Y-69789697D01*
X103534897Y-69498517D01*
X103709998Y-69236460D01*
X103932860Y-69013598D01*
X104194917Y-68838497D01*
X104486097Y-68717886D01*
X104795212Y-68656400D01*
X105110388Y-68656400D01*
X105419503Y-68717886D01*
X105419503Y-68717886D01*
G37*
G36*
X130463903Y-68692486D02*
G01*
X130755083Y-68813097D01*
X131017140Y-68988198D01*
X131240002Y-69211060D01*
X131415103Y-69473117D01*
X131535714Y-69764297D01*
X131597200Y-70073412D01*
X131597200Y-70388588D01*
X131535714Y-70697703D01*
X131415103Y-70988883D01*
X131240002Y-71250940D01*
X131017140Y-71473802D01*
X130755083Y-71648903D01*
X130463903Y-71769514D01*
X130154788Y-71831000D01*
X129839612Y-71831000D01*
X129530497Y-71769514D01*
X129239317Y-71648903D01*
X128977260Y-71473802D01*
X128754398Y-71250940D01*
X128579297Y-70988883D01*
X128458686Y-70697703D01*
X128397200Y-70388588D01*
X128397200Y-70073412D01*
X128458686Y-69764297D01*
X128579297Y-69473117D01*
X128754398Y-69211060D01*
X128977260Y-68988198D01*
X129239317Y-68813097D01*
X129530497Y-68692486D01*
X129839612Y-68631000D01*
X130154788Y-68631000D01*
X130463903Y-68692486D01*
X130463903Y-68692486D01*
G37*
M02*
