G04 #@! TF.GenerationSoftware,KiCad,Pcbnew,5.1.3-ffb9f22~84~ubuntu18.04.1*
G04 #@! TF.CreationDate,2019-08-09T22:51:00+03:00*
G04 #@! TF.ProjectId,Edifier_Remote,45646966-6965-4725-9f52-656d6f74652e,rev?*
G04 #@! TF.SameCoordinates,Original*
G04 #@! TF.FileFunction,Legend,Top*
G04 #@! TF.FilePolarity,Positive*
%FSLAX46Y46*%
G04 Gerber Fmt 4.6, Leading zero omitted, Abs format (unit mm)*
G04 Created by KiCad (PCBNEW 5.1.3-ffb9f22~84~ubuntu18.04.1) date 2019-08-09 22:51:00*
%MOMM*%
%LPD*%
G04 APERTURE LIST*
%ADD10C,0.300000*%
%ADD11C,0.250000*%
%ADD12C,0.200000*%
%ADD13C,0.150000*%
%ADD14C,0.120000*%
G04 APERTURE END LIST*
D10*
X115248571Y-115208857D02*
X115748571Y-115208857D01*
X115962857Y-115994571D02*
X115248571Y-115994571D01*
X115248571Y-114494571D01*
X115962857Y-114494571D01*
X118320285Y-115851714D02*
X118248857Y-115923142D01*
X118034571Y-115994571D01*
X117891714Y-115994571D01*
X117677428Y-115923142D01*
X117534571Y-115780285D01*
X117463142Y-115637428D01*
X117391714Y-115351714D01*
X117391714Y-115137428D01*
X117463142Y-114851714D01*
X117534571Y-114708857D01*
X117677428Y-114566000D01*
X117891714Y-114494571D01*
X118034571Y-114494571D01*
X118248857Y-114566000D01*
X118320285Y-114637428D01*
X120503142Y-115208857D02*
X120717428Y-115280285D01*
X120788857Y-115351714D01*
X120860285Y-115494571D01*
X120860285Y-115708857D01*
X120788857Y-115851714D01*
X120717428Y-115923142D01*
X120574571Y-115994571D01*
X120003142Y-115994571D01*
X120003142Y-114494571D01*
X120503142Y-114494571D01*
X120646000Y-114566000D01*
X120717428Y-114637428D01*
X120788857Y-114780285D01*
X120788857Y-114923142D01*
X120717428Y-115066000D01*
X120646000Y-115137428D01*
X120503142Y-115208857D01*
X120003142Y-115208857D01*
D11*
X123724255Y-112296841D02*
X123867112Y-112344460D01*
X124105207Y-112344460D01*
X124200445Y-112296841D01*
X124248064Y-112249222D01*
X124295683Y-112153984D01*
X124295683Y-112058746D01*
X124248064Y-111963508D01*
X124200445Y-111915889D01*
X124105207Y-111868270D01*
X123914731Y-111820651D01*
X123819493Y-111773032D01*
X123771874Y-111725413D01*
X123724255Y-111630175D01*
X123724255Y-111534937D01*
X123771874Y-111439699D01*
X123819493Y-111392080D01*
X123914731Y-111344460D01*
X124152826Y-111344460D01*
X124295683Y-111392080D01*
X124724255Y-111820651D02*
X125057588Y-111820651D01*
X125200445Y-112344460D02*
X124724255Y-112344460D01*
X124724255Y-111344460D01*
X125200445Y-111344460D01*
X125629017Y-112344460D02*
X125629017Y-111344460D01*
X126200445Y-112344460D01*
X126200445Y-111344460D01*
X126676636Y-112344460D02*
X126676636Y-111344460D01*
X126914731Y-111344460D01*
X127057588Y-111392080D01*
X127152826Y-111487318D01*
X127200445Y-111582556D01*
X127248064Y-111773032D01*
X127248064Y-111915889D01*
X127200445Y-112106365D01*
X127152826Y-112201603D01*
X127057588Y-112296841D01*
X126914731Y-112344460D01*
X126676636Y-112344460D01*
D12*
X124649209Y-132573984D02*
X124430161Y-132193032D01*
X124192066Y-132573984D02*
X124292066Y-131773984D01*
X124596828Y-131773984D01*
X124668256Y-131812080D01*
X124701590Y-131850175D01*
X124730161Y-131926365D01*
X124715875Y-132040651D01*
X124668256Y-132116841D01*
X124625399Y-132154937D01*
X124544447Y-132193032D01*
X124239685Y-132193032D01*
X125044447Y-132154937D02*
X125311113Y-132154937D01*
X125373018Y-132573984D02*
X124992066Y-132573984D01*
X125092066Y-131773984D01*
X125473018Y-131773984D01*
X126182542Y-132497794D02*
X126139685Y-132535889D01*
X126020637Y-132573984D01*
X125944447Y-132573984D01*
X125834923Y-132535889D01*
X125768256Y-132459699D01*
X125739685Y-132383508D01*
X125720637Y-132231127D01*
X125734923Y-132116841D01*
X125792066Y-131964460D01*
X125839685Y-131888270D01*
X125925399Y-131812080D01*
X126044447Y-131773984D01*
X126120637Y-131773984D01*
X126230161Y-131812080D01*
X126263494Y-131850175D01*
X126501590Y-131773984D02*
X126668256Y-132573984D01*
X127034923Y-131773984D01*
D11*
X102406853Y-130963420D02*
X101930663Y-130963420D01*
X101823520Y-131439611D01*
X101877091Y-131391992D01*
X101978282Y-131344373D01*
X102216377Y-131344373D01*
X102305663Y-131391992D01*
X102347329Y-131439611D01*
X102383044Y-131534849D01*
X102353282Y-131772944D01*
X102293758Y-131868182D01*
X102240187Y-131915801D01*
X102138996Y-131963420D01*
X101900901Y-131963420D01*
X101811615Y-131915801D01*
X101769948Y-131868182D01*
X102740187Y-130963420D02*
X102948520Y-131963420D01*
X103406853Y-130963420D01*
D13*
X111024204Y-134981904D02*
X110757538Y-134600952D01*
X110567061Y-134981904D02*
X110567061Y-134181904D01*
X110871823Y-134181904D01*
X110948014Y-134220000D01*
X110986109Y-134258095D01*
X111024204Y-134334285D01*
X111024204Y-134448571D01*
X110986109Y-134524761D01*
X110948014Y-134562857D01*
X110871823Y-134600952D01*
X110567061Y-134600952D01*
X111671823Y-134943809D02*
X111595633Y-134981904D01*
X111443252Y-134981904D01*
X111367061Y-134943809D01*
X111328966Y-134867619D01*
X111328966Y-134562857D01*
X111367061Y-134486666D01*
X111443252Y-134448571D01*
X111595633Y-134448571D01*
X111671823Y-134486666D01*
X111709919Y-134562857D01*
X111709919Y-134639047D01*
X111328966Y-134715238D01*
X112052776Y-134981904D02*
X112052776Y-134448571D01*
X112052776Y-134524761D02*
X112090871Y-134486666D01*
X112167061Y-134448571D01*
X112281347Y-134448571D01*
X112357538Y-134486666D01*
X112395633Y-134562857D01*
X112395633Y-134981904D01*
X112395633Y-134562857D02*
X112433728Y-134486666D01*
X112509919Y-134448571D01*
X112624204Y-134448571D01*
X112700395Y-134486666D01*
X112738490Y-134562857D01*
X112738490Y-134981904D01*
X113233728Y-134981904D02*
X113157538Y-134943809D01*
X113119442Y-134905714D01*
X113081347Y-134829523D01*
X113081347Y-134600952D01*
X113119442Y-134524761D01*
X113157538Y-134486666D01*
X113233728Y-134448571D01*
X113348014Y-134448571D01*
X113424204Y-134486666D01*
X113462300Y-134524761D01*
X113500395Y-134600952D01*
X113500395Y-134829523D01*
X113462300Y-134905714D01*
X113424204Y-134943809D01*
X113348014Y-134981904D01*
X113233728Y-134981904D01*
X113728966Y-134448571D02*
X114033728Y-134448571D01*
X113843252Y-134181904D02*
X113843252Y-134867619D01*
X113881347Y-134943809D01*
X113957538Y-134981904D01*
X114033728Y-134981904D01*
X114605157Y-134943809D02*
X114528966Y-134981904D01*
X114376585Y-134981904D01*
X114300395Y-134943809D01*
X114262300Y-134867619D01*
X114262300Y-134562857D01*
X114300395Y-134486666D01*
X114376585Y-134448571D01*
X114528966Y-134448571D01*
X114605157Y-134486666D01*
X114643252Y-134562857D01*
X114643252Y-134639047D01*
X114262300Y-134715238D01*
X115481347Y-134181904D02*
X115938490Y-134181904D01*
X115709919Y-134981904D02*
X115709919Y-134181904D01*
X116205157Y-134981904D02*
X116205157Y-134448571D01*
X116205157Y-134600952D02*
X116243252Y-134524761D01*
X116281347Y-134486666D01*
X116357538Y-134448571D01*
X116433728Y-134448571D01*
X117043252Y-134981904D02*
X117043252Y-134562857D01*
X117005157Y-134486666D01*
X116928966Y-134448571D01*
X116776585Y-134448571D01*
X116700395Y-134486666D01*
X117043252Y-134943809D02*
X116967061Y-134981904D01*
X116776585Y-134981904D01*
X116700395Y-134943809D01*
X116662300Y-134867619D01*
X116662300Y-134791428D01*
X116700395Y-134715238D01*
X116776585Y-134677142D01*
X116967061Y-134677142D01*
X117043252Y-134639047D01*
X117424204Y-134448571D02*
X117424204Y-134981904D01*
X117424204Y-134524761D02*
X117462300Y-134486666D01*
X117538490Y-134448571D01*
X117652776Y-134448571D01*
X117728966Y-134486666D01*
X117767061Y-134562857D01*
X117767061Y-134981904D01*
X118109919Y-134943809D02*
X118186109Y-134981904D01*
X118338490Y-134981904D01*
X118414680Y-134943809D01*
X118452776Y-134867619D01*
X118452776Y-134829523D01*
X118414680Y-134753333D01*
X118338490Y-134715238D01*
X118224204Y-134715238D01*
X118148014Y-134677142D01*
X118109919Y-134600952D01*
X118109919Y-134562857D01*
X118148014Y-134486666D01*
X118224204Y-134448571D01*
X118338490Y-134448571D01*
X118414680Y-134486666D01*
X118909919Y-134981904D02*
X118833728Y-134943809D01*
X118795633Y-134867619D01*
X118795633Y-134181904D01*
X119557538Y-134981904D02*
X119557538Y-134562857D01*
X119519442Y-134486666D01*
X119443252Y-134448571D01*
X119290871Y-134448571D01*
X119214680Y-134486666D01*
X119557538Y-134943809D02*
X119481347Y-134981904D01*
X119290871Y-134981904D01*
X119214680Y-134943809D01*
X119176585Y-134867619D01*
X119176585Y-134791428D01*
X119214680Y-134715238D01*
X119290871Y-134677142D01*
X119481347Y-134677142D01*
X119557538Y-134639047D01*
X119824204Y-134448571D02*
X120128966Y-134448571D01*
X119938490Y-134181904D02*
X119938490Y-134867619D01*
X119976585Y-134943809D01*
X120052776Y-134981904D01*
X120128966Y-134981904D01*
X120509919Y-134981904D02*
X120433728Y-134943809D01*
X120395633Y-134905714D01*
X120357538Y-134829523D01*
X120357538Y-134600952D01*
X120395633Y-134524761D01*
X120433728Y-134486666D01*
X120509919Y-134448571D01*
X120624204Y-134448571D01*
X120700395Y-134486666D01*
X120738490Y-134524761D01*
X120776585Y-134600952D01*
X120776585Y-134829523D01*
X120738490Y-134905714D01*
X120700395Y-134943809D01*
X120624204Y-134981904D01*
X120509919Y-134981904D01*
X121119442Y-134981904D02*
X121119442Y-134448571D01*
X121119442Y-134600952D02*
X121157538Y-134524761D01*
X121195633Y-134486666D01*
X121271823Y-134448571D01*
X121348014Y-134448571D01*
X122148014Y-134448571D02*
X122338490Y-134981904D01*
X122528966Y-134448571D01*
X122986109Y-134181904D02*
X123062300Y-134181904D01*
X123138490Y-134220000D01*
X123176585Y-134258095D01*
X123214680Y-134334285D01*
X123252776Y-134486666D01*
X123252776Y-134677142D01*
X123214680Y-134829523D01*
X123176585Y-134905714D01*
X123138490Y-134943809D01*
X123062300Y-134981904D01*
X122986109Y-134981904D01*
X122909919Y-134943809D01*
X122871823Y-134905714D01*
X122833728Y-134829523D01*
X122795633Y-134677142D01*
X122795633Y-134486666D01*
X122833728Y-134334285D01*
X122871823Y-134258095D01*
X122909919Y-134220000D01*
X122986109Y-134181904D01*
X123595633Y-134905714D02*
X123633728Y-134943809D01*
X123595633Y-134981904D01*
X123557538Y-134943809D01*
X123595633Y-134905714D01*
X123595633Y-134981904D01*
X124395633Y-134981904D02*
X123938490Y-134981904D01*
X124167061Y-134981904D02*
X124167061Y-134181904D01*
X124090871Y-134296190D01*
X124014680Y-134372380D01*
X123938490Y-134410476D01*
D14*
X127765840Y-130089280D02*
X127765840Y-130309280D01*
X127765840Y-130089280D02*
G75*
G03X127765840Y-124889280I-1100000J2600000D01*
G01*
X124105840Y-124509280D02*
X124105840Y-127589280D01*
X127765840Y-124429280D02*
X127765840Y-124889280D01*
X127765840Y-124429280D02*
X126565840Y-124429280D01*
X102207000Y-72477000D02*
X132687000Y-72477000D01*
X132687000Y-72477000D02*
X132687000Y-123277000D01*
X132687000Y-123277000D02*
X102207000Y-123277000D01*
X102207000Y-123277000D02*
X102207000Y-72477000D01*
X119961000Y-109252000D02*
X119961000Y-110762000D01*
X116260000Y-109252000D02*
X116260000Y-110762000D01*
X112990000Y-110762000D02*
X123230000Y-110762000D01*
X123230000Y-109252000D02*
X123230000Y-113893000D01*
X112990000Y-109252000D02*
X112990000Y-113893000D01*
X112990000Y-113893000D02*
X123230000Y-113893000D01*
X112990000Y-109252000D02*
X123230000Y-109252000D01*
X108213840Y-129952160D02*
X108213840Y-126862160D01*
X108153840Y-128407160D02*
G75*
G03X108153840Y-128407160I-2500000J0D01*
G01*
X102663840Y-128407622D02*
G75*
G02X108213840Y-126862330I2990000J462D01*
G01*
X102663840Y-128406698D02*
G75*
G03X108213840Y-129951990I2990000J-462D01*
G01*
D13*
X123668220Y-130724518D02*
X122668220Y-130724518D01*
X123668220Y-129676899D02*
X123192030Y-130010232D01*
X123668220Y-130248327D02*
X122668220Y-130248327D01*
X122668220Y-129867375D01*
X122715840Y-129772137D01*
X122763459Y-129724518D01*
X122858697Y-129676899D01*
X123001554Y-129676899D01*
X123096792Y-129724518D01*
X123144411Y-129772137D01*
X123192030Y-129867375D01*
X123192030Y-130248327D01*
X123763459Y-129486422D02*
X123763459Y-128724518D01*
X123668220Y-127914994D02*
X123192030Y-128248327D01*
X123668220Y-128486422D02*
X122668220Y-128486422D01*
X122668220Y-128105470D01*
X122715840Y-128010232D01*
X122763459Y-127962613D01*
X122858697Y-127914994D01*
X123001554Y-127914994D01*
X123096792Y-127962613D01*
X123144411Y-128010232D01*
X123192030Y-128105470D01*
X123192030Y-128486422D01*
X123620601Y-127105470D02*
X123668220Y-127200708D01*
X123668220Y-127391184D01*
X123620601Y-127486422D01*
X123525363Y-127534041D01*
X123144411Y-127534041D01*
X123049173Y-127486422D01*
X123001554Y-127391184D01*
X123001554Y-127200708D01*
X123049173Y-127105470D01*
X123144411Y-127057851D01*
X123239649Y-127057851D01*
X123334887Y-127534041D01*
X123620601Y-126200708D02*
X123668220Y-126295946D01*
X123668220Y-126486422D01*
X123620601Y-126581660D01*
X123572982Y-126629280D01*
X123477744Y-126676899D01*
X123192030Y-126676899D01*
X123096792Y-126629280D01*
X123049173Y-126581660D01*
X123001554Y-126486422D01*
X123001554Y-126295946D01*
X123049173Y-126200708D01*
X123001554Y-125867375D02*
X123668220Y-125629280D01*
X123001554Y-125391184D01*
X123668220Y-124486422D02*
X123668220Y-125057851D01*
X123668220Y-124772137D02*
X122668220Y-124772137D01*
X122811078Y-124867375D01*
X122906316Y-124962613D01*
X122953935Y-125057851D01*
X115713142Y-70794571D02*
X116046476Y-70794571D01*
X116189333Y-71318380D02*
X115713142Y-71318380D01*
X115713142Y-70318380D01*
X116189333Y-70318380D01*
X116570285Y-71270761D02*
X116713142Y-71318380D01*
X116951238Y-71318380D01*
X117046476Y-71270761D01*
X117094095Y-71223142D01*
X117141714Y-71127904D01*
X117141714Y-71032666D01*
X117094095Y-70937428D01*
X117046476Y-70889809D01*
X116951238Y-70842190D01*
X116760761Y-70794571D01*
X116665523Y-70746952D01*
X116617904Y-70699333D01*
X116570285Y-70604095D01*
X116570285Y-70508857D01*
X116617904Y-70413619D01*
X116665523Y-70366000D01*
X116760761Y-70318380D01*
X116998857Y-70318380D01*
X117141714Y-70366000D01*
X117570285Y-71318380D02*
X117570285Y-70318380D01*
X117951238Y-70318380D01*
X118046476Y-70366000D01*
X118094095Y-70413619D01*
X118141714Y-70508857D01*
X118141714Y-70651714D01*
X118094095Y-70746952D01*
X118046476Y-70794571D01*
X117951238Y-70842190D01*
X117570285Y-70842190D01*
X118475047Y-70318380D02*
X119094095Y-70318380D01*
X118760761Y-70699333D01*
X118903619Y-70699333D01*
X118998857Y-70746952D01*
X119046476Y-70794571D01*
X119094095Y-70889809D01*
X119094095Y-71127904D01*
X119046476Y-71223142D01*
X118998857Y-71270761D01*
X118903619Y-71318380D01*
X118617904Y-71318380D01*
X118522666Y-71270761D01*
X118475047Y-71223142D01*
X119475047Y-70413619D02*
X119522666Y-70366000D01*
X119617904Y-70318380D01*
X119856000Y-70318380D01*
X119951238Y-70366000D01*
X119998857Y-70413619D01*
X120046476Y-70508857D01*
X120046476Y-70604095D01*
X119998857Y-70746952D01*
X119427428Y-71318380D01*
X120046476Y-71318380D01*
X106621285Y-113549380D02*
X106049857Y-113549380D01*
X106335571Y-113549380D02*
X106335571Y-112549380D01*
X106240333Y-112692238D01*
X106145095Y-112787476D01*
X106049857Y-112835095D01*
X107573666Y-113549380D02*
X107002238Y-113549380D01*
X107287952Y-113549380D02*
X107287952Y-112549380D01*
X107192714Y-112692238D01*
X107097476Y-112787476D01*
X107002238Y-112835095D01*
X108716523Y-112501761D02*
X107859380Y-113787476D01*
X109621285Y-113454142D02*
X109573666Y-113501761D01*
X109430809Y-113549380D01*
X109335571Y-113549380D01*
X109192714Y-113501761D01*
X109097476Y-113406523D01*
X109049857Y-113311285D01*
X109002238Y-113120809D01*
X109002238Y-112977952D01*
X109049857Y-112787476D01*
X109097476Y-112692238D01*
X109192714Y-112597000D01*
X109335571Y-112549380D01*
X109430809Y-112549380D01*
X109573666Y-112597000D01*
X109621285Y-112644619D01*
X110049857Y-113549380D02*
X110049857Y-112549380D01*
X110383190Y-113263666D01*
X110716523Y-112549380D01*
X110716523Y-113549380D01*
X111192714Y-113549380D02*
X111192714Y-112549380D01*
X111430809Y-112549380D01*
X111573666Y-112597000D01*
X111668904Y-112692238D01*
X111716523Y-112787476D01*
X111764142Y-112977952D01*
X111764142Y-113120809D01*
X111716523Y-113311285D01*
X111668904Y-113406523D01*
X111573666Y-113501761D01*
X111430809Y-113549380D01*
X111192714Y-113549380D01*
X128305476Y-115109380D02*
X128115000Y-115109380D01*
X128019761Y-115157000D01*
X127972142Y-115204619D01*
X127876904Y-115347476D01*
X127829285Y-115537952D01*
X127829285Y-115918904D01*
X127876904Y-116014142D01*
X127924523Y-116061761D01*
X128019761Y-116109380D01*
X128210238Y-116109380D01*
X128305476Y-116061761D01*
X128353095Y-116014142D01*
X128400714Y-115918904D01*
X128400714Y-115680809D01*
X128353095Y-115585571D01*
X128305476Y-115537952D01*
X128210238Y-115490333D01*
X128019761Y-115490333D01*
X127924523Y-115537952D01*
X127876904Y-115585571D01*
X127829285Y-115680809D01*
X127781666Y-112569380D02*
X128448333Y-112569380D01*
X128019761Y-113569380D01*
X128019761Y-110457952D02*
X127924523Y-110410333D01*
X127876904Y-110362714D01*
X127829285Y-110267476D01*
X127829285Y-110219857D01*
X127876904Y-110124619D01*
X127924523Y-110077000D01*
X128019761Y-110029380D01*
X128210238Y-110029380D01*
X128305476Y-110077000D01*
X128353095Y-110124619D01*
X128400714Y-110219857D01*
X128400714Y-110267476D01*
X128353095Y-110362714D01*
X128305476Y-110410333D01*
X128210238Y-110457952D01*
X128019761Y-110457952D01*
X127924523Y-110505571D01*
X127876904Y-110553190D01*
X127829285Y-110648428D01*
X127829285Y-110838904D01*
X127876904Y-110934142D01*
X127924523Y-110981761D01*
X128019761Y-111029380D01*
X128210238Y-111029380D01*
X128305476Y-110981761D01*
X128353095Y-110934142D01*
X128400714Y-110838904D01*
X128400714Y-110648428D01*
X128353095Y-110553190D01*
X128305476Y-110505571D01*
X128210238Y-110457952D01*
X128067380Y-107489380D02*
X128162619Y-107489380D01*
X128257857Y-107537000D01*
X128305476Y-107584619D01*
X128353095Y-107679857D01*
X128400714Y-107870333D01*
X128400714Y-108108428D01*
X128353095Y-108298904D01*
X128305476Y-108394142D01*
X128257857Y-108441761D01*
X128162619Y-108489380D01*
X128067380Y-108489380D01*
X127972142Y-108441761D01*
X127924523Y-108394142D01*
X127876904Y-108298904D01*
X127829285Y-108108428D01*
X127829285Y-107870333D01*
X127876904Y-107679857D01*
X127924523Y-107584619D01*
X127972142Y-107537000D01*
X128067380Y-107489380D01*
X127924523Y-105949380D02*
X127353095Y-105949380D01*
X127638809Y-105949380D02*
X127638809Y-104949380D01*
X127543571Y-105092238D01*
X127448333Y-105187476D01*
X127353095Y-105235095D01*
X128829285Y-104949380D02*
X128353095Y-104949380D01*
X128305476Y-105425571D01*
X128353095Y-105377952D01*
X128448333Y-105330333D01*
X128686428Y-105330333D01*
X128781666Y-105377952D01*
X128829285Y-105425571D01*
X128876904Y-105520809D01*
X128876904Y-105758904D01*
X128829285Y-105854142D01*
X128781666Y-105901761D01*
X128686428Y-105949380D01*
X128448333Y-105949380D01*
X128353095Y-105901761D01*
X128305476Y-105854142D01*
X127829285Y-102504619D02*
X127876904Y-102457000D01*
X127972142Y-102409380D01*
X128210238Y-102409380D01*
X128305476Y-102457000D01*
X128353095Y-102504619D01*
X128400714Y-102599857D01*
X128400714Y-102695095D01*
X128353095Y-102837952D01*
X127781666Y-103409380D01*
X128400714Y-103409380D01*
X128305476Y-100202714D02*
X128305476Y-100869380D01*
X128067380Y-99821761D02*
X127829285Y-100536047D01*
X128448333Y-100536047D01*
X127924523Y-98329380D02*
X127353095Y-98329380D01*
X127638809Y-98329380D02*
X127638809Y-97329380D01*
X127543571Y-97472238D01*
X127448333Y-97567476D01*
X127353095Y-97615095D01*
X128781666Y-97329380D02*
X128591190Y-97329380D01*
X128495952Y-97377000D01*
X128448333Y-97424619D01*
X128353095Y-97567476D01*
X128305476Y-97757952D01*
X128305476Y-98138904D01*
X128353095Y-98234142D01*
X128400714Y-98281761D01*
X128495952Y-98329380D01*
X128686428Y-98329380D01*
X128781666Y-98281761D01*
X128829285Y-98234142D01*
X128876904Y-98138904D01*
X128876904Y-97900809D01*
X128829285Y-97805571D01*
X128781666Y-97757952D01*
X128686428Y-97710333D01*
X128495952Y-97710333D01*
X128400714Y-97757952D01*
X128353095Y-97805571D01*
X128305476Y-97900809D01*
X127924523Y-95789380D02*
X127353095Y-95789380D01*
X127638809Y-95789380D02*
X127638809Y-94789380D01*
X127543571Y-94932238D01*
X127448333Y-95027476D01*
X127353095Y-95075095D01*
X128257857Y-94789380D02*
X128924523Y-94789380D01*
X128495952Y-95789380D01*
X128353095Y-92249380D02*
X127876904Y-92249380D01*
X127829285Y-92725571D01*
X127876904Y-92677952D01*
X127972142Y-92630333D01*
X128210238Y-92630333D01*
X128305476Y-92677952D01*
X128353095Y-92725571D01*
X128400714Y-92820809D01*
X128400714Y-93058904D01*
X128353095Y-93154142D01*
X128305476Y-93201761D01*
X128210238Y-93249380D01*
X127972142Y-93249380D01*
X127876904Y-93201761D01*
X127829285Y-93154142D01*
X127924523Y-90709380D02*
X127353095Y-90709380D01*
X127638809Y-90709380D02*
X127638809Y-89709380D01*
X127543571Y-89852238D01*
X127448333Y-89947476D01*
X127353095Y-89995095D01*
X128495952Y-90137952D02*
X128400714Y-90090333D01*
X128353095Y-90042714D01*
X128305476Y-89947476D01*
X128305476Y-89899857D01*
X128353095Y-89804619D01*
X128400714Y-89757000D01*
X128495952Y-89709380D01*
X128686428Y-89709380D01*
X128781666Y-89757000D01*
X128829285Y-89804619D01*
X128876904Y-89899857D01*
X128876904Y-89947476D01*
X128829285Y-90042714D01*
X128781666Y-90090333D01*
X128686428Y-90137952D01*
X128495952Y-90137952D01*
X128400714Y-90185571D01*
X128353095Y-90233190D01*
X128305476Y-90328428D01*
X128305476Y-90518904D01*
X128353095Y-90614142D01*
X128400714Y-90661761D01*
X128495952Y-90709380D01*
X128686428Y-90709380D01*
X128781666Y-90661761D01*
X128829285Y-90614142D01*
X128876904Y-90518904D01*
X128876904Y-90328428D01*
X128829285Y-90233190D01*
X128781666Y-90185571D01*
X128686428Y-90137952D01*
X127924523Y-88169380D02*
X127353095Y-88169380D01*
X127638809Y-88169380D02*
X127638809Y-87169380D01*
X127543571Y-87312238D01*
X127448333Y-87407476D01*
X127353095Y-87455095D01*
X128400714Y-88169380D02*
X128591190Y-88169380D01*
X128686428Y-88121761D01*
X128734047Y-88074142D01*
X128829285Y-87931285D01*
X128876904Y-87740809D01*
X128876904Y-87359857D01*
X128829285Y-87264619D01*
X128781666Y-87217000D01*
X128686428Y-87169380D01*
X128495952Y-87169380D01*
X128400714Y-87217000D01*
X128353095Y-87264619D01*
X128305476Y-87359857D01*
X128305476Y-87597952D01*
X128353095Y-87693190D01*
X128400714Y-87740809D01*
X128495952Y-87788428D01*
X128686428Y-87788428D01*
X128781666Y-87740809D01*
X128829285Y-87693190D01*
X128876904Y-87597952D01*
X127353095Y-84724619D02*
X127400714Y-84677000D01*
X127495952Y-84629380D01*
X127734047Y-84629380D01*
X127829285Y-84677000D01*
X127876904Y-84724619D01*
X127924523Y-84819857D01*
X127924523Y-84915095D01*
X127876904Y-85057952D01*
X127305476Y-85629380D01*
X127924523Y-85629380D01*
X128876904Y-85629380D02*
X128305476Y-85629380D01*
X128591190Y-85629380D02*
X128591190Y-84629380D01*
X128495952Y-84772238D01*
X128400714Y-84867476D01*
X128305476Y-84915095D01*
X127781666Y-82089380D02*
X128400714Y-82089380D01*
X128067380Y-82470333D01*
X128210238Y-82470333D01*
X128305476Y-82517952D01*
X128353095Y-82565571D01*
X128400714Y-82660809D01*
X128400714Y-82898904D01*
X128353095Y-82994142D01*
X128305476Y-83041761D01*
X128210238Y-83089380D01*
X127924523Y-83089380D01*
X127829285Y-83041761D01*
X127781666Y-82994142D01*
X128400714Y-80549380D02*
X127829285Y-80549380D01*
X128115000Y-80549380D02*
X128115000Y-79549380D01*
X128019761Y-79692238D01*
X127924523Y-79787476D01*
X127829285Y-79835095D01*
X127353095Y-77104619D02*
X127400714Y-77057000D01*
X127495952Y-77009380D01*
X127734047Y-77009380D01*
X127829285Y-77057000D01*
X127876904Y-77104619D01*
X127924523Y-77199857D01*
X127924523Y-77295095D01*
X127876904Y-77437952D01*
X127305476Y-78009380D01*
X127924523Y-78009380D01*
X128305476Y-77104619D02*
X128353095Y-77057000D01*
X128448333Y-77009380D01*
X128686428Y-77009380D01*
X128781666Y-77057000D01*
X128829285Y-77104619D01*
X128876904Y-77199857D01*
X128876904Y-77295095D01*
X128829285Y-77437952D01*
X128257857Y-78009380D01*
X128876904Y-78009380D01*
X127353095Y-74564619D02*
X127400714Y-74517000D01*
X127495952Y-74469380D01*
X127734047Y-74469380D01*
X127829285Y-74517000D01*
X127876904Y-74564619D01*
X127924523Y-74659857D01*
X127924523Y-74755095D01*
X127876904Y-74897952D01*
X127305476Y-75469380D01*
X127924523Y-75469380D01*
X128257857Y-74469380D02*
X128876904Y-74469380D01*
X128543571Y-74850333D01*
X128686428Y-74850333D01*
X128781666Y-74897952D01*
X128829285Y-74945571D01*
X128876904Y-75040809D01*
X128876904Y-75278904D01*
X128829285Y-75374142D01*
X128781666Y-75421761D01*
X128686428Y-75469380D01*
X128400714Y-75469380D01*
X128305476Y-75421761D01*
X128257857Y-75374142D01*
X105969476Y-77009380D02*
X106588523Y-77009380D01*
X106255190Y-77390333D01*
X106398047Y-77390333D01*
X106493285Y-77437952D01*
X106540904Y-77485571D01*
X106588523Y-77580809D01*
X106588523Y-77818904D01*
X106540904Y-77914142D01*
X106493285Y-77961761D01*
X106398047Y-78009380D01*
X106112333Y-78009380D01*
X106017095Y-77961761D01*
X105969476Y-77914142D01*
X107445666Y-77009380D02*
X107255190Y-77009380D01*
X107159952Y-77057000D01*
X107112333Y-77104619D01*
X107017095Y-77247476D01*
X106969476Y-77437952D01*
X106969476Y-77818904D01*
X107017095Y-77914142D01*
X107064714Y-77961761D01*
X107159952Y-78009380D01*
X107350428Y-78009380D01*
X107445666Y-77961761D01*
X107493285Y-77914142D01*
X107540904Y-77818904D01*
X107540904Y-77580809D01*
X107493285Y-77485571D01*
X107445666Y-77437952D01*
X107350428Y-77390333D01*
X107159952Y-77390333D01*
X107064714Y-77437952D01*
X107017095Y-77485571D01*
X106969476Y-77580809D01*
X105969476Y-79549380D02*
X106588523Y-79549380D01*
X106255190Y-79930333D01*
X106398047Y-79930333D01*
X106493285Y-79977952D01*
X106540904Y-80025571D01*
X106588523Y-80120809D01*
X106588523Y-80358904D01*
X106540904Y-80454142D01*
X106493285Y-80501761D01*
X106398047Y-80549380D01*
X106112333Y-80549380D01*
X106017095Y-80501761D01*
X105969476Y-80454142D01*
X107064714Y-80549380D02*
X107255190Y-80549380D01*
X107350428Y-80501761D01*
X107398047Y-80454142D01*
X107493285Y-80311285D01*
X107540904Y-80120809D01*
X107540904Y-79739857D01*
X107493285Y-79644619D01*
X107445666Y-79597000D01*
X107350428Y-79549380D01*
X107159952Y-79549380D01*
X107064714Y-79597000D01*
X107017095Y-79644619D01*
X106969476Y-79739857D01*
X106969476Y-79977952D01*
X107017095Y-80073190D01*
X107064714Y-80120809D01*
X107159952Y-80168428D01*
X107350428Y-80168428D01*
X107445666Y-80120809D01*
X107493285Y-80073190D01*
X107540904Y-79977952D01*
X105969476Y-82089380D02*
X106588523Y-82089380D01*
X106255190Y-82470333D01*
X106398047Y-82470333D01*
X106493285Y-82517952D01*
X106540904Y-82565571D01*
X106588523Y-82660809D01*
X106588523Y-82898904D01*
X106540904Y-82994142D01*
X106493285Y-83041761D01*
X106398047Y-83089380D01*
X106112333Y-83089380D01*
X106017095Y-83041761D01*
X105969476Y-82994142D01*
X107445666Y-82422714D02*
X107445666Y-83089380D01*
X107207571Y-82041761D02*
X106969476Y-82756047D01*
X107588523Y-82756047D01*
X105969476Y-84629380D02*
X106588523Y-84629380D01*
X106255190Y-85010333D01*
X106398047Y-85010333D01*
X106493285Y-85057952D01*
X106540904Y-85105571D01*
X106588523Y-85200809D01*
X106588523Y-85438904D01*
X106540904Y-85534142D01*
X106493285Y-85581761D01*
X106398047Y-85629380D01*
X106112333Y-85629380D01*
X106017095Y-85581761D01*
X105969476Y-85534142D01*
X107493285Y-84629380D02*
X107017095Y-84629380D01*
X106969476Y-85105571D01*
X107017095Y-85057952D01*
X107112333Y-85010333D01*
X107350428Y-85010333D01*
X107445666Y-85057952D01*
X107493285Y-85105571D01*
X107540904Y-85200809D01*
X107540904Y-85438904D01*
X107493285Y-85534142D01*
X107445666Y-85581761D01*
X107350428Y-85629380D01*
X107112333Y-85629380D01*
X107017095Y-85581761D01*
X106969476Y-85534142D01*
X105969476Y-87169380D02*
X106588523Y-87169380D01*
X106255190Y-87550333D01*
X106398047Y-87550333D01*
X106493285Y-87597952D01*
X106540904Y-87645571D01*
X106588523Y-87740809D01*
X106588523Y-87978904D01*
X106540904Y-88074142D01*
X106493285Y-88121761D01*
X106398047Y-88169380D01*
X106112333Y-88169380D01*
X106017095Y-88121761D01*
X105969476Y-88074142D01*
X106969476Y-87264619D02*
X107017095Y-87217000D01*
X107112333Y-87169380D01*
X107350428Y-87169380D01*
X107445666Y-87217000D01*
X107493285Y-87264619D01*
X107540904Y-87359857D01*
X107540904Y-87455095D01*
X107493285Y-87597952D01*
X106921857Y-88169380D01*
X107540904Y-88169380D01*
X105969476Y-89709380D02*
X106588523Y-89709380D01*
X106255190Y-90090333D01*
X106398047Y-90090333D01*
X106493285Y-90137952D01*
X106540904Y-90185571D01*
X106588523Y-90280809D01*
X106588523Y-90518904D01*
X106540904Y-90614142D01*
X106493285Y-90661761D01*
X106398047Y-90709380D01*
X106112333Y-90709380D01*
X106017095Y-90661761D01*
X105969476Y-90614142D01*
X106921857Y-89709380D02*
X107540904Y-89709380D01*
X107207571Y-90090333D01*
X107350428Y-90090333D01*
X107445666Y-90137952D01*
X107493285Y-90185571D01*
X107540904Y-90280809D01*
X107540904Y-90518904D01*
X107493285Y-90614142D01*
X107445666Y-90661761D01*
X107350428Y-90709380D01*
X107064714Y-90709380D01*
X106969476Y-90661761D01*
X106921857Y-90614142D01*
X106017095Y-92344619D02*
X106064714Y-92297000D01*
X106159952Y-92249380D01*
X106398047Y-92249380D01*
X106493285Y-92297000D01*
X106540904Y-92344619D01*
X106588523Y-92439857D01*
X106588523Y-92535095D01*
X106540904Y-92677952D01*
X105969476Y-93249380D01*
X106588523Y-93249380D01*
X107493285Y-92249380D02*
X107017095Y-92249380D01*
X106969476Y-92725571D01*
X107017095Y-92677952D01*
X107112333Y-92630333D01*
X107350428Y-92630333D01*
X107445666Y-92677952D01*
X107493285Y-92725571D01*
X107540904Y-92820809D01*
X107540904Y-93058904D01*
X107493285Y-93154142D01*
X107445666Y-93201761D01*
X107350428Y-93249380D01*
X107112333Y-93249380D01*
X107017095Y-93201761D01*
X106969476Y-93154142D01*
X106145095Y-94884619D02*
X106192714Y-94837000D01*
X106287952Y-94789380D01*
X106526047Y-94789380D01*
X106621285Y-94837000D01*
X106668904Y-94884619D01*
X106716523Y-94979857D01*
X106716523Y-95075095D01*
X106668904Y-95217952D01*
X106097476Y-95789380D01*
X106716523Y-95789380D01*
X107573666Y-94789380D02*
X107383190Y-94789380D01*
X107287952Y-94837000D01*
X107240333Y-94884619D01*
X107145095Y-95027476D01*
X107097476Y-95217952D01*
X107097476Y-95598904D01*
X107145095Y-95694142D01*
X107192714Y-95741761D01*
X107287952Y-95789380D01*
X107478428Y-95789380D01*
X107573666Y-95741761D01*
X107621285Y-95694142D01*
X107668904Y-95598904D01*
X107668904Y-95360809D01*
X107621285Y-95265571D01*
X107573666Y-95217952D01*
X107478428Y-95170333D01*
X107287952Y-95170333D01*
X107192714Y-95217952D01*
X107145095Y-95265571D01*
X107097476Y-95360809D01*
X106145095Y-97424619D02*
X106192714Y-97377000D01*
X106287952Y-97329380D01*
X106526047Y-97329380D01*
X106621285Y-97377000D01*
X106668904Y-97424619D01*
X106716523Y-97519857D01*
X106716523Y-97615095D01*
X106668904Y-97757952D01*
X106097476Y-98329380D01*
X106716523Y-98329380D01*
X107049857Y-97329380D02*
X107716523Y-97329380D01*
X107287952Y-98329380D01*
X106040904Y-74945571D02*
X106374238Y-74945571D01*
X106517095Y-75469380D02*
X106040904Y-75469380D01*
X106040904Y-74469380D01*
X106517095Y-74469380D01*
X106945666Y-75469380D02*
X106945666Y-74469380D01*
X107517095Y-75469380D01*
X107517095Y-74469380D01*
X106191761Y-117649380D02*
X106525095Y-118649380D01*
X106858428Y-117649380D01*
X107191761Y-118649380D02*
X107191761Y-117649380D01*
X107667952Y-118649380D02*
X107667952Y-117649380D01*
X108239380Y-118649380D01*
X108239380Y-117649380D01*
X106525095Y-115157000D02*
X106429857Y-115109380D01*
X106287000Y-115109380D01*
X106144142Y-115157000D01*
X106048904Y-115252238D01*
X106001285Y-115347476D01*
X105953666Y-115537952D01*
X105953666Y-115680809D01*
X106001285Y-115871285D01*
X106048904Y-115966523D01*
X106144142Y-116061761D01*
X106287000Y-116109380D01*
X106382238Y-116109380D01*
X106525095Y-116061761D01*
X106572714Y-116014142D01*
X106572714Y-115680809D01*
X106382238Y-115680809D01*
X107001285Y-116109380D02*
X107001285Y-115109380D01*
X107572714Y-116109380D01*
X107572714Y-115109380D01*
X108048904Y-116109380D02*
X108048904Y-115109380D01*
X108287000Y-115109380D01*
X108429857Y-115157000D01*
X108525095Y-115252238D01*
X108572714Y-115347476D01*
X108620333Y-115537952D01*
X108620333Y-115680809D01*
X108572714Y-115871285D01*
X108525095Y-115966523D01*
X108429857Y-116061761D01*
X108287000Y-116109380D01*
X108048904Y-116109380D01*
X126368904Y-117649380D02*
X126987952Y-117649380D01*
X126654619Y-118030333D01*
X126797476Y-118030333D01*
X126892714Y-118077952D01*
X126940333Y-118125571D01*
X126987952Y-118220809D01*
X126987952Y-118458904D01*
X126940333Y-118554142D01*
X126892714Y-118601761D01*
X126797476Y-118649380D01*
X126511761Y-118649380D01*
X126416523Y-118601761D01*
X126368904Y-118554142D01*
X127273666Y-117649380D02*
X127607000Y-118649380D01*
X127940333Y-117649380D01*
X128178428Y-117649380D02*
X128797476Y-117649380D01*
X128464142Y-118030333D01*
X128607000Y-118030333D01*
X128702238Y-118077952D01*
X128749857Y-118125571D01*
X128797476Y-118220809D01*
X128797476Y-118458904D01*
X128749857Y-118554142D01*
X128702238Y-118601761D01*
X128607000Y-118649380D01*
X128321285Y-118649380D01*
X128226047Y-118601761D01*
X128178428Y-118554142D01*
X106740333Y-111049380D02*
X106168904Y-111049380D01*
X106454619Y-111049380D02*
X106454619Y-110049380D01*
X106359380Y-110192238D01*
X106264142Y-110287476D01*
X106168904Y-110335095D01*
X107359380Y-110049380D02*
X107454619Y-110049380D01*
X107549857Y-110097000D01*
X107597476Y-110144619D01*
X107645095Y-110239857D01*
X107692714Y-110430333D01*
X107692714Y-110668428D01*
X107645095Y-110858904D01*
X107597476Y-110954142D01*
X107549857Y-111001761D01*
X107454619Y-111049380D01*
X107359380Y-111049380D01*
X107264142Y-111001761D01*
X107216523Y-110954142D01*
X107168904Y-110858904D01*
X107121285Y-110668428D01*
X107121285Y-110430333D01*
X107168904Y-110239857D01*
X107216523Y-110144619D01*
X107264142Y-110097000D01*
X107359380Y-110049380D01*
X108835571Y-110001761D02*
X107978428Y-111287476D01*
X109121285Y-111001761D02*
X109264142Y-111049380D01*
X109502238Y-111049380D01*
X109597476Y-111001761D01*
X109645095Y-110954142D01*
X109692714Y-110858904D01*
X109692714Y-110763666D01*
X109645095Y-110668428D01*
X109597476Y-110620809D01*
X109502238Y-110573190D01*
X109311761Y-110525571D01*
X109216523Y-110477952D01*
X109168904Y-110430333D01*
X109121285Y-110335095D01*
X109121285Y-110239857D01*
X109168904Y-110144619D01*
X109216523Y-110097000D01*
X109311761Y-110049380D01*
X109549857Y-110049380D01*
X109692714Y-110097000D01*
X110121285Y-111049380D02*
X110121285Y-110049380D01*
X110359380Y-110049380D01*
X110502238Y-110097000D01*
X110597476Y-110192238D01*
X110645095Y-110287476D01*
X110692714Y-110477952D01*
X110692714Y-110620809D01*
X110645095Y-110811285D01*
X110597476Y-110906523D01*
X110502238Y-111001761D01*
X110359380Y-111049380D01*
X110121285Y-111049380D01*
X111026047Y-110049380D02*
X111645095Y-110049380D01*
X111311761Y-110430333D01*
X111454619Y-110430333D01*
X111549857Y-110477952D01*
X111597476Y-110525571D01*
X111645095Y-110620809D01*
X111645095Y-110858904D01*
X111597476Y-110954142D01*
X111549857Y-111001761D01*
X111454619Y-111049380D01*
X111168904Y-111049380D01*
X111073666Y-111001761D01*
X111026047Y-110954142D01*
X106240333Y-108549380D02*
X106430809Y-108549380D01*
X106526047Y-108501761D01*
X106573666Y-108454142D01*
X106668904Y-108311285D01*
X106716523Y-108120809D01*
X106716523Y-107739857D01*
X106668904Y-107644619D01*
X106621285Y-107597000D01*
X106526047Y-107549380D01*
X106335571Y-107549380D01*
X106240333Y-107597000D01*
X106192714Y-107644619D01*
X106145095Y-107739857D01*
X106145095Y-107977952D01*
X106192714Y-108073190D01*
X106240333Y-108120809D01*
X106335571Y-108168428D01*
X106526047Y-108168428D01*
X106621285Y-108120809D01*
X106668904Y-108073190D01*
X106716523Y-107977952D01*
X107859380Y-107501761D02*
X107002238Y-108787476D01*
X108145095Y-108501761D02*
X108287952Y-108549380D01*
X108526047Y-108549380D01*
X108621285Y-108501761D01*
X108668904Y-108454142D01*
X108716523Y-108358904D01*
X108716523Y-108263666D01*
X108668904Y-108168428D01*
X108621285Y-108120809D01*
X108526047Y-108073190D01*
X108335571Y-108025571D01*
X108240333Y-107977952D01*
X108192714Y-107930333D01*
X108145095Y-107835095D01*
X108145095Y-107739857D01*
X108192714Y-107644619D01*
X108240333Y-107597000D01*
X108335571Y-107549380D01*
X108573666Y-107549380D01*
X108716523Y-107597000D01*
X109145095Y-108549380D02*
X109145095Y-107549380D01*
X109383190Y-107549380D01*
X109526047Y-107597000D01*
X109621285Y-107692238D01*
X109668904Y-107787476D01*
X109716523Y-107977952D01*
X109716523Y-108120809D01*
X109668904Y-108311285D01*
X109621285Y-108406523D01*
X109526047Y-108501761D01*
X109383190Y-108549380D01*
X109145095Y-108549380D01*
X110097476Y-107644619D02*
X110145095Y-107597000D01*
X110240333Y-107549380D01*
X110478428Y-107549380D01*
X110573666Y-107597000D01*
X110621285Y-107644619D01*
X110668904Y-107739857D01*
X110668904Y-107835095D01*
X110621285Y-107977952D01*
X110049857Y-108549380D01*
X110668904Y-108549380D01*
X106716523Y-105949380D02*
X106145095Y-105949380D01*
X106430809Y-105949380D02*
X106430809Y-104949380D01*
X106335571Y-105092238D01*
X106240333Y-105187476D01*
X106145095Y-105235095D01*
X107049857Y-104949380D02*
X107668904Y-104949380D01*
X107335571Y-105330333D01*
X107478428Y-105330333D01*
X107573666Y-105377952D01*
X107621285Y-105425571D01*
X107668904Y-105520809D01*
X107668904Y-105758904D01*
X107621285Y-105854142D01*
X107573666Y-105901761D01*
X107478428Y-105949380D01*
X107192714Y-105949380D01*
X107097476Y-105901761D01*
X107049857Y-105854142D01*
X106716523Y-103409380D02*
X106145095Y-103409380D01*
X106430809Y-103409380D02*
X106430809Y-102409380D01*
X106335571Y-102552238D01*
X106240333Y-102647476D01*
X106145095Y-102695095D01*
X107097476Y-102504619D02*
X107145095Y-102457000D01*
X107240333Y-102409380D01*
X107478428Y-102409380D01*
X107573666Y-102457000D01*
X107621285Y-102504619D01*
X107668904Y-102599857D01*
X107668904Y-102695095D01*
X107621285Y-102837952D01*
X107049857Y-103409380D01*
X107668904Y-103409380D01*
X106716523Y-100869380D02*
X106145095Y-100869380D01*
X106430809Y-100869380D02*
X106430809Y-99869380D01*
X106335571Y-100012238D01*
X106240333Y-100107476D01*
X106145095Y-100155095D01*
X107573666Y-100202714D02*
X107573666Y-100869380D01*
X107335571Y-99821761D02*
X107097476Y-100536047D01*
X107716523Y-100536047D01*
X117141666Y-129297180D02*
X117760714Y-129297180D01*
X117427380Y-129678133D01*
X117570238Y-129678133D01*
X117665476Y-129725752D01*
X117713095Y-129773371D01*
X117760714Y-129868609D01*
X117760714Y-130106704D01*
X117713095Y-130201942D01*
X117665476Y-130249561D01*
X117570238Y-130297180D01*
X117284523Y-130297180D01*
X117189285Y-130249561D01*
X117141666Y-130201942D01*
X129686085Y-67340219D02*
X129733704Y-67292600D01*
X129828942Y-67244980D01*
X130067038Y-67244980D01*
X130162276Y-67292600D01*
X130209895Y-67340219D01*
X130257514Y-67435457D01*
X130257514Y-67530695D01*
X130209895Y-67673552D01*
X129638466Y-68244980D01*
X130257514Y-68244980D01*
X105238514Y-68244980D02*
X104667085Y-68244980D01*
X104952800Y-68244980D02*
X104952800Y-67244980D01*
X104857561Y-67387838D01*
X104762323Y-67483076D01*
X104667085Y-67530695D01*
X118014761Y-108799619D02*
X117919523Y-108752000D01*
X117824285Y-108656761D01*
X117681428Y-108513904D01*
X117586190Y-108466285D01*
X117490952Y-108466285D01*
X117538571Y-108704380D02*
X117443333Y-108656761D01*
X117348095Y-108561523D01*
X117300476Y-108371047D01*
X117300476Y-108037714D01*
X117348095Y-107847238D01*
X117443333Y-107752000D01*
X117538571Y-107704380D01*
X117729047Y-107704380D01*
X117824285Y-107752000D01*
X117919523Y-107847238D01*
X117967142Y-108037714D01*
X117967142Y-108371047D01*
X117919523Y-108561523D01*
X117824285Y-108656761D01*
X117729047Y-108704380D01*
X117538571Y-108704380D01*
X118919523Y-108704380D02*
X118348095Y-108704380D01*
X118633809Y-108704380D02*
X118633809Y-107704380D01*
X118538571Y-107847238D01*
X118443333Y-107942476D01*
X118348095Y-107990095D01*
X104915744Y-132819540D02*
X104915744Y-131819540D01*
X105153840Y-131819540D01*
X105296697Y-131867160D01*
X105391935Y-131962398D01*
X105439554Y-132057636D01*
X105487173Y-132248112D01*
X105487173Y-132390969D01*
X105439554Y-132581445D01*
X105391935Y-132676683D01*
X105296697Y-132771921D01*
X105153840Y-132819540D01*
X104915744Y-132819540D01*
X106439554Y-132819540D02*
X105868125Y-132819540D01*
X106153840Y-132819540D02*
X106153840Y-131819540D01*
X106058601Y-131962398D01*
X105963363Y-132057636D01*
X105868125Y-132105255D01*
M02*
