G04 #@! TF.GenerationSoftware,KiCad,Pcbnew,5.1.3-ffb9f22~84~ubuntu18.04.1*
G04 #@! TF.CreationDate,2019-08-09T22:51:00+03:00*
G04 #@! TF.ProjectId,Edifier_Remote,45646966-6965-4725-9f52-656d6f74652e,rev?*
G04 #@! TF.SameCoordinates,Original*
G04 #@! TF.FileFunction,Legend,Bot*
G04 #@! TF.FilePolarity,Positive*
%FSLAX46Y46*%
G04 Gerber Fmt 4.6, Leading zero omitted, Abs format (unit mm)*
G04 Created by KiCad (PCBNEW 5.1.3-ffb9f22~84~ubuntu18.04.1) date 2019-08-09 22:51:00*
%MOMM*%
%LPD*%
G04 APERTURE LIST*
%ADD10C,0.150000*%
%ADD11C,0.200000*%
%ADD12C,0.010000*%
G04 APERTURE END LIST*
D10*
X125725819Y-89961980D02*
X126059152Y-89485790D01*
X126297247Y-89961980D02*
X126297247Y-88961980D01*
X125916295Y-88961980D01*
X125821057Y-89009600D01*
X125773438Y-89057219D01*
X125725819Y-89152457D01*
X125725819Y-89295314D01*
X125773438Y-89390552D01*
X125821057Y-89438171D01*
X125916295Y-89485790D01*
X126297247Y-89485790D01*
X124916295Y-89914361D02*
X125011533Y-89961980D01*
X125202009Y-89961980D01*
X125297247Y-89914361D01*
X125344866Y-89819123D01*
X125344866Y-89438171D01*
X125297247Y-89342933D01*
X125202009Y-89295314D01*
X125011533Y-89295314D01*
X124916295Y-89342933D01*
X124868676Y-89438171D01*
X124868676Y-89533409D01*
X125344866Y-89628647D01*
X124440104Y-89961980D02*
X124440104Y-89295314D01*
X124440104Y-89390552D02*
X124392485Y-89342933D01*
X124297247Y-89295314D01*
X124154390Y-89295314D01*
X124059152Y-89342933D01*
X124011533Y-89438171D01*
X124011533Y-89961980D01*
X124011533Y-89438171D02*
X123963914Y-89342933D01*
X123868676Y-89295314D01*
X123725819Y-89295314D01*
X123630580Y-89342933D01*
X123582961Y-89438171D01*
X123582961Y-89961980D01*
X122963914Y-89961980D02*
X123059152Y-89914361D01*
X123106771Y-89866742D01*
X123154390Y-89771504D01*
X123154390Y-89485790D01*
X123106771Y-89390552D01*
X123059152Y-89342933D01*
X122963914Y-89295314D01*
X122821057Y-89295314D01*
X122725819Y-89342933D01*
X122678200Y-89390552D01*
X122630580Y-89485790D01*
X122630580Y-89771504D01*
X122678200Y-89866742D01*
X122725819Y-89914361D01*
X122821057Y-89961980D01*
X122963914Y-89961980D01*
X122344866Y-89295314D02*
X121963914Y-89295314D01*
X122202009Y-88961980D02*
X122202009Y-89819123D01*
X122154390Y-89914361D01*
X122059152Y-89961980D01*
X121963914Y-89961980D01*
X121249628Y-89914361D02*
X121344866Y-89961980D01*
X121535342Y-89961980D01*
X121630580Y-89914361D01*
X121678200Y-89819123D01*
X121678200Y-89438171D01*
X121630580Y-89342933D01*
X121535342Y-89295314D01*
X121344866Y-89295314D01*
X121249628Y-89342933D01*
X121202009Y-89438171D01*
X121202009Y-89533409D01*
X121678200Y-89628647D01*
X120154390Y-88961980D02*
X119582961Y-88961980D01*
X119868676Y-89961980D02*
X119868676Y-88961980D01*
X119249628Y-89961980D02*
X119249628Y-89295314D01*
X119249628Y-89485790D02*
X119202009Y-89390552D01*
X119154390Y-89342933D01*
X119059152Y-89295314D01*
X118963914Y-89295314D01*
X118202009Y-89961980D02*
X118202009Y-89438171D01*
X118249628Y-89342933D01*
X118344866Y-89295314D01*
X118535342Y-89295314D01*
X118630580Y-89342933D01*
X118202009Y-89914361D02*
X118297247Y-89961980D01*
X118535342Y-89961980D01*
X118630580Y-89914361D01*
X118678200Y-89819123D01*
X118678200Y-89723885D01*
X118630580Y-89628647D01*
X118535342Y-89581028D01*
X118297247Y-89581028D01*
X118202009Y-89533409D01*
X117725819Y-89295314D02*
X117725819Y-89961980D01*
X117725819Y-89390552D02*
X117678200Y-89342933D01*
X117582961Y-89295314D01*
X117440104Y-89295314D01*
X117344866Y-89342933D01*
X117297247Y-89438171D01*
X117297247Y-89961980D01*
X116868676Y-89914361D02*
X116773438Y-89961980D01*
X116582961Y-89961980D01*
X116487723Y-89914361D01*
X116440104Y-89819123D01*
X116440104Y-89771504D01*
X116487723Y-89676266D01*
X116582961Y-89628647D01*
X116725819Y-89628647D01*
X116821057Y-89581028D01*
X116868676Y-89485790D01*
X116868676Y-89438171D01*
X116821057Y-89342933D01*
X116725819Y-89295314D01*
X116582961Y-89295314D01*
X116487723Y-89342933D01*
X115868676Y-89961980D02*
X115963914Y-89914361D01*
X116011533Y-89819123D01*
X116011533Y-88961980D01*
X115059152Y-89961980D02*
X115059152Y-89438171D01*
X115106771Y-89342933D01*
X115202009Y-89295314D01*
X115392485Y-89295314D01*
X115487723Y-89342933D01*
X115059152Y-89914361D02*
X115154390Y-89961980D01*
X115392485Y-89961980D01*
X115487723Y-89914361D01*
X115535342Y-89819123D01*
X115535342Y-89723885D01*
X115487723Y-89628647D01*
X115392485Y-89581028D01*
X115154390Y-89581028D01*
X115059152Y-89533409D01*
X114725819Y-89295314D02*
X114344866Y-89295314D01*
X114582961Y-88961980D02*
X114582961Y-89819123D01*
X114535342Y-89914361D01*
X114440104Y-89961980D01*
X114344866Y-89961980D01*
X113868676Y-89961980D02*
X113963914Y-89914361D01*
X114011533Y-89866742D01*
X114059152Y-89771504D01*
X114059152Y-89485790D01*
X114011533Y-89390552D01*
X113963914Y-89342933D01*
X113868676Y-89295314D01*
X113725819Y-89295314D01*
X113630580Y-89342933D01*
X113582961Y-89390552D01*
X113535342Y-89485790D01*
X113535342Y-89771504D01*
X113582961Y-89866742D01*
X113630580Y-89914361D01*
X113725819Y-89961980D01*
X113868676Y-89961980D01*
X113106771Y-89961980D02*
X113106771Y-89295314D01*
X113106771Y-89485790D02*
X113059152Y-89390552D01*
X113011533Y-89342933D01*
X112916295Y-89295314D01*
X112821057Y-89295314D01*
X111821057Y-89295314D02*
X111582961Y-89961980D01*
X111344866Y-89295314D01*
X110773438Y-88961980D02*
X110678200Y-88961980D01*
X110582961Y-89009600D01*
X110535342Y-89057219D01*
X110487723Y-89152457D01*
X110440104Y-89342933D01*
X110440104Y-89581028D01*
X110487723Y-89771504D01*
X110535342Y-89866742D01*
X110582961Y-89914361D01*
X110678200Y-89961980D01*
X110773438Y-89961980D01*
X110868676Y-89914361D01*
X110916295Y-89866742D01*
X110963914Y-89771504D01*
X111011533Y-89581028D01*
X111011533Y-89342933D01*
X110963914Y-89152457D01*
X110916295Y-89057219D01*
X110868676Y-89009600D01*
X110773438Y-88961980D01*
X110011533Y-89866742D02*
X109963914Y-89914361D01*
X110011533Y-89961980D01*
X110059152Y-89914361D01*
X110011533Y-89866742D01*
X110011533Y-89961980D01*
X109011533Y-89961980D02*
X109582961Y-89961980D01*
X109297247Y-89961980D02*
X109297247Y-88961980D01*
X109392485Y-89104838D01*
X109487723Y-89200076D01*
X109582961Y-89247695D01*
X122578142Y-78204961D02*
X122673380Y-78252580D01*
X122863857Y-78252580D01*
X122959095Y-78204961D01*
X123006714Y-78157342D01*
X123054333Y-78062104D01*
X123054333Y-77776390D01*
X123006714Y-77681152D01*
X122959095Y-77633533D01*
X122863857Y-77585914D01*
X122673380Y-77585914D01*
X122578142Y-77633533D01*
X122149571Y-78252580D02*
X122149571Y-77585914D01*
X122149571Y-77776390D02*
X122101952Y-77681152D01*
X122054333Y-77633533D01*
X121959095Y-77585914D01*
X121863857Y-77585914D01*
X121530523Y-78252580D02*
X121530523Y-77585914D01*
X121530523Y-77252580D02*
X121578142Y-77300200D01*
X121530523Y-77347819D01*
X121482904Y-77300200D01*
X121530523Y-77252580D01*
X121530523Y-77347819D01*
X121101952Y-78204961D02*
X121006714Y-78252580D01*
X120816238Y-78252580D01*
X120721000Y-78204961D01*
X120673380Y-78109723D01*
X120673380Y-78062104D01*
X120721000Y-77966866D01*
X120816238Y-77919247D01*
X120959095Y-77919247D01*
X121054333Y-77871628D01*
X121101952Y-77776390D01*
X121101952Y-77728771D01*
X121054333Y-77633533D01*
X120959095Y-77585914D01*
X120816238Y-77585914D01*
X120721000Y-77633533D01*
X120387666Y-77585914D02*
X120006714Y-77585914D01*
X120244809Y-77252580D02*
X120244809Y-78109723D01*
X120197190Y-78204961D01*
X120101952Y-78252580D01*
X120006714Y-78252580D01*
X119673380Y-78252580D02*
X119673380Y-77585914D01*
X119673380Y-77252580D02*
X119721000Y-77300200D01*
X119673380Y-77347819D01*
X119625761Y-77300200D01*
X119673380Y-77252580D01*
X119673380Y-77347819D01*
X118768619Y-78252580D02*
X118768619Y-77728771D01*
X118816238Y-77633533D01*
X118911476Y-77585914D01*
X119101952Y-77585914D01*
X119197190Y-77633533D01*
X118768619Y-78204961D02*
X118863857Y-78252580D01*
X119101952Y-78252580D01*
X119197190Y-78204961D01*
X119244809Y-78109723D01*
X119244809Y-78014485D01*
X119197190Y-77919247D01*
X119101952Y-77871628D01*
X118863857Y-77871628D01*
X118768619Y-77824009D01*
X118292428Y-77585914D02*
X118292428Y-78252580D01*
X118292428Y-77681152D02*
X118244809Y-77633533D01*
X118149571Y-77585914D01*
X118006714Y-77585914D01*
X117911476Y-77633533D01*
X117863857Y-77728771D01*
X117863857Y-78252580D01*
X117435285Y-78204961D02*
X117340047Y-78252580D01*
X117149571Y-78252580D01*
X117054333Y-78204961D01*
X117006714Y-78109723D01*
X117006714Y-78062104D01*
X117054333Y-77966866D01*
X117149571Y-77919247D01*
X117292428Y-77919247D01*
X117387666Y-77871628D01*
X117435285Y-77776390D01*
X117435285Y-77728771D01*
X117387666Y-77633533D01*
X117292428Y-77585914D01*
X117149571Y-77585914D01*
X117054333Y-77633533D01*
X116149571Y-78252580D02*
X116149571Y-77728771D01*
X116197190Y-77633533D01*
X116292428Y-77585914D01*
X116482904Y-77585914D01*
X116578142Y-77633533D01*
X116149571Y-78204961D02*
X116244809Y-78252580D01*
X116482904Y-78252580D01*
X116578142Y-78204961D01*
X116625761Y-78109723D01*
X116625761Y-78014485D01*
X116578142Y-77919247D01*
X116482904Y-77871628D01*
X116244809Y-77871628D01*
X116149571Y-77824009D01*
X115673380Y-77585914D02*
X115673380Y-78252580D01*
X115673380Y-77681152D02*
X115625761Y-77633533D01*
X115530523Y-77585914D01*
X115387666Y-77585914D01*
X115292428Y-77633533D01*
X115244809Y-77728771D01*
X115244809Y-78252580D01*
X114340047Y-78252580D02*
X114340047Y-77252580D01*
X114340047Y-78204961D02*
X114435285Y-78252580D01*
X114625761Y-78252580D01*
X114721000Y-78204961D01*
X114768619Y-78157342D01*
X114816238Y-78062104D01*
X114816238Y-77776390D01*
X114768619Y-77681152D01*
X114721000Y-77633533D01*
X114625761Y-77585914D01*
X114435285Y-77585914D01*
X114340047Y-77633533D01*
X113435285Y-77585914D02*
X113435285Y-78252580D01*
X113863857Y-77585914D02*
X113863857Y-78109723D01*
X113816238Y-78204961D01*
X113721000Y-78252580D01*
X113578142Y-78252580D01*
X113482904Y-78204961D01*
X113435285Y-78157342D01*
X112959095Y-78157342D02*
X112911476Y-78204961D01*
X112959095Y-78252580D01*
X113006714Y-78204961D01*
X112959095Y-78157342D01*
X112959095Y-78252580D01*
X112482904Y-78252580D02*
X112482904Y-77585914D01*
X112482904Y-77776390D02*
X112435285Y-77681152D01*
X112387666Y-77633533D01*
X112292428Y-77585914D01*
X112197190Y-77585914D01*
X111721000Y-78252580D02*
X111816238Y-78204961D01*
X111863857Y-78157342D01*
X111911476Y-78062104D01*
X111911476Y-77776390D01*
X111863857Y-77681152D01*
X111816238Y-77633533D01*
X111721000Y-77585914D01*
X111578142Y-77585914D01*
X111482904Y-77633533D01*
X111435285Y-77681152D01*
X111387666Y-77776390D01*
X111387666Y-78062104D01*
X111435285Y-78157342D01*
X111482904Y-78204961D01*
X111578142Y-78252580D01*
X111721000Y-78252580D01*
D11*
X118987200Y-132268601D02*
G75*
G03X118987200Y-132268601I-1500000J0D01*
G01*
X131497200Y-70268600D02*
G75*
G03X131497200Y-70268600I-1500000J0D01*
G01*
X106477199Y-70268600D02*
G75*
G03X106477199Y-70268600I-1500000J0D01*
G01*
D12*
G36*
X119256611Y-80183636D02*
G01*
X119207262Y-80283991D01*
X119159881Y-80448087D01*
X119159023Y-80451671D01*
X119118542Y-80610031D01*
X119071840Y-80776380D01*
X119035357Y-80894893D01*
X118995344Y-81046596D01*
X118982615Y-81165675D01*
X118994807Y-81245174D01*
X119029560Y-81278137D01*
X119084512Y-81257610D01*
X119139227Y-81200819D01*
X119192924Y-81095116D01*
X119210667Y-80996032D01*
X119232711Y-80892461D01*
X119288237Y-80803912D01*
X119361338Y-80752142D01*
X119393031Y-80746600D01*
X119428856Y-80713277D01*
X119455018Y-80613171D01*
X119461149Y-80568800D01*
X119467342Y-80393521D01*
X119441904Y-80256745D01*
X119387168Y-80169288D01*
X119372629Y-80158488D01*
X119310783Y-80143107D01*
X119256611Y-80183636D01*
X119256611Y-80183636D01*
G37*
X119256611Y-80183636D02*
X119207262Y-80283991D01*
X119159881Y-80448087D01*
X119159023Y-80451671D01*
X119118542Y-80610031D01*
X119071840Y-80776380D01*
X119035357Y-80894893D01*
X118995344Y-81046596D01*
X118982615Y-81165675D01*
X118994807Y-81245174D01*
X119029560Y-81278137D01*
X119084512Y-81257610D01*
X119139227Y-81200819D01*
X119192924Y-81095116D01*
X119210667Y-80996032D01*
X119232711Y-80892461D01*
X119288237Y-80803912D01*
X119361338Y-80752142D01*
X119393031Y-80746600D01*
X119428856Y-80713277D01*
X119455018Y-80613171D01*
X119461149Y-80568800D01*
X119467342Y-80393521D01*
X119441904Y-80256745D01*
X119387168Y-80169288D01*
X119372629Y-80158488D01*
X119310783Y-80143107D01*
X119256611Y-80183636D01*
G36*
X113992558Y-82703822D02*
G01*
X113981897Y-82719625D01*
X113963272Y-82783786D01*
X113992170Y-82863326D01*
X113995200Y-82868735D01*
X114102308Y-82995012D01*
X114244995Y-83074590D01*
X114404950Y-83098663D01*
X114460569Y-83092539D01*
X114531422Y-83057136D01*
X114598536Y-82991787D01*
X114636633Y-82922782D01*
X114638667Y-82907311D01*
X114613287Y-82872562D01*
X114553132Y-82825717D01*
X114488552Y-82789709D01*
X114444770Y-82794805D01*
X114403525Y-82827657D01*
X114312033Y-82875811D01*
X114226680Y-82861410D01*
X114162813Y-82789006D01*
X114148761Y-82752123D01*
X114106850Y-82670907D01*
X114052413Y-82654345D01*
X113992558Y-82703822D01*
X113992558Y-82703822D01*
G37*
X113992558Y-82703822D02*
X113981897Y-82719625D01*
X113963272Y-82783786D01*
X113992170Y-82863326D01*
X113995200Y-82868735D01*
X114102308Y-82995012D01*
X114244995Y-83074590D01*
X114404950Y-83098663D01*
X114460569Y-83092539D01*
X114531422Y-83057136D01*
X114598536Y-82991787D01*
X114636633Y-82922782D01*
X114638667Y-82907311D01*
X114613287Y-82872562D01*
X114553132Y-82825717D01*
X114488552Y-82789709D01*
X114444770Y-82794805D01*
X114403525Y-82827657D01*
X114312033Y-82875811D01*
X114226680Y-82861410D01*
X114162813Y-82789006D01*
X114148761Y-82752123D01*
X114106850Y-82670907D01*
X114052413Y-82654345D01*
X113992558Y-82703822D01*
G36*
X116940930Y-82637058D02*
G01*
X116895360Y-82696504D01*
X116895131Y-82767934D01*
X116885765Y-82843718D01*
X116839026Y-82890617D01*
X116746873Y-82925436D01*
X116658760Y-82894763D01*
X116596160Y-82832956D01*
X116552063Y-82784154D01*
X116522148Y-82787224D01*
X116487171Y-82829400D01*
X116444501Y-82904776D01*
X116437389Y-82961701D01*
X116464263Y-82981800D01*
X116505470Y-83001975D01*
X116578687Y-83053845D01*
X116636800Y-83100333D01*
X116722557Y-83165607D01*
X116791243Y-83206612D01*
X116817804Y-83214254D01*
X116880867Y-83204495D01*
X116934545Y-83194780D01*
X117024873Y-83151776D01*
X117122252Y-83067495D01*
X117207073Y-82962926D01*
X117259725Y-82859058D01*
X117264324Y-82841823D01*
X117272368Y-82754864D01*
X117240702Y-82695450D01*
X117212903Y-82670488D01*
X117116141Y-82619009D01*
X117020004Y-82609546D01*
X116940930Y-82637058D01*
X116940930Y-82637058D01*
G37*
X116940930Y-82637058D02*
X116895360Y-82696504D01*
X116895131Y-82767934D01*
X116885765Y-82843718D01*
X116839026Y-82890617D01*
X116746873Y-82925436D01*
X116658760Y-82894763D01*
X116596160Y-82832956D01*
X116552063Y-82784154D01*
X116522148Y-82787224D01*
X116487171Y-82829400D01*
X116444501Y-82904776D01*
X116437389Y-82961701D01*
X116464263Y-82981800D01*
X116505470Y-83001975D01*
X116578687Y-83053845D01*
X116636800Y-83100333D01*
X116722557Y-83165607D01*
X116791243Y-83206612D01*
X116817804Y-83214254D01*
X116880867Y-83204495D01*
X116934545Y-83194780D01*
X117024873Y-83151776D01*
X117122252Y-83067495D01*
X117207073Y-82962926D01*
X117259725Y-82859058D01*
X117264324Y-82841823D01*
X117272368Y-82754864D01*
X117240702Y-82695450D01*
X117212903Y-82670488D01*
X117116141Y-82619009D01*
X117020004Y-82609546D01*
X116940930Y-82637058D01*
G36*
X119255903Y-79375953D02*
G01*
X119140494Y-79424309D01*
X119001076Y-79519899D01*
X118831229Y-79664292D01*
X118624529Y-79859054D01*
X118618919Y-79864500D01*
X118379474Y-80090908D01*
X118145124Y-80300935D01*
X117922106Y-80489776D01*
X117716656Y-80652624D01*
X117535010Y-80784676D01*
X117383404Y-80881125D01*
X117268075Y-80937166D01*
X117210440Y-80949800D01*
X117151972Y-80936140D01*
X117052905Y-80900121D01*
X116933466Y-80849185D01*
X116919357Y-80842716D01*
X116753581Y-80779266D01*
X116579844Y-80742249D01*
X116383414Y-80730590D01*
X116149561Y-80743211D01*
X115925600Y-80770070D01*
X115760336Y-80792011D01*
X115560551Y-80816720D01*
X115359113Y-80840188D01*
X115273934Y-80849571D01*
X114910135Y-80888701D01*
X114698201Y-80789448D01*
X114554331Y-80706787D01*
X114377793Y-80580158D01*
X114179444Y-80417493D01*
X114130667Y-80374742D01*
X113875747Y-80157255D01*
X113659741Y-79992233D01*
X113480228Y-79878487D01*
X113334783Y-79814827D01*
X113220984Y-79800062D01*
X113136406Y-79833003D01*
X113102344Y-79869761D01*
X113057699Y-79978617D01*
X113044862Y-80134371D01*
X113064176Y-80339647D01*
X113115983Y-80597070D01*
X113200629Y-80909263D01*
X113265764Y-81119133D01*
X113360508Y-81428649D01*
X113427793Y-81689994D01*
X113468945Y-81916308D01*
X113485293Y-82120733D01*
X113478163Y-82316407D01*
X113448882Y-82516473D01*
X113420238Y-82648269D01*
X113391495Y-82777676D01*
X113374702Y-82886619D01*
X113368927Y-82996134D01*
X113373244Y-83127258D01*
X113386720Y-83301031D01*
X113389846Y-83336214D01*
X113405668Y-83548346D01*
X113409576Y-83720657D01*
X113401109Y-83880083D01*
X113379807Y-84053560D01*
X113377277Y-84070566D01*
X113352356Y-84282193D01*
X113347942Y-84472008D01*
X113365946Y-84661389D01*
X113408282Y-84871712D01*
X113469240Y-85098201D01*
X113521852Y-85312696D01*
X113547549Y-85512633D01*
X113544709Y-85711052D01*
X113511707Y-85920991D01*
X113446920Y-86155489D01*
X113348724Y-86427587D01*
X113283611Y-86589015D01*
X113211779Y-86762830D01*
X113136371Y-86945893D01*
X113069224Y-87109449D01*
X113042596Y-87174558D01*
X112953014Y-87422826D01*
X112870930Y-87703218D01*
X112806523Y-87980180D01*
X112795866Y-88036400D01*
X112772931Y-88163400D01*
X121243518Y-88163400D01*
X121124546Y-87927152D01*
X121006421Y-87686765D01*
X120906269Y-87471247D01*
X120828998Y-87291577D01*
X120779515Y-87158732D01*
X120775964Y-87147400D01*
X120755399Y-87081287D01*
X120717790Y-86961626D01*
X120666612Y-86799419D01*
X120605339Y-86605668D01*
X120537443Y-86391377D01*
X120503313Y-86283799D01*
X120426131Y-86038763D01*
X120367387Y-85845739D01*
X120324295Y-85692416D01*
X120294071Y-85566484D01*
X120273928Y-85455632D01*
X120261082Y-85347551D01*
X120252748Y-85229928D01*
X120249274Y-85160930D01*
X120238113Y-84973396D01*
X120223904Y-84861823D01*
X117438443Y-84861823D01*
X117436506Y-84902194D01*
X117425922Y-84914847D01*
X117352483Y-84955917D01*
X117236550Y-84986106D01*
X117099038Y-85003919D01*
X116960863Y-85007860D01*
X116842941Y-84996431D01*
X116766188Y-84968137D01*
X116759684Y-84962512D01*
X116726938Y-84906918D01*
X116736793Y-84830662D01*
X116742698Y-84812827D01*
X116772385Y-84760887D01*
X114469334Y-84760887D01*
X114451649Y-84823986D01*
X114408007Y-84915244D01*
X114352528Y-85008218D01*
X114302662Y-85073066D01*
X114221501Y-85136910D01*
X114150962Y-85138356D01*
X114079867Y-85081533D01*
X114014793Y-85030295D01*
X113964551Y-85013673D01*
X113886211Y-84993481D01*
X113799144Y-84944220D01*
X113726407Y-84882391D01*
X113691054Y-84824498D01*
X113690400Y-84817433D01*
X113718459Y-84746647D01*
X113792424Y-84662001D01*
X113896981Y-84578613D01*
X113985052Y-84526599D01*
X114090680Y-84484648D01*
X114164756Y-84475230D01*
X114198564Y-84493697D01*
X114183384Y-84535401D01*
X114112358Y-84594482D01*
X114027642Y-84667940D01*
X113979355Y-84746055D01*
X113978453Y-84810591D01*
X113980438Y-84814113D01*
X114010190Y-84813445D01*
X114055960Y-84761694D01*
X114066173Y-84745680D01*
X114128561Y-84667412D01*
X114182342Y-84639224D01*
X114215784Y-84661337D01*
X114217156Y-84733972D01*
X114215334Y-84742866D01*
X114210700Y-84821058D01*
X114238382Y-84842660D01*
X114291494Y-84803539D01*
X114300000Y-84793666D01*
X114349280Y-84760090D01*
X114412114Y-84742469D01*
X114459851Y-84746352D01*
X114469334Y-84760887D01*
X116772385Y-84760887D01*
X116795516Y-84720420D01*
X116868100Y-84692568D01*
X116962217Y-84728777D01*
X116985396Y-84744852D01*
X117063319Y-84790619D01*
X117112668Y-84787161D01*
X117121018Y-84780195D01*
X117199231Y-84745486D01*
X117299196Y-84758758D01*
X117386582Y-84808196D01*
X117438443Y-84861823D01*
X120223904Y-84861823D01*
X120220109Y-84832031D01*
X120188111Y-84715271D01*
X120134965Y-84601551D01*
X120053520Y-84469308D01*
X119987194Y-84370783D01*
X119963166Y-84331327D01*
X118236554Y-84331327D01*
X118235932Y-84440879D01*
X118226235Y-84481540D01*
X118189782Y-84569313D01*
X118129644Y-84613350D01*
X118083696Y-84626383D01*
X117982442Y-84662120D01*
X117873917Y-84719193D01*
X117856605Y-84730476D01*
X117725641Y-84794297D01*
X117605599Y-84806028D01*
X117510526Y-84764601D01*
X117502819Y-84757380D01*
X117456430Y-84682636D01*
X116098233Y-84682636D01*
X116079734Y-84708611D01*
X116073652Y-84709000D01*
X116041133Y-84687357D01*
X115971784Y-84629363D01*
X115877787Y-84545417D01*
X115825748Y-84497333D01*
X115605959Y-84309290D01*
X115402468Y-84169616D01*
X115221001Y-84081657D01*
X115067284Y-84048755D01*
X115057334Y-84048600D01*
X114929552Y-84066510D01*
X114813430Y-84125775D01*
X114696437Y-84234694D01*
X114604800Y-84348288D01*
X114486267Y-84507219D01*
X114475476Y-84402512D01*
X114490292Y-84278624D01*
X114564202Y-84163736D01*
X114701119Y-84052228D01*
X114733972Y-84031333D01*
X114872011Y-83945388D01*
X114960507Y-83885746D01*
X115007960Y-83843803D01*
X115022874Y-83810955D01*
X115013750Y-83778599D01*
X115002578Y-83759511D01*
X114957804Y-83707204D01*
X114929520Y-83693000D01*
X114866205Y-83664683D01*
X114807617Y-83597595D01*
X114775493Y-83518527D01*
X114774134Y-83501484D01*
X114797807Y-83439746D01*
X114860054Y-83421469D01*
X114947718Y-83446393D01*
X115038891Y-83506733D01*
X115116115Y-83561831D01*
X115178986Y-83590320D01*
X115187986Y-83591400D01*
X115242753Y-83568380D01*
X115310572Y-83512396D01*
X115316000Y-83506733D01*
X115383456Y-83457754D01*
X115464616Y-83427344D01*
X115538026Y-83419598D01*
X115582232Y-83438614D01*
X115586933Y-83455002D01*
X115560666Y-83488853D01*
X115491713Y-83546292D01*
X115394848Y-83615044D01*
X115392200Y-83616800D01*
X115294528Y-83687754D01*
X115224643Y-83750586D01*
X115197473Y-83791846D01*
X115197467Y-83792219D01*
X115224939Y-83833456D01*
X115295477Y-83889320D01*
X115356722Y-83926755D01*
X115464303Y-83996416D01*
X115582969Y-84089908D01*
X115705050Y-84198861D01*
X115822876Y-84314906D01*
X115928778Y-84429675D01*
X116015084Y-84534799D01*
X116074126Y-84621908D01*
X116098233Y-84682636D01*
X117456430Y-84682636D01*
X117451865Y-84675282D01*
X117468379Y-84598502D01*
X117552293Y-84527183D01*
X117631002Y-84488716D01*
X117729632Y-84428606D01*
X117807048Y-84349737D01*
X117816082Y-84335533D01*
X117872810Y-84253603D01*
X117935546Y-84217838D01*
X118028959Y-84217668D01*
X118075473Y-84224386D01*
X118184314Y-84261287D01*
X118236554Y-84331327D01*
X119963166Y-84331327D01*
X119866921Y-84173286D01*
X119742303Y-83931042D01*
X119623625Y-83665438D01*
X119526165Y-83412131D01*
X119474507Y-83235892D01*
X119441679Y-83045406D01*
X119423200Y-82814520D01*
X119422973Y-82809860D01*
X119417914Y-82591033D01*
X119425898Y-82378084D01*
X119448800Y-82156701D01*
X119488495Y-81912569D01*
X119546855Y-81631376D01*
X119615284Y-81341326D01*
X119699061Y-80967641D01*
X119752798Y-80646918D01*
X119775826Y-80378687D01*
X119714745Y-80378687D01*
X119693491Y-80613355D01*
X119648922Y-80886930D01*
X119580619Y-81206880D01*
X119488160Y-81580671D01*
X119462671Y-81677933D01*
X119409380Y-81887192D01*
X119373007Y-82054558D01*
X119350178Y-82202759D01*
X119337520Y-82354526D01*
X119331660Y-82532587D01*
X119331140Y-82564272D01*
X119323234Y-82785693D01*
X119305747Y-82943297D01*
X119276610Y-83040584D01*
X119233757Y-83081053D01*
X119175118Y-83068201D01*
X119098627Y-83005530D01*
X119081062Y-82987386D01*
X118998014Y-82898471D01*
X118968743Y-82866770D01*
X118296267Y-82866770D01*
X118274805Y-82918998D01*
X118222096Y-82990271D01*
X118211600Y-83001933D01*
X118140994Y-83119243D01*
X118126934Y-83202311D01*
X118095180Y-83335444D01*
X118007354Y-83446592D01*
X117874613Y-83522041D01*
X117863937Y-83525628D01*
X117748589Y-83569762D01*
X117684893Y-83621461D01*
X117657947Y-83700875D01*
X117652800Y-83811112D01*
X117639617Y-83956467D01*
X117596591Y-84059027D01*
X117585067Y-84074774D01*
X117537807Y-84144863D01*
X117517356Y-84195028D01*
X117517333Y-84195954D01*
X117492303Y-84239730D01*
X117443374Y-84282828D01*
X117346442Y-84317330D01*
X117227072Y-84296834D01*
X117078536Y-84220162D01*
X117075882Y-84218470D01*
X116998533Y-84173881D01*
X116876661Y-84109192D01*
X116727044Y-84033103D01*
X116567882Y-83955003D01*
X116317629Y-83825671D01*
X116122402Y-83702461D01*
X115971270Y-83576088D01*
X115853300Y-83437270D01*
X115757560Y-83276721D01*
X115749045Y-83259637D01*
X115637733Y-83033039D01*
X115645050Y-82527261D01*
X115655642Y-82203569D01*
X115677152Y-81946086D01*
X115687684Y-81883926D01*
X115605424Y-81883926D01*
X115603433Y-81943118D01*
X115556955Y-82010568D01*
X115498839Y-82065866D01*
X115421315Y-82129877D01*
X115375434Y-82152050D01*
X115344576Y-82138070D01*
X115332158Y-82122866D01*
X115290297Y-82084728D01*
X115267159Y-82110777D01*
X115262618Y-82201386D01*
X115270445Y-82303519D01*
X115268861Y-82490916D01*
X115216552Y-82649247D01*
X115107042Y-82793246D01*
X115021020Y-82870907D01*
X114917858Y-82972895D01*
X114825270Y-83093125D01*
X114791211Y-83150848D01*
X114701641Y-83303866D01*
X114591191Y-83457795D01*
X114474287Y-83594942D01*
X114365355Y-83697615D01*
X114318719Y-83730300D01*
X114230787Y-83806136D01*
X114158155Y-83908140D01*
X114149669Y-83925479D01*
X114089558Y-84034692D01*
X114018409Y-84133340D01*
X114007879Y-84145189D01*
X113934015Y-84204554D01*
X113861315Y-84232682D01*
X113808145Y-84225680D01*
X113792000Y-84190954D01*
X113784894Y-84157004D01*
X113758480Y-84108487D01*
X113705112Y-84033910D01*
X113617143Y-83921783D01*
X113592480Y-83891048D01*
X113561878Y-83849211D01*
X113539698Y-83803853D01*
X113524207Y-83743223D01*
X113513670Y-83655571D01*
X113506354Y-83529145D01*
X113500525Y-83352196D01*
X113497842Y-83249676D01*
X113493540Y-83034380D01*
X113493834Y-82871124D01*
X113499855Y-82744307D01*
X113512731Y-82638323D01*
X113533594Y-82537570D01*
X113555367Y-82455323D01*
X113589871Y-82325756D01*
X113607042Y-82229138D01*
X113607831Y-82138644D01*
X113593191Y-82027451D01*
X113574259Y-81922868D01*
X113539484Y-81759929D01*
X113497020Y-81592722D01*
X113455614Y-81455483D01*
X113452638Y-81446904D01*
X113404490Y-81300356D01*
X113351088Y-81122004D01*
X113295910Y-80925370D01*
X113242435Y-80723978D01*
X113194140Y-80531351D01*
X113154503Y-80361013D01*
X113127004Y-80226486D01*
X113115119Y-80141293D01*
X113114898Y-80133782D01*
X113138871Y-80009755D01*
X113206227Y-79931693D01*
X113309293Y-79906762D01*
X113352319Y-79911903D01*
X113483733Y-79956243D01*
X113635139Y-80042595D01*
X113812334Y-80174971D01*
X114021114Y-80357380D01*
X114092120Y-80423733D01*
X114284779Y-80597321D01*
X114449772Y-80725579D01*
X114599466Y-80817815D01*
X114648189Y-80842204D01*
X114758012Y-80898235D01*
X114838743Y-80947315D01*
X114875063Y-80979979D01*
X114875734Y-80982843D01*
X114844081Y-81032663D01*
X114755935Y-81088848D01*
X114621511Y-81146034D01*
X114478135Y-81191524D01*
X114359693Y-81227824D01*
X114266324Y-81262771D01*
X114218699Y-81288487D01*
X114198128Y-81342754D01*
X114192081Y-81431766D01*
X114192984Y-81449723D01*
X114180659Y-81572895D01*
X114117389Y-81690392D01*
X114115481Y-81692979D01*
X114060207Y-81789715D01*
X114030626Y-81884582D01*
X114029067Y-81904646D01*
X114043645Y-81969657D01*
X114091699Y-81997753D01*
X114179710Y-81988858D01*
X114314156Y-81942893D01*
X114414089Y-81900060D01*
X114539822Y-81838408D01*
X114618331Y-81783312D01*
X114666935Y-81720777D01*
X114686451Y-81679927D01*
X114739815Y-81591574D01*
X114807598Y-81562608D01*
X114900134Y-81591036D01*
X114960400Y-81627133D01*
X115067425Y-81683241D01*
X115146422Y-81682993D01*
X115211301Y-81623219D01*
X115247011Y-81561862D01*
X115312595Y-81466781D01*
X115386996Y-81407971D01*
X115455140Y-81394878D01*
X115486002Y-81412102D01*
X115507323Y-81459285D01*
X115532821Y-81550253D01*
X115549418Y-81627133D01*
X115573158Y-81744770D01*
X115595262Y-81844117D01*
X115605424Y-81883926D01*
X115687684Y-81883926D01*
X115709673Y-81754161D01*
X115753300Y-81627139D01*
X115779905Y-81587083D01*
X115846268Y-81547043D01*
X115905294Y-81569592D01*
X115936026Y-81629476D01*
X115979591Y-81683498D01*
X116067479Y-81688684D01*
X116196992Y-81644951D01*
X116212057Y-81637918D01*
X116292028Y-81603590D01*
X116342455Y-81603194D01*
X116394337Y-81640292D01*
X116417185Y-81661486D01*
X116486200Y-81711551D01*
X116571604Y-81736471D01*
X116694434Y-81743834D01*
X116885978Y-81745666D01*
X117000030Y-81940514D01*
X117131312Y-82113481D01*
X117285734Y-82222953D01*
X117463857Y-82269296D01*
X117507518Y-82271062D01*
X117648294Y-82278706D01*
X117738403Y-82306335D01*
X117793997Y-82362843D01*
X117828507Y-82447850D01*
X117865278Y-82538372D01*
X117922425Y-82597676D01*
X118022613Y-82649220D01*
X118023431Y-82649571D01*
X118173522Y-82725929D01*
X118266071Y-82800485D01*
X118296267Y-82866770D01*
X118968743Y-82866770D01*
X118905476Y-82798254D01*
X118884835Y-82775719D01*
X118791705Y-82682646D01*
X118693023Y-82596567D01*
X118671666Y-82580046D01*
X118604419Y-82523057D01*
X118578245Y-82468391D01*
X118581542Y-82385778D01*
X118585795Y-82355992D01*
X118582216Y-82163626D01*
X118549319Y-82027723D01*
X118503183Y-81894428D01*
X118455987Y-81804777D01*
X118390860Y-81736553D01*
X118290928Y-81667539D01*
X118262400Y-81649924D01*
X118148402Y-81574457D01*
X118018595Y-81480307D01*
X117940667Y-81419595D01*
X117814809Y-81328561D01*
X117674232Y-81242649D01*
X117593533Y-81201231D01*
X117497271Y-81149778D01*
X117432705Y-81100970D01*
X117415733Y-81073416D01*
X117441391Y-81033696D01*
X117510042Y-80966751D01*
X117609206Y-80884218D01*
X117661267Y-80844492D01*
X118052033Y-80540336D01*
X118379369Y-80255455D01*
X118642770Y-79990301D01*
X118717026Y-79905486D01*
X118900974Y-79702175D01*
X119060134Y-79559647D01*
X119197784Y-79477040D01*
X119317201Y-79453491D01*
X119421662Y-79488138D01*
X119514445Y-79580118D01*
X119575010Y-79679720D01*
X119642817Y-79833441D01*
X119688988Y-79996198D01*
X119713104Y-80175457D01*
X119714745Y-80378687D01*
X119775826Y-80378687D01*
X119776453Y-80371389D01*
X119769982Y-80133288D01*
X119733343Y-79924846D01*
X119666493Y-79738298D01*
X119605874Y-79623516D01*
X119522288Y-79498613D01*
X119440379Y-79414673D01*
X119353724Y-79373264D01*
X119255903Y-79375953D01*
X119255903Y-79375953D01*
G37*
X119255903Y-79375953D02*
X119140494Y-79424309D01*
X119001076Y-79519899D01*
X118831229Y-79664292D01*
X118624529Y-79859054D01*
X118618919Y-79864500D01*
X118379474Y-80090908D01*
X118145124Y-80300935D01*
X117922106Y-80489776D01*
X117716656Y-80652624D01*
X117535010Y-80784676D01*
X117383404Y-80881125D01*
X117268075Y-80937166D01*
X117210440Y-80949800D01*
X117151972Y-80936140D01*
X117052905Y-80900121D01*
X116933466Y-80849185D01*
X116919357Y-80842716D01*
X116753581Y-80779266D01*
X116579844Y-80742249D01*
X116383414Y-80730590D01*
X116149561Y-80743211D01*
X115925600Y-80770070D01*
X115760336Y-80792011D01*
X115560551Y-80816720D01*
X115359113Y-80840188D01*
X115273934Y-80849571D01*
X114910135Y-80888701D01*
X114698201Y-80789448D01*
X114554331Y-80706787D01*
X114377793Y-80580158D01*
X114179444Y-80417493D01*
X114130667Y-80374742D01*
X113875747Y-80157255D01*
X113659741Y-79992233D01*
X113480228Y-79878487D01*
X113334783Y-79814827D01*
X113220984Y-79800062D01*
X113136406Y-79833003D01*
X113102344Y-79869761D01*
X113057699Y-79978617D01*
X113044862Y-80134371D01*
X113064176Y-80339647D01*
X113115983Y-80597070D01*
X113200629Y-80909263D01*
X113265764Y-81119133D01*
X113360508Y-81428649D01*
X113427793Y-81689994D01*
X113468945Y-81916308D01*
X113485293Y-82120733D01*
X113478163Y-82316407D01*
X113448882Y-82516473D01*
X113420238Y-82648269D01*
X113391495Y-82777676D01*
X113374702Y-82886619D01*
X113368927Y-82996134D01*
X113373244Y-83127258D01*
X113386720Y-83301031D01*
X113389846Y-83336214D01*
X113405668Y-83548346D01*
X113409576Y-83720657D01*
X113401109Y-83880083D01*
X113379807Y-84053560D01*
X113377277Y-84070566D01*
X113352356Y-84282193D01*
X113347942Y-84472008D01*
X113365946Y-84661389D01*
X113408282Y-84871712D01*
X113469240Y-85098201D01*
X113521852Y-85312696D01*
X113547549Y-85512633D01*
X113544709Y-85711052D01*
X113511707Y-85920991D01*
X113446920Y-86155489D01*
X113348724Y-86427587D01*
X113283611Y-86589015D01*
X113211779Y-86762830D01*
X113136371Y-86945893D01*
X113069224Y-87109449D01*
X113042596Y-87174558D01*
X112953014Y-87422826D01*
X112870930Y-87703218D01*
X112806523Y-87980180D01*
X112795866Y-88036400D01*
X112772931Y-88163400D01*
X121243518Y-88163400D01*
X121124546Y-87927152D01*
X121006421Y-87686765D01*
X120906269Y-87471247D01*
X120828998Y-87291577D01*
X120779515Y-87158732D01*
X120775964Y-87147400D01*
X120755399Y-87081287D01*
X120717790Y-86961626D01*
X120666612Y-86799419D01*
X120605339Y-86605668D01*
X120537443Y-86391377D01*
X120503313Y-86283799D01*
X120426131Y-86038763D01*
X120367387Y-85845739D01*
X120324295Y-85692416D01*
X120294071Y-85566484D01*
X120273928Y-85455632D01*
X120261082Y-85347551D01*
X120252748Y-85229928D01*
X120249274Y-85160930D01*
X120238113Y-84973396D01*
X120223904Y-84861823D01*
X117438443Y-84861823D01*
X117436506Y-84902194D01*
X117425922Y-84914847D01*
X117352483Y-84955917D01*
X117236550Y-84986106D01*
X117099038Y-85003919D01*
X116960863Y-85007860D01*
X116842941Y-84996431D01*
X116766188Y-84968137D01*
X116759684Y-84962512D01*
X116726938Y-84906918D01*
X116736793Y-84830662D01*
X116742698Y-84812827D01*
X116772385Y-84760887D01*
X114469334Y-84760887D01*
X114451649Y-84823986D01*
X114408007Y-84915244D01*
X114352528Y-85008218D01*
X114302662Y-85073066D01*
X114221501Y-85136910D01*
X114150962Y-85138356D01*
X114079867Y-85081533D01*
X114014793Y-85030295D01*
X113964551Y-85013673D01*
X113886211Y-84993481D01*
X113799144Y-84944220D01*
X113726407Y-84882391D01*
X113691054Y-84824498D01*
X113690400Y-84817433D01*
X113718459Y-84746647D01*
X113792424Y-84662001D01*
X113896981Y-84578613D01*
X113985052Y-84526599D01*
X114090680Y-84484648D01*
X114164756Y-84475230D01*
X114198564Y-84493697D01*
X114183384Y-84535401D01*
X114112358Y-84594482D01*
X114027642Y-84667940D01*
X113979355Y-84746055D01*
X113978453Y-84810591D01*
X113980438Y-84814113D01*
X114010190Y-84813445D01*
X114055960Y-84761694D01*
X114066173Y-84745680D01*
X114128561Y-84667412D01*
X114182342Y-84639224D01*
X114215784Y-84661337D01*
X114217156Y-84733972D01*
X114215334Y-84742866D01*
X114210700Y-84821058D01*
X114238382Y-84842660D01*
X114291494Y-84803539D01*
X114300000Y-84793666D01*
X114349280Y-84760090D01*
X114412114Y-84742469D01*
X114459851Y-84746352D01*
X114469334Y-84760887D01*
X116772385Y-84760887D01*
X116795516Y-84720420D01*
X116868100Y-84692568D01*
X116962217Y-84728777D01*
X116985396Y-84744852D01*
X117063319Y-84790619D01*
X117112668Y-84787161D01*
X117121018Y-84780195D01*
X117199231Y-84745486D01*
X117299196Y-84758758D01*
X117386582Y-84808196D01*
X117438443Y-84861823D01*
X120223904Y-84861823D01*
X120220109Y-84832031D01*
X120188111Y-84715271D01*
X120134965Y-84601551D01*
X120053520Y-84469308D01*
X119987194Y-84370783D01*
X119963166Y-84331327D01*
X118236554Y-84331327D01*
X118235932Y-84440879D01*
X118226235Y-84481540D01*
X118189782Y-84569313D01*
X118129644Y-84613350D01*
X118083696Y-84626383D01*
X117982442Y-84662120D01*
X117873917Y-84719193D01*
X117856605Y-84730476D01*
X117725641Y-84794297D01*
X117605599Y-84806028D01*
X117510526Y-84764601D01*
X117502819Y-84757380D01*
X117456430Y-84682636D01*
X116098233Y-84682636D01*
X116079734Y-84708611D01*
X116073652Y-84709000D01*
X116041133Y-84687357D01*
X115971784Y-84629363D01*
X115877787Y-84545417D01*
X115825748Y-84497333D01*
X115605959Y-84309290D01*
X115402468Y-84169616D01*
X115221001Y-84081657D01*
X115067284Y-84048755D01*
X115057334Y-84048600D01*
X114929552Y-84066510D01*
X114813430Y-84125775D01*
X114696437Y-84234694D01*
X114604800Y-84348288D01*
X114486267Y-84507219D01*
X114475476Y-84402512D01*
X114490292Y-84278624D01*
X114564202Y-84163736D01*
X114701119Y-84052228D01*
X114733972Y-84031333D01*
X114872011Y-83945388D01*
X114960507Y-83885746D01*
X115007960Y-83843803D01*
X115022874Y-83810955D01*
X115013750Y-83778599D01*
X115002578Y-83759511D01*
X114957804Y-83707204D01*
X114929520Y-83693000D01*
X114866205Y-83664683D01*
X114807617Y-83597595D01*
X114775493Y-83518527D01*
X114774134Y-83501484D01*
X114797807Y-83439746D01*
X114860054Y-83421469D01*
X114947718Y-83446393D01*
X115038891Y-83506733D01*
X115116115Y-83561831D01*
X115178986Y-83590320D01*
X115187986Y-83591400D01*
X115242753Y-83568380D01*
X115310572Y-83512396D01*
X115316000Y-83506733D01*
X115383456Y-83457754D01*
X115464616Y-83427344D01*
X115538026Y-83419598D01*
X115582232Y-83438614D01*
X115586933Y-83455002D01*
X115560666Y-83488853D01*
X115491713Y-83546292D01*
X115394848Y-83615044D01*
X115392200Y-83616800D01*
X115294528Y-83687754D01*
X115224643Y-83750586D01*
X115197473Y-83791846D01*
X115197467Y-83792219D01*
X115224939Y-83833456D01*
X115295477Y-83889320D01*
X115356722Y-83926755D01*
X115464303Y-83996416D01*
X115582969Y-84089908D01*
X115705050Y-84198861D01*
X115822876Y-84314906D01*
X115928778Y-84429675D01*
X116015084Y-84534799D01*
X116074126Y-84621908D01*
X116098233Y-84682636D01*
X117456430Y-84682636D01*
X117451865Y-84675282D01*
X117468379Y-84598502D01*
X117552293Y-84527183D01*
X117631002Y-84488716D01*
X117729632Y-84428606D01*
X117807048Y-84349737D01*
X117816082Y-84335533D01*
X117872810Y-84253603D01*
X117935546Y-84217838D01*
X118028959Y-84217668D01*
X118075473Y-84224386D01*
X118184314Y-84261287D01*
X118236554Y-84331327D01*
X119963166Y-84331327D01*
X119866921Y-84173286D01*
X119742303Y-83931042D01*
X119623625Y-83665438D01*
X119526165Y-83412131D01*
X119474507Y-83235892D01*
X119441679Y-83045406D01*
X119423200Y-82814520D01*
X119422973Y-82809860D01*
X119417914Y-82591033D01*
X119425898Y-82378084D01*
X119448800Y-82156701D01*
X119488495Y-81912569D01*
X119546855Y-81631376D01*
X119615284Y-81341326D01*
X119699061Y-80967641D01*
X119752798Y-80646918D01*
X119775826Y-80378687D01*
X119714745Y-80378687D01*
X119693491Y-80613355D01*
X119648922Y-80886930D01*
X119580619Y-81206880D01*
X119488160Y-81580671D01*
X119462671Y-81677933D01*
X119409380Y-81887192D01*
X119373007Y-82054558D01*
X119350178Y-82202759D01*
X119337520Y-82354526D01*
X119331660Y-82532587D01*
X119331140Y-82564272D01*
X119323234Y-82785693D01*
X119305747Y-82943297D01*
X119276610Y-83040584D01*
X119233757Y-83081053D01*
X119175118Y-83068201D01*
X119098627Y-83005530D01*
X119081062Y-82987386D01*
X118998014Y-82898471D01*
X118968743Y-82866770D01*
X118296267Y-82866770D01*
X118274805Y-82918998D01*
X118222096Y-82990271D01*
X118211600Y-83001933D01*
X118140994Y-83119243D01*
X118126934Y-83202311D01*
X118095180Y-83335444D01*
X118007354Y-83446592D01*
X117874613Y-83522041D01*
X117863937Y-83525628D01*
X117748589Y-83569762D01*
X117684893Y-83621461D01*
X117657947Y-83700875D01*
X117652800Y-83811112D01*
X117639617Y-83956467D01*
X117596591Y-84059027D01*
X117585067Y-84074774D01*
X117537807Y-84144863D01*
X117517356Y-84195028D01*
X117517333Y-84195954D01*
X117492303Y-84239730D01*
X117443374Y-84282828D01*
X117346442Y-84317330D01*
X117227072Y-84296834D01*
X117078536Y-84220162D01*
X117075882Y-84218470D01*
X116998533Y-84173881D01*
X116876661Y-84109192D01*
X116727044Y-84033103D01*
X116567882Y-83955003D01*
X116317629Y-83825671D01*
X116122402Y-83702461D01*
X115971270Y-83576088D01*
X115853300Y-83437270D01*
X115757560Y-83276721D01*
X115749045Y-83259637D01*
X115637733Y-83033039D01*
X115645050Y-82527261D01*
X115655642Y-82203569D01*
X115677152Y-81946086D01*
X115687684Y-81883926D01*
X115605424Y-81883926D01*
X115603433Y-81943118D01*
X115556955Y-82010568D01*
X115498839Y-82065866D01*
X115421315Y-82129877D01*
X115375434Y-82152050D01*
X115344576Y-82138070D01*
X115332158Y-82122866D01*
X115290297Y-82084728D01*
X115267159Y-82110777D01*
X115262618Y-82201386D01*
X115270445Y-82303519D01*
X115268861Y-82490916D01*
X115216552Y-82649247D01*
X115107042Y-82793246D01*
X115021020Y-82870907D01*
X114917858Y-82972895D01*
X114825270Y-83093125D01*
X114791211Y-83150848D01*
X114701641Y-83303866D01*
X114591191Y-83457795D01*
X114474287Y-83594942D01*
X114365355Y-83697615D01*
X114318719Y-83730300D01*
X114230787Y-83806136D01*
X114158155Y-83908140D01*
X114149669Y-83925479D01*
X114089558Y-84034692D01*
X114018409Y-84133340D01*
X114007879Y-84145189D01*
X113934015Y-84204554D01*
X113861315Y-84232682D01*
X113808145Y-84225680D01*
X113792000Y-84190954D01*
X113784894Y-84157004D01*
X113758480Y-84108487D01*
X113705112Y-84033910D01*
X113617143Y-83921783D01*
X113592480Y-83891048D01*
X113561878Y-83849211D01*
X113539698Y-83803853D01*
X113524207Y-83743223D01*
X113513670Y-83655571D01*
X113506354Y-83529145D01*
X113500525Y-83352196D01*
X113497842Y-83249676D01*
X113493540Y-83034380D01*
X113493834Y-82871124D01*
X113499855Y-82744307D01*
X113512731Y-82638323D01*
X113533594Y-82537570D01*
X113555367Y-82455323D01*
X113589871Y-82325756D01*
X113607042Y-82229138D01*
X113607831Y-82138644D01*
X113593191Y-82027451D01*
X113574259Y-81922868D01*
X113539484Y-81759929D01*
X113497020Y-81592722D01*
X113455614Y-81455483D01*
X113452638Y-81446904D01*
X113404490Y-81300356D01*
X113351088Y-81122004D01*
X113295910Y-80925370D01*
X113242435Y-80723978D01*
X113194140Y-80531351D01*
X113154503Y-80361013D01*
X113127004Y-80226486D01*
X113115119Y-80141293D01*
X113114898Y-80133782D01*
X113138871Y-80009755D01*
X113206227Y-79931693D01*
X113309293Y-79906762D01*
X113352319Y-79911903D01*
X113483733Y-79956243D01*
X113635139Y-80042595D01*
X113812334Y-80174971D01*
X114021114Y-80357380D01*
X114092120Y-80423733D01*
X114284779Y-80597321D01*
X114449772Y-80725579D01*
X114599466Y-80817815D01*
X114648189Y-80842204D01*
X114758012Y-80898235D01*
X114838743Y-80947315D01*
X114875063Y-80979979D01*
X114875734Y-80982843D01*
X114844081Y-81032663D01*
X114755935Y-81088848D01*
X114621511Y-81146034D01*
X114478135Y-81191524D01*
X114359693Y-81227824D01*
X114266324Y-81262771D01*
X114218699Y-81288487D01*
X114198128Y-81342754D01*
X114192081Y-81431766D01*
X114192984Y-81449723D01*
X114180659Y-81572895D01*
X114117389Y-81690392D01*
X114115481Y-81692979D01*
X114060207Y-81789715D01*
X114030626Y-81884582D01*
X114029067Y-81904646D01*
X114043645Y-81969657D01*
X114091699Y-81997753D01*
X114179710Y-81988858D01*
X114314156Y-81942893D01*
X114414089Y-81900060D01*
X114539822Y-81838408D01*
X114618331Y-81783312D01*
X114666935Y-81720777D01*
X114686451Y-81679927D01*
X114739815Y-81591574D01*
X114807598Y-81562608D01*
X114900134Y-81591036D01*
X114960400Y-81627133D01*
X115067425Y-81683241D01*
X115146422Y-81682993D01*
X115211301Y-81623219D01*
X115247011Y-81561862D01*
X115312595Y-81466781D01*
X115386996Y-81407971D01*
X115455140Y-81394878D01*
X115486002Y-81412102D01*
X115507323Y-81459285D01*
X115532821Y-81550253D01*
X115549418Y-81627133D01*
X115573158Y-81744770D01*
X115595262Y-81844117D01*
X115605424Y-81883926D01*
X115687684Y-81883926D01*
X115709673Y-81754161D01*
X115753300Y-81627139D01*
X115779905Y-81587083D01*
X115846268Y-81547043D01*
X115905294Y-81569592D01*
X115936026Y-81629476D01*
X115979591Y-81683498D01*
X116067479Y-81688684D01*
X116196992Y-81644951D01*
X116212057Y-81637918D01*
X116292028Y-81603590D01*
X116342455Y-81603194D01*
X116394337Y-81640292D01*
X116417185Y-81661486D01*
X116486200Y-81711551D01*
X116571604Y-81736471D01*
X116694434Y-81743834D01*
X116885978Y-81745666D01*
X117000030Y-81940514D01*
X117131312Y-82113481D01*
X117285734Y-82222953D01*
X117463857Y-82269296D01*
X117507518Y-82271062D01*
X117648294Y-82278706D01*
X117738403Y-82306335D01*
X117793997Y-82362843D01*
X117828507Y-82447850D01*
X117865278Y-82538372D01*
X117922425Y-82597676D01*
X118022613Y-82649220D01*
X118023431Y-82649571D01*
X118173522Y-82725929D01*
X118266071Y-82800485D01*
X118296267Y-82866770D01*
X118968743Y-82866770D01*
X118905476Y-82798254D01*
X118884835Y-82775719D01*
X118791705Y-82682646D01*
X118693023Y-82596567D01*
X118671666Y-82580046D01*
X118604419Y-82523057D01*
X118578245Y-82468391D01*
X118581542Y-82385778D01*
X118585795Y-82355992D01*
X118582216Y-82163626D01*
X118549319Y-82027723D01*
X118503183Y-81894428D01*
X118455987Y-81804777D01*
X118390860Y-81736553D01*
X118290928Y-81667539D01*
X118262400Y-81649924D01*
X118148402Y-81574457D01*
X118018595Y-81480307D01*
X117940667Y-81419595D01*
X117814809Y-81328561D01*
X117674232Y-81242649D01*
X117593533Y-81201231D01*
X117497271Y-81149778D01*
X117432705Y-81100970D01*
X117415733Y-81073416D01*
X117441391Y-81033696D01*
X117510042Y-80966751D01*
X117609206Y-80884218D01*
X117661267Y-80844492D01*
X118052033Y-80540336D01*
X118379369Y-80255455D01*
X118642770Y-79990301D01*
X118717026Y-79905486D01*
X118900974Y-79702175D01*
X119060134Y-79559647D01*
X119197784Y-79477040D01*
X119317201Y-79453491D01*
X119421662Y-79488138D01*
X119514445Y-79580118D01*
X119575010Y-79679720D01*
X119642817Y-79833441D01*
X119688988Y-79996198D01*
X119713104Y-80175457D01*
X119714745Y-80378687D01*
X119775826Y-80378687D01*
X119776453Y-80371389D01*
X119769982Y-80133288D01*
X119733343Y-79924846D01*
X119666493Y-79738298D01*
X119605874Y-79623516D01*
X119522288Y-79498613D01*
X119440379Y-79414673D01*
X119353724Y-79373264D01*
X119255903Y-79375953D01*
D10*
X128845095Y-117649380D02*
X128226047Y-117649380D01*
X128559380Y-118030333D01*
X128416523Y-118030333D01*
X128321285Y-118077952D01*
X128273666Y-118125571D01*
X128226047Y-118220809D01*
X128226047Y-118458904D01*
X128273666Y-118554142D01*
X128321285Y-118601761D01*
X128416523Y-118649380D01*
X128702238Y-118649380D01*
X128797476Y-118601761D01*
X128845095Y-118554142D01*
X127940333Y-117649380D02*
X127607000Y-118649380D01*
X127273666Y-117649380D01*
X127035571Y-117649380D02*
X126416523Y-117649380D01*
X126749857Y-118030333D01*
X126607000Y-118030333D01*
X126511761Y-118077952D01*
X126464142Y-118125571D01*
X126416523Y-118220809D01*
X126416523Y-118458904D01*
X126464142Y-118554142D01*
X126511761Y-118601761D01*
X126607000Y-118649380D01*
X126892714Y-118649380D01*
X126987952Y-118601761D01*
X127035571Y-118554142D01*
X127924523Y-115109380D02*
X128115000Y-115109380D01*
X128210238Y-115157000D01*
X128257857Y-115204619D01*
X128353095Y-115347476D01*
X128400714Y-115537952D01*
X128400714Y-115918904D01*
X128353095Y-116014142D01*
X128305476Y-116061761D01*
X128210238Y-116109380D01*
X128019761Y-116109380D01*
X127924523Y-116061761D01*
X127876904Y-116014142D01*
X127829285Y-115918904D01*
X127829285Y-115680809D01*
X127876904Y-115585571D01*
X127924523Y-115537952D01*
X128019761Y-115490333D01*
X128210238Y-115490333D01*
X128305476Y-115537952D01*
X128353095Y-115585571D01*
X128400714Y-115680809D01*
X128448333Y-112569380D02*
X127781666Y-112569380D01*
X128210238Y-113569380D01*
X128210238Y-110457952D02*
X128305476Y-110410333D01*
X128353095Y-110362714D01*
X128400714Y-110267476D01*
X128400714Y-110219857D01*
X128353095Y-110124619D01*
X128305476Y-110077000D01*
X128210238Y-110029380D01*
X128019761Y-110029380D01*
X127924523Y-110077000D01*
X127876904Y-110124619D01*
X127829285Y-110219857D01*
X127829285Y-110267476D01*
X127876904Y-110362714D01*
X127924523Y-110410333D01*
X128019761Y-110457952D01*
X128210238Y-110457952D01*
X128305476Y-110505571D01*
X128353095Y-110553190D01*
X128400714Y-110648428D01*
X128400714Y-110838904D01*
X128353095Y-110934142D01*
X128305476Y-110981761D01*
X128210238Y-111029380D01*
X128019761Y-111029380D01*
X127924523Y-110981761D01*
X127876904Y-110934142D01*
X127829285Y-110838904D01*
X127829285Y-110648428D01*
X127876904Y-110553190D01*
X127924523Y-110505571D01*
X128019761Y-110457952D01*
X128162619Y-107489380D02*
X128067380Y-107489380D01*
X127972142Y-107537000D01*
X127924523Y-107584619D01*
X127876904Y-107679857D01*
X127829285Y-107870333D01*
X127829285Y-108108428D01*
X127876904Y-108298904D01*
X127924523Y-108394142D01*
X127972142Y-108441761D01*
X128067380Y-108489380D01*
X128162619Y-108489380D01*
X128257857Y-108441761D01*
X128305476Y-108394142D01*
X128353095Y-108298904D01*
X128400714Y-108108428D01*
X128400714Y-107870333D01*
X128353095Y-107679857D01*
X128305476Y-107584619D01*
X128257857Y-107537000D01*
X128162619Y-107489380D01*
X128305476Y-105949380D02*
X128876904Y-105949380D01*
X128591190Y-105949380D02*
X128591190Y-104949380D01*
X128686428Y-105092238D01*
X128781666Y-105187476D01*
X128876904Y-105235095D01*
X127400714Y-104949380D02*
X127876904Y-104949380D01*
X127924523Y-105425571D01*
X127876904Y-105377952D01*
X127781666Y-105330333D01*
X127543571Y-105330333D01*
X127448333Y-105377952D01*
X127400714Y-105425571D01*
X127353095Y-105520809D01*
X127353095Y-105758904D01*
X127400714Y-105854142D01*
X127448333Y-105901761D01*
X127543571Y-105949380D01*
X127781666Y-105949380D01*
X127876904Y-105901761D01*
X127924523Y-105854142D01*
X128400714Y-102504619D02*
X128353095Y-102457000D01*
X128257857Y-102409380D01*
X128019761Y-102409380D01*
X127924523Y-102457000D01*
X127876904Y-102504619D01*
X127829285Y-102599857D01*
X127829285Y-102695095D01*
X127876904Y-102837952D01*
X128448333Y-103409380D01*
X127829285Y-103409380D01*
X127924523Y-100202714D02*
X127924523Y-100869380D01*
X128162619Y-99821761D02*
X128400714Y-100536047D01*
X127781666Y-100536047D01*
X128305476Y-98329380D02*
X128876904Y-98329380D01*
X128591190Y-98329380D02*
X128591190Y-97329380D01*
X128686428Y-97472238D01*
X128781666Y-97567476D01*
X128876904Y-97615095D01*
X127448333Y-97329380D02*
X127638809Y-97329380D01*
X127734047Y-97377000D01*
X127781666Y-97424619D01*
X127876904Y-97567476D01*
X127924523Y-97757952D01*
X127924523Y-98138904D01*
X127876904Y-98234142D01*
X127829285Y-98281761D01*
X127734047Y-98329380D01*
X127543571Y-98329380D01*
X127448333Y-98281761D01*
X127400714Y-98234142D01*
X127353095Y-98138904D01*
X127353095Y-97900809D01*
X127400714Y-97805571D01*
X127448333Y-97757952D01*
X127543571Y-97710333D01*
X127734047Y-97710333D01*
X127829285Y-97757952D01*
X127876904Y-97805571D01*
X127924523Y-97900809D01*
X128305476Y-95789380D02*
X128876904Y-95789380D01*
X128591190Y-95789380D02*
X128591190Y-94789380D01*
X128686428Y-94932238D01*
X128781666Y-95027476D01*
X128876904Y-95075095D01*
X127972142Y-94789380D02*
X127305476Y-94789380D01*
X127734047Y-95789380D01*
X127876904Y-92249380D02*
X128353095Y-92249380D01*
X128400714Y-92725571D01*
X128353095Y-92677952D01*
X128257857Y-92630333D01*
X128019761Y-92630333D01*
X127924523Y-92677952D01*
X127876904Y-92725571D01*
X127829285Y-92820809D01*
X127829285Y-93058904D01*
X127876904Y-93154142D01*
X127924523Y-93201761D01*
X128019761Y-93249380D01*
X128257857Y-93249380D01*
X128353095Y-93201761D01*
X128400714Y-93154142D01*
X128305476Y-90709380D02*
X128876904Y-90709380D01*
X128591190Y-90709380D02*
X128591190Y-89709380D01*
X128686428Y-89852238D01*
X128781666Y-89947476D01*
X128876904Y-89995095D01*
X127734047Y-90137952D02*
X127829285Y-90090333D01*
X127876904Y-90042714D01*
X127924523Y-89947476D01*
X127924523Y-89899857D01*
X127876904Y-89804619D01*
X127829285Y-89757000D01*
X127734047Y-89709380D01*
X127543571Y-89709380D01*
X127448333Y-89757000D01*
X127400714Y-89804619D01*
X127353095Y-89899857D01*
X127353095Y-89947476D01*
X127400714Y-90042714D01*
X127448333Y-90090333D01*
X127543571Y-90137952D01*
X127734047Y-90137952D01*
X127829285Y-90185571D01*
X127876904Y-90233190D01*
X127924523Y-90328428D01*
X127924523Y-90518904D01*
X127876904Y-90614142D01*
X127829285Y-90661761D01*
X127734047Y-90709380D01*
X127543571Y-90709380D01*
X127448333Y-90661761D01*
X127400714Y-90614142D01*
X127353095Y-90518904D01*
X127353095Y-90328428D01*
X127400714Y-90233190D01*
X127448333Y-90185571D01*
X127543571Y-90137952D01*
X128305476Y-88169380D02*
X128876904Y-88169380D01*
X128591190Y-88169380D02*
X128591190Y-87169380D01*
X128686428Y-87312238D01*
X128781666Y-87407476D01*
X128876904Y-87455095D01*
X127829285Y-88169380D02*
X127638809Y-88169380D01*
X127543571Y-88121761D01*
X127495952Y-88074142D01*
X127400714Y-87931285D01*
X127353095Y-87740809D01*
X127353095Y-87359857D01*
X127400714Y-87264619D01*
X127448333Y-87217000D01*
X127543571Y-87169380D01*
X127734047Y-87169380D01*
X127829285Y-87217000D01*
X127876904Y-87264619D01*
X127924523Y-87359857D01*
X127924523Y-87597952D01*
X127876904Y-87693190D01*
X127829285Y-87740809D01*
X127734047Y-87788428D01*
X127543571Y-87788428D01*
X127448333Y-87740809D01*
X127400714Y-87693190D01*
X127353095Y-87597952D01*
X128876904Y-84724619D02*
X128829285Y-84677000D01*
X128734047Y-84629380D01*
X128495952Y-84629380D01*
X128400714Y-84677000D01*
X128353095Y-84724619D01*
X128305476Y-84819857D01*
X128305476Y-84915095D01*
X128353095Y-85057952D01*
X128924523Y-85629380D01*
X128305476Y-85629380D01*
X127353095Y-85629380D02*
X127924523Y-85629380D01*
X127638809Y-85629380D02*
X127638809Y-84629380D01*
X127734047Y-84772238D01*
X127829285Y-84867476D01*
X127924523Y-84915095D01*
X128448333Y-82089380D02*
X127829285Y-82089380D01*
X128162619Y-82470333D01*
X128019761Y-82470333D01*
X127924523Y-82517952D01*
X127876904Y-82565571D01*
X127829285Y-82660809D01*
X127829285Y-82898904D01*
X127876904Y-82994142D01*
X127924523Y-83041761D01*
X128019761Y-83089380D01*
X128305476Y-83089380D01*
X128400714Y-83041761D01*
X128448333Y-82994142D01*
X127829285Y-80549380D02*
X128400714Y-80549380D01*
X128115000Y-80549380D02*
X128115000Y-79549380D01*
X128210238Y-79692238D01*
X128305476Y-79787476D01*
X128400714Y-79835095D01*
X128876904Y-77104619D02*
X128829285Y-77057000D01*
X128734047Y-77009380D01*
X128495952Y-77009380D01*
X128400714Y-77057000D01*
X128353095Y-77104619D01*
X128305476Y-77199857D01*
X128305476Y-77295095D01*
X128353095Y-77437952D01*
X128924523Y-78009380D01*
X128305476Y-78009380D01*
X127924523Y-77104619D02*
X127876904Y-77057000D01*
X127781666Y-77009380D01*
X127543571Y-77009380D01*
X127448333Y-77057000D01*
X127400714Y-77104619D01*
X127353095Y-77199857D01*
X127353095Y-77295095D01*
X127400714Y-77437952D01*
X127972142Y-78009380D01*
X127353095Y-78009380D01*
X128876904Y-74564619D02*
X128829285Y-74517000D01*
X128734047Y-74469380D01*
X128495952Y-74469380D01*
X128400714Y-74517000D01*
X128353095Y-74564619D01*
X128305476Y-74659857D01*
X128305476Y-74755095D01*
X128353095Y-74897952D01*
X128924523Y-75469380D01*
X128305476Y-75469380D01*
X127972142Y-74469380D02*
X127353095Y-74469380D01*
X127686428Y-74850333D01*
X127543571Y-74850333D01*
X127448333Y-74897952D01*
X127400714Y-74945571D01*
X127353095Y-75040809D01*
X127353095Y-75278904D01*
X127400714Y-75374142D01*
X127448333Y-75421761D01*
X127543571Y-75469380D01*
X127829285Y-75469380D01*
X127924523Y-75421761D01*
X127972142Y-75374142D01*
X108382238Y-117649380D02*
X108048904Y-118649380D01*
X107715571Y-117649380D01*
X107382238Y-118649380D02*
X107382238Y-117649380D01*
X106906047Y-118649380D02*
X106906047Y-117649380D01*
X106334619Y-118649380D01*
X106334619Y-117649380D01*
X108048904Y-115157000D02*
X108144142Y-115109380D01*
X108287000Y-115109380D01*
X108429857Y-115157000D01*
X108525095Y-115252238D01*
X108572714Y-115347476D01*
X108620333Y-115537952D01*
X108620333Y-115680809D01*
X108572714Y-115871285D01*
X108525095Y-115966523D01*
X108429857Y-116061761D01*
X108287000Y-116109380D01*
X108191761Y-116109380D01*
X108048904Y-116061761D01*
X108001285Y-116014142D01*
X108001285Y-115680809D01*
X108191761Y-115680809D01*
X107572714Y-116109380D02*
X107572714Y-115109380D01*
X107001285Y-116109380D01*
X107001285Y-115109380D01*
X106525095Y-116109380D02*
X106525095Y-115109380D01*
X106287000Y-115109380D01*
X106144142Y-115157000D01*
X106048904Y-115252238D01*
X106001285Y-115347476D01*
X105953666Y-115537952D01*
X105953666Y-115680809D01*
X106001285Y-115871285D01*
X106048904Y-115966523D01*
X106144142Y-116061761D01*
X106287000Y-116109380D01*
X106525095Y-116109380D01*
X111073666Y-111029380D02*
X111645095Y-111029380D01*
X111359380Y-111029380D02*
X111359380Y-110029380D01*
X111454619Y-110172238D01*
X111549857Y-110267476D01*
X111645095Y-110315095D01*
X110454619Y-110029380D02*
X110359380Y-110029380D01*
X110264142Y-110077000D01*
X110216523Y-110124619D01*
X110168904Y-110219857D01*
X110121285Y-110410333D01*
X110121285Y-110648428D01*
X110168904Y-110838904D01*
X110216523Y-110934142D01*
X110264142Y-110981761D01*
X110359380Y-111029380D01*
X110454619Y-111029380D01*
X110549857Y-110981761D01*
X110597476Y-110934142D01*
X110645095Y-110838904D01*
X110692714Y-110648428D01*
X110692714Y-110410333D01*
X110645095Y-110219857D01*
X110597476Y-110124619D01*
X110549857Y-110077000D01*
X110454619Y-110029380D01*
X108978428Y-109981761D02*
X109835571Y-111267476D01*
X108692714Y-110981761D02*
X108549857Y-111029380D01*
X108311761Y-111029380D01*
X108216523Y-110981761D01*
X108168904Y-110934142D01*
X108121285Y-110838904D01*
X108121285Y-110743666D01*
X108168904Y-110648428D01*
X108216523Y-110600809D01*
X108311761Y-110553190D01*
X108502238Y-110505571D01*
X108597476Y-110457952D01*
X108645095Y-110410333D01*
X108692714Y-110315095D01*
X108692714Y-110219857D01*
X108645095Y-110124619D01*
X108597476Y-110077000D01*
X108502238Y-110029380D01*
X108264142Y-110029380D01*
X108121285Y-110077000D01*
X107692714Y-111029380D02*
X107692714Y-110029380D01*
X107454619Y-110029380D01*
X107311761Y-110077000D01*
X107216523Y-110172238D01*
X107168904Y-110267476D01*
X107121285Y-110457952D01*
X107121285Y-110600809D01*
X107168904Y-110791285D01*
X107216523Y-110886523D01*
X107311761Y-110981761D01*
X107454619Y-111029380D01*
X107692714Y-111029380D01*
X106787952Y-110029380D02*
X106168904Y-110029380D01*
X106502238Y-110410333D01*
X106359380Y-110410333D01*
X106264142Y-110457952D01*
X106216523Y-110505571D01*
X106168904Y-110600809D01*
X106168904Y-110838904D01*
X106216523Y-110934142D01*
X106264142Y-110981761D01*
X106359380Y-111029380D01*
X106645095Y-111029380D01*
X106740333Y-110981761D01*
X106787952Y-110934142D01*
X110573666Y-108549380D02*
X110383190Y-108549380D01*
X110287952Y-108501761D01*
X110240333Y-108454142D01*
X110145095Y-108311285D01*
X110097476Y-108120809D01*
X110097476Y-107739857D01*
X110145095Y-107644619D01*
X110192714Y-107597000D01*
X110287952Y-107549380D01*
X110478428Y-107549380D01*
X110573666Y-107597000D01*
X110621285Y-107644619D01*
X110668904Y-107739857D01*
X110668904Y-107977952D01*
X110621285Y-108073190D01*
X110573666Y-108120809D01*
X110478428Y-108168428D01*
X110287952Y-108168428D01*
X110192714Y-108120809D01*
X110145095Y-108073190D01*
X110097476Y-107977952D01*
X108954619Y-107501761D02*
X109811761Y-108787476D01*
X108668904Y-108501761D02*
X108526047Y-108549380D01*
X108287952Y-108549380D01*
X108192714Y-108501761D01*
X108145095Y-108454142D01*
X108097476Y-108358904D01*
X108097476Y-108263666D01*
X108145095Y-108168428D01*
X108192714Y-108120809D01*
X108287952Y-108073190D01*
X108478428Y-108025571D01*
X108573666Y-107977952D01*
X108621285Y-107930333D01*
X108668904Y-107835095D01*
X108668904Y-107739857D01*
X108621285Y-107644619D01*
X108573666Y-107597000D01*
X108478428Y-107549380D01*
X108240333Y-107549380D01*
X108097476Y-107597000D01*
X107668904Y-108549380D02*
X107668904Y-107549380D01*
X107430809Y-107549380D01*
X107287952Y-107597000D01*
X107192714Y-107692238D01*
X107145095Y-107787476D01*
X107097476Y-107977952D01*
X107097476Y-108120809D01*
X107145095Y-108311285D01*
X107192714Y-108406523D01*
X107287952Y-108501761D01*
X107430809Y-108549380D01*
X107668904Y-108549380D01*
X106716523Y-107644619D02*
X106668904Y-107597000D01*
X106573666Y-107549380D01*
X106335571Y-107549380D01*
X106240333Y-107597000D01*
X106192714Y-107644619D01*
X106145095Y-107739857D01*
X106145095Y-107835095D01*
X106192714Y-107977952D01*
X106764142Y-108549380D01*
X106145095Y-108549380D01*
X107097476Y-105949380D02*
X107668904Y-105949380D01*
X107383190Y-105949380D02*
X107383190Y-104949380D01*
X107478428Y-105092238D01*
X107573666Y-105187476D01*
X107668904Y-105235095D01*
X106764142Y-104949380D02*
X106145095Y-104949380D01*
X106478428Y-105330333D01*
X106335571Y-105330333D01*
X106240333Y-105377952D01*
X106192714Y-105425571D01*
X106145095Y-105520809D01*
X106145095Y-105758904D01*
X106192714Y-105854142D01*
X106240333Y-105901761D01*
X106335571Y-105949380D01*
X106621285Y-105949380D01*
X106716523Y-105901761D01*
X106764142Y-105854142D01*
X107097476Y-103409380D02*
X107668904Y-103409380D01*
X107383190Y-103409380D02*
X107383190Y-102409380D01*
X107478428Y-102552238D01*
X107573666Y-102647476D01*
X107668904Y-102695095D01*
X106716523Y-102504619D02*
X106668904Y-102457000D01*
X106573666Y-102409380D01*
X106335571Y-102409380D01*
X106240333Y-102457000D01*
X106192714Y-102504619D01*
X106145095Y-102599857D01*
X106145095Y-102695095D01*
X106192714Y-102837952D01*
X106764142Y-103409380D01*
X106145095Y-103409380D01*
X107097476Y-100869380D02*
X107668904Y-100869380D01*
X107383190Y-100869380D02*
X107383190Y-99869380D01*
X107478428Y-100012238D01*
X107573666Y-100107476D01*
X107668904Y-100155095D01*
X106240333Y-100202714D02*
X106240333Y-100869380D01*
X106478428Y-99821761D02*
X106716523Y-100536047D01*
X106097476Y-100536047D01*
X107668904Y-97424619D02*
X107621285Y-97377000D01*
X107526047Y-97329380D01*
X107287952Y-97329380D01*
X107192714Y-97377000D01*
X107145095Y-97424619D01*
X107097476Y-97519857D01*
X107097476Y-97615095D01*
X107145095Y-97757952D01*
X107716523Y-98329380D01*
X107097476Y-98329380D01*
X106764142Y-97329380D02*
X106097476Y-97329380D01*
X106526047Y-98329380D01*
X107668904Y-94884619D02*
X107621285Y-94837000D01*
X107526047Y-94789380D01*
X107287952Y-94789380D01*
X107192714Y-94837000D01*
X107145095Y-94884619D01*
X107097476Y-94979857D01*
X107097476Y-95075095D01*
X107145095Y-95217952D01*
X107716523Y-95789380D01*
X107097476Y-95789380D01*
X106240333Y-94789380D02*
X106430809Y-94789380D01*
X106526047Y-94837000D01*
X106573666Y-94884619D01*
X106668904Y-95027476D01*
X106716523Y-95217952D01*
X106716523Y-95598904D01*
X106668904Y-95694142D01*
X106621285Y-95741761D01*
X106526047Y-95789380D01*
X106335571Y-95789380D01*
X106240333Y-95741761D01*
X106192714Y-95694142D01*
X106145095Y-95598904D01*
X106145095Y-95360809D01*
X106192714Y-95265571D01*
X106240333Y-95217952D01*
X106335571Y-95170333D01*
X106526047Y-95170333D01*
X106621285Y-95217952D01*
X106668904Y-95265571D01*
X106716523Y-95360809D01*
X107540904Y-92344619D02*
X107493285Y-92297000D01*
X107398047Y-92249380D01*
X107159952Y-92249380D01*
X107064714Y-92297000D01*
X107017095Y-92344619D01*
X106969476Y-92439857D01*
X106969476Y-92535095D01*
X107017095Y-92677952D01*
X107588523Y-93249380D01*
X106969476Y-93249380D01*
X106064714Y-92249380D02*
X106540904Y-92249380D01*
X106588523Y-92725571D01*
X106540904Y-92677952D01*
X106445666Y-92630333D01*
X106207571Y-92630333D01*
X106112333Y-92677952D01*
X106064714Y-92725571D01*
X106017095Y-92820809D01*
X106017095Y-93058904D01*
X106064714Y-93154142D01*
X106112333Y-93201761D01*
X106207571Y-93249380D01*
X106445666Y-93249380D01*
X106540904Y-93201761D01*
X106588523Y-93154142D01*
X107588523Y-89709380D02*
X106969476Y-89709380D01*
X107302809Y-90090333D01*
X107159952Y-90090333D01*
X107064714Y-90137952D01*
X107017095Y-90185571D01*
X106969476Y-90280809D01*
X106969476Y-90518904D01*
X107017095Y-90614142D01*
X107064714Y-90661761D01*
X107159952Y-90709380D01*
X107445666Y-90709380D01*
X107540904Y-90661761D01*
X107588523Y-90614142D01*
X106636142Y-89709380D02*
X106017095Y-89709380D01*
X106350428Y-90090333D01*
X106207571Y-90090333D01*
X106112333Y-90137952D01*
X106064714Y-90185571D01*
X106017095Y-90280809D01*
X106017095Y-90518904D01*
X106064714Y-90614142D01*
X106112333Y-90661761D01*
X106207571Y-90709380D01*
X106493285Y-90709380D01*
X106588523Y-90661761D01*
X106636142Y-90614142D01*
X107588523Y-87169380D02*
X106969476Y-87169380D01*
X107302809Y-87550333D01*
X107159952Y-87550333D01*
X107064714Y-87597952D01*
X107017095Y-87645571D01*
X106969476Y-87740809D01*
X106969476Y-87978904D01*
X107017095Y-88074142D01*
X107064714Y-88121761D01*
X107159952Y-88169380D01*
X107445666Y-88169380D01*
X107540904Y-88121761D01*
X107588523Y-88074142D01*
X106588523Y-87264619D02*
X106540904Y-87217000D01*
X106445666Y-87169380D01*
X106207571Y-87169380D01*
X106112333Y-87217000D01*
X106064714Y-87264619D01*
X106017095Y-87359857D01*
X106017095Y-87455095D01*
X106064714Y-87597952D01*
X106636142Y-88169380D01*
X106017095Y-88169380D01*
X107588523Y-84629380D02*
X106969476Y-84629380D01*
X107302809Y-85010333D01*
X107159952Y-85010333D01*
X107064714Y-85057952D01*
X107017095Y-85105571D01*
X106969476Y-85200809D01*
X106969476Y-85438904D01*
X107017095Y-85534142D01*
X107064714Y-85581761D01*
X107159952Y-85629380D01*
X107445666Y-85629380D01*
X107540904Y-85581761D01*
X107588523Y-85534142D01*
X106064714Y-84629380D02*
X106540904Y-84629380D01*
X106588523Y-85105571D01*
X106540904Y-85057952D01*
X106445666Y-85010333D01*
X106207571Y-85010333D01*
X106112333Y-85057952D01*
X106064714Y-85105571D01*
X106017095Y-85200809D01*
X106017095Y-85438904D01*
X106064714Y-85534142D01*
X106112333Y-85581761D01*
X106207571Y-85629380D01*
X106445666Y-85629380D01*
X106540904Y-85581761D01*
X106588523Y-85534142D01*
X107588523Y-82089380D02*
X106969476Y-82089380D01*
X107302809Y-82470333D01*
X107159952Y-82470333D01*
X107064714Y-82517952D01*
X107017095Y-82565571D01*
X106969476Y-82660809D01*
X106969476Y-82898904D01*
X107017095Y-82994142D01*
X107064714Y-83041761D01*
X107159952Y-83089380D01*
X107445666Y-83089380D01*
X107540904Y-83041761D01*
X107588523Y-82994142D01*
X106112333Y-82422714D02*
X106112333Y-83089380D01*
X106350428Y-82041761D02*
X106588523Y-82756047D01*
X105969476Y-82756047D01*
X107588523Y-79549380D02*
X106969476Y-79549380D01*
X107302809Y-79930333D01*
X107159952Y-79930333D01*
X107064714Y-79977952D01*
X107017095Y-80025571D01*
X106969476Y-80120809D01*
X106969476Y-80358904D01*
X107017095Y-80454142D01*
X107064714Y-80501761D01*
X107159952Y-80549380D01*
X107445666Y-80549380D01*
X107540904Y-80501761D01*
X107588523Y-80454142D01*
X106493285Y-80549380D02*
X106302809Y-80549380D01*
X106207571Y-80501761D01*
X106159952Y-80454142D01*
X106064714Y-80311285D01*
X106017095Y-80120809D01*
X106017095Y-79739857D01*
X106064714Y-79644619D01*
X106112333Y-79597000D01*
X106207571Y-79549380D01*
X106398047Y-79549380D01*
X106493285Y-79597000D01*
X106540904Y-79644619D01*
X106588523Y-79739857D01*
X106588523Y-79977952D01*
X106540904Y-80073190D01*
X106493285Y-80120809D01*
X106398047Y-80168428D01*
X106207571Y-80168428D01*
X106112333Y-80120809D01*
X106064714Y-80073190D01*
X106017095Y-79977952D01*
X107588523Y-77009380D02*
X106969476Y-77009380D01*
X107302809Y-77390333D01*
X107159952Y-77390333D01*
X107064714Y-77437952D01*
X107017095Y-77485571D01*
X106969476Y-77580809D01*
X106969476Y-77818904D01*
X107017095Y-77914142D01*
X107064714Y-77961761D01*
X107159952Y-78009380D01*
X107445666Y-78009380D01*
X107540904Y-77961761D01*
X107588523Y-77914142D01*
X106112333Y-77009380D02*
X106302809Y-77009380D01*
X106398047Y-77057000D01*
X106445666Y-77104619D01*
X106540904Y-77247476D01*
X106588523Y-77437952D01*
X106588523Y-77818904D01*
X106540904Y-77914142D01*
X106493285Y-77961761D01*
X106398047Y-78009380D01*
X106207571Y-78009380D01*
X106112333Y-77961761D01*
X106064714Y-77914142D01*
X106017095Y-77818904D01*
X106017095Y-77580809D01*
X106064714Y-77485571D01*
X106112333Y-77437952D01*
X106207571Y-77390333D01*
X106398047Y-77390333D01*
X106493285Y-77437952D01*
X106540904Y-77485571D01*
X106588523Y-77580809D01*
X107517095Y-74945571D02*
X107183761Y-74945571D01*
X107040904Y-75469380D02*
X107517095Y-75469380D01*
X107517095Y-74469380D01*
X107040904Y-74469380D01*
X106612333Y-75469380D02*
X106612333Y-74469380D01*
X106040904Y-75469380D01*
X106040904Y-74469380D01*
X111192714Y-113549380D02*
X111764142Y-113549380D01*
X111478428Y-113549380D02*
X111478428Y-112549380D01*
X111573666Y-112692238D01*
X111668904Y-112787476D01*
X111764142Y-112835095D01*
X110240333Y-113549380D02*
X110811761Y-113549380D01*
X110526047Y-113549380D02*
X110526047Y-112549380D01*
X110621285Y-112692238D01*
X110716523Y-112787476D01*
X110811761Y-112835095D01*
X109097476Y-112501761D02*
X109954619Y-113787476D01*
X108192714Y-113454142D02*
X108240333Y-113501761D01*
X108383190Y-113549380D01*
X108478428Y-113549380D01*
X108621285Y-113501761D01*
X108716523Y-113406523D01*
X108764142Y-113311285D01*
X108811761Y-113120809D01*
X108811761Y-112977952D01*
X108764142Y-112787476D01*
X108716523Y-112692238D01*
X108621285Y-112597000D01*
X108478428Y-112549380D01*
X108383190Y-112549380D01*
X108240333Y-112597000D01*
X108192714Y-112644619D01*
X107764142Y-113549380D02*
X107764142Y-112549380D01*
X107430809Y-113263666D01*
X107097476Y-112549380D01*
X107097476Y-113549380D01*
X106621285Y-113549380D02*
X106621285Y-112549380D01*
X106383190Y-112549380D01*
X106240333Y-112597000D01*
X106145095Y-112692238D01*
X106097476Y-112787476D01*
X106049857Y-112977952D01*
X106049857Y-113120809D01*
X106097476Y-113311285D01*
X106145095Y-113406523D01*
X106240333Y-113501761D01*
X106383190Y-113549380D01*
X106621285Y-113549380D01*
M02*
