G04 #@! TF.GenerationSoftware,KiCad,Pcbnew,5.1.3-ffb9f22~84~ubuntu18.04.1*
G04 #@! TF.CreationDate,2019-08-09T22:51:00+03:00*
G04 #@! TF.ProjectId,Edifier_Remote,45646966-6965-4725-9f52-656d6f74652e,rev?*
G04 #@! TF.SameCoordinates,Original*
G04 #@! TF.FileFunction,Copper,L2,Bot*
G04 #@! TF.FilePolarity,Positive*
%FSLAX46Y46*%
G04 Gerber Fmt 4.6, Leading zero omitted, Abs format (unit mm)*
G04 Created by KiCad (PCBNEW 5.1.3-ffb9f22~84~ubuntu18.04.1) date 2019-08-09 22:51:00*
%MOMM*%
%LPD*%
G04 APERTURE LIST*
%ADD10C,1.800000*%
%ADD11C,0.100000*%
%ADD12R,1.524000X1.524000*%
%ADD13C,1.524000*%
%ADD14O,1.905000X2.000000*%
%ADD15R,1.905000X2.000000*%
%ADD16R,1.800000X1.800000*%
%ADD17C,0.254000*%
G04 APERTURE END LIST*
D10*
X125465840Y-125049280D03*
X125465840Y-127589280D03*
D11*
G36*
X126141787Y-129230476D02*
G01*
X126165900Y-129234053D01*
X126189547Y-129239976D01*
X126212499Y-129248188D01*
X126234535Y-129258611D01*
X126255444Y-129271143D01*
X126275023Y-129285664D01*
X126293085Y-129302035D01*
X126309456Y-129320097D01*
X126323977Y-129339676D01*
X126336509Y-129360585D01*
X126346932Y-129382621D01*
X126355144Y-129405573D01*
X126361067Y-129429220D01*
X126364644Y-129453333D01*
X126365840Y-129477680D01*
X126365840Y-130780880D01*
X126364644Y-130805227D01*
X126361067Y-130829340D01*
X126355144Y-130852987D01*
X126346932Y-130875939D01*
X126336509Y-130897975D01*
X126323977Y-130918884D01*
X126309456Y-130938463D01*
X126293085Y-130956525D01*
X126275023Y-130972896D01*
X126255444Y-130987417D01*
X126234535Y-130999949D01*
X126212499Y-131010372D01*
X126189547Y-131018584D01*
X126165900Y-131024507D01*
X126141787Y-131028084D01*
X126117440Y-131029280D01*
X124814240Y-131029280D01*
X124789893Y-131028084D01*
X124765780Y-131024507D01*
X124742133Y-131018584D01*
X124719181Y-131010372D01*
X124697145Y-130999949D01*
X124676236Y-130987417D01*
X124656657Y-130972896D01*
X124638595Y-130956525D01*
X124622224Y-130938463D01*
X124607703Y-130918884D01*
X124595171Y-130897975D01*
X124584748Y-130875939D01*
X124576536Y-130852987D01*
X124570613Y-130829340D01*
X124567036Y-130805227D01*
X124565840Y-130780880D01*
X124565840Y-129477680D01*
X124567036Y-129453333D01*
X124570613Y-129429220D01*
X124576536Y-129405573D01*
X124584748Y-129382621D01*
X124595171Y-129360585D01*
X124607703Y-129339676D01*
X124622224Y-129320097D01*
X124638595Y-129302035D01*
X124656657Y-129285664D01*
X124676236Y-129271143D01*
X124697145Y-129258611D01*
X124719181Y-129248188D01*
X124742133Y-129239976D01*
X124765780Y-129234053D01*
X124789893Y-129230476D01*
X124814240Y-129229280D01*
X126117440Y-129229280D01*
X126141787Y-129230476D01*
X126141787Y-129230476D01*
G37*
D10*
X125465840Y-130129280D03*
D12*
X104747000Y-75017000D03*
D13*
X104747000Y-77557000D03*
X104747000Y-80097000D03*
X104747000Y-82637000D03*
X104747000Y-85177000D03*
X104747000Y-87717000D03*
X104747000Y-90257000D03*
X104747000Y-92797000D03*
X104747000Y-95337000D03*
X104747000Y-97877000D03*
X104747000Y-100417000D03*
X104747000Y-102957000D03*
X104747000Y-105497000D03*
X104747000Y-108037000D03*
X104747000Y-110577000D03*
X104747000Y-113117000D03*
X104747000Y-115657000D03*
X104747000Y-118197000D03*
X130147000Y-75017000D03*
X130147000Y-77557000D03*
X130147000Y-80097000D03*
X130147000Y-82637000D03*
X130147000Y-85177000D03*
X130147000Y-87717000D03*
X130147000Y-90257000D03*
X130147000Y-92797000D03*
X130147000Y-95337000D03*
X130147000Y-97877000D03*
X130147000Y-100417000D03*
X130147000Y-102957000D03*
X130147000Y-105497000D03*
X130147000Y-108037000D03*
X130147000Y-110577000D03*
X130147000Y-113117000D03*
X130147000Y-115657000D03*
X130147000Y-118197000D03*
D14*
X120650000Y-112522000D03*
X118110000Y-112522000D03*
D15*
X115570000Y-112522000D03*
D10*
X104383840Y-128407160D03*
D16*
X106923840Y-128407160D03*
D17*
G36*
X130630688Y-67069238D02*
G01*
X131240054Y-67253217D01*
X131802075Y-67552049D01*
X132295347Y-67954353D01*
X132701084Y-68444805D01*
X133003834Y-69004728D01*
X133192060Y-69612788D01*
X133262201Y-70280132D01*
X133262200Y-132232645D01*
X133196561Y-132902088D01*
X133012582Y-133511453D01*
X132713751Y-134073474D01*
X132311447Y-134566747D01*
X131820992Y-134972486D01*
X131261076Y-135275233D01*
X130653011Y-135463460D01*
X129985678Y-135533600D01*
X105013155Y-135533600D01*
X104343712Y-135467961D01*
X103734347Y-135283982D01*
X103172326Y-134985151D01*
X102679053Y-134582847D01*
X102273314Y-134092392D01*
X101970567Y-133532476D01*
X101782340Y-132924411D01*
X101712200Y-132257078D01*
X101712200Y-132063072D01*
X115240000Y-132063072D01*
X115240000Y-132503328D01*
X115325890Y-132935125D01*
X115494369Y-133341869D01*
X115738962Y-133707929D01*
X116050271Y-134019238D01*
X116416331Y-134263831D01*
X116823075Y-134432310D01*
X117254872Y-134518200D01*
X117695128Y-134518200D01*
X118126925Y-134432310D01*
X118533669Y-134263831D01*
X118899729Y-134019238D01*
X119211038Y-133707929D01*
X119455631Y-133341869D01*
X119624110Y-132935125D01*
X119710000Y-132503328D01*
X119710000Y-132063072D01*
X119624110Y-131631275D01*
X119455631Y-131224531D01*
X119211038Y-130858471D01*
X118899729Y-130547162D01*
X118533669Y-130302569D01*
X118126925Y-130134090D01*
X117695128Y-130048200D01*
X117254872Y-130048200D01*
X116823075Y-130134090D01*
X116416331Y-130302569D01*
X116050271Y-130547162D01*
X115738962Y-130858471D01*
X115494369Y-131224531D01*
X115325890Y-131631275D01*
X115240000Y-132063072D01*
X101712200Y-132063072D01*
X101712200Y-128473713D01*
X102842849Y-128473713D01*
X102885443Y-128773067D01*
X102985618Y-129058359D01*
X103065579Y-129207952D01*
X103319760Y-129291635D01*
X104204235Y-128407160D01*
X103319760Y-127522685D01*
X103065579Y-127606368D01*
X102934682Y-127878935D01*
X102859475Y-128171802D01*
X102842849Y-128473713D01*
X101712200Y-128473713D01*
X101712200Y-127343080D01*
X103499365Y-127343080D01*
X104383840Y-128227555D01*
X104397983Y-128213413D01*
X104577588Y-128393018D01*
X104563445Y-128407160D01*
X104577588Y-128421303D01*
X104397983Y-128600908D01*
X104383840Y-128586765D01*
X103499365Y-129471240D01*
X103583048Y-129725421D01*
X103855615Y-129856318D01*
X104148482Y-129931525D01*
X104450393Y-129948151D01*
X104749747Y-129905557D01*
X105035039Y-129805382D01*
X105184632Y-129725421D01*
X105268314Y-129471242D01*
X105384262Y-129587190D01*
X105431027Y-129540425D01*
X105434338Y-129551340D01*
X105493303Y-129661654D01*
X105572655Y-129758345D01*
X105669346Y-129837697D01*
X105779660Y-129896662D01*
X105899358Y-129932972D01*
X106023840Y-129945232D01*
X107823840Y-129945232D01*
X107948322Y-129932972D01*
X108068020Y-129896662D01*
X108178334Y-129837697D01*
X108275025Y-129758345D01*
X108354377Y-129661654D01*
X108413342Y-129551340D01*
X108435686Y-129477680D01*
X123927768Y-129477680D01*
X123927768Y-130780880D01*
X123944801Y-130953822D01*
X123995247Y-131120118D01*
X124077165Y-131273377D01*
X124187410Y-131407710D01*
X124321743Y-131517955D01*
X124475002Y-131599873D01*
X124641298Y-131650319D01*
X124814240Y-131667352D01*
X126117440Y-131667352D01*
X126290382Y-131650319D01*
X126456678Y-131599873D01*
X126609937Y-131517955D01*
X126744270Y-131407710D01*
X126854515Y-131273377D01*
X126936433Y-131120118D01*
X126986879Y-130953822D01*
X127003912Y-130780880D01*
X127003912Y-129477680D01*
X126986879Y-129304738D01*
X126936433Y-129138442D01*
X126854515Y-128985183D01*
X126744270Y-128850850D01*
X126609937Y-128740605D01*
X126528735Y-128697202D01*
X126658152Y-128567785D01*
X126826139Y-128316375D01*
X126941851Y-128037023D01*
X127000840Y-127740464D01*
X127000840Y-127438096D01*
X126941851Y-127141537D01*
X126826139Y-126862185D01*
X126658152Y-126610775D01*
X126444345Y-126396968D01*
X126328077Y-126319280D01*
X126444345Y-126241592D01*
X126658152Y-126027785D01*
X126826139Y-125776375D01*
X126941851Y-125497023D01*
X127000840Y-125200464D01*
X127000840Y-124898096D01*
X126941851Y-124601537D01*
X126826139Y-124322185D01*
X126658152Y-124070775D01*
X126444345Y-123856968D01*
X126192935Y-123688981D01*
X125913583Y-123573269D01*
X125617024Y-123514280D01*
X125314656Y-123514280D01*
X125018097Y-123573269D01*
X124738745Y-123688981D01*
X124487335Y-123856968D01*
X124273528Y-124070775D01*
X124105541Y-124322185D01*
X123989829Y-124601537D01*
X123930840Y-124898096D01*
X123930840Y-125200464D01*
X123989829Y-125497023D01*
X124105541Y-125776375D01*
X124273528Y-126027785D01*
X124487335Y-126241592D01*
X124603603Y-126319280D01*
X124487335Y-126396968D01*
X124273528Y-126610775D01*
X124105541Y-126862185D01*
X123989829Y-127141537D01*
X123930840Y-127438096D01*
X123930840Y-127740464D01*
X123989829Y-128037023D01*
X124105541Y-128316375D01*
X124273528Y-128567785D01*
X124402945Y-128697202D01*
X124321743Y-128740605D01*
X124187410Y-128850850D01*
X124077165Y-128985183D01*
X123995247Y-129138442D01*
X123944801Y-129304738D01*
X123927768Y-129477680D01*
X108435686Y-129477680D01*
X108449652Y-129431642D01*
X108461912Y-129307160D01*
X108461912Y-127507160D01*
X108449652Y-127382678D01*
X108413342Y-127262980D01*
X108354377Y-127152666D01*
X108275025Y-127055975D01*
X108178334Y-126976623D01*
X108068020Y-126917658D01*
X107948322Y-126881348D01*
X107823840Y-126869088D01*
X106023840Y-126869088D01*
X105899358Y-126881348D01*
X105779660Y-126917658D01*
X105669346Y-126976623D01*
X105572655Y-127055975D01*
X105493303Y-127152666D01*
X105434338Y-127262980D01*
X105431027Y-127273895D01*
X105384262Y-127227130D01*
X105268314Y-127343078D01*
X105184632Y-127088899D01*
X104912065Y-126958002D01*
X104619198Y-126882795D01*
X104317287Y-126866169D01*
X104017933Y-126908763D01*
X103732641Y-127008938D01*
X103583048Y-127088899D01*
X103499365Y-127343080D01*
X101712200Y-127343080D01*
X101712200Y-119162565D01*
X103961040Y-119162565D01*
X104028020Y-119402656D01*
X104277048Y-119519756D01*
X104544135Y-119586023D01*
X104819017Y-119598910D01*
X105091133Y-119557922D01*
X105350023Y-119464636D01*
X105465980Y-119402656D01*
X105532960Y-119162565D01*
X104747000Y-118376605D01*
X103961040Y-119162565D01*
X101712200Y-119162565D01*
X101712200Y-118269017D01*
X103345090Y-118269017D01*
X103386078Y-118541133D01*
X103479364Y-118800023D01*
X103541344Y-118915980D01*
X103781435Y-118982960D01*
X104567395Y-118197000D01*
X104926605Y-118197000D01*
X105712565Y-118982960D01*
X105952656Y-118915980D01*
X106069756Y-118666952D01*
X106136023Y-118399865D01*
X106148910Y-118124983D01*
X106107922Y-117852867D01*
X106014636Y-117593977D01*
X105952656Y-117478020D01*
X105712565Y-117411040D01*
X104926605Y-118197000D01*
X104567395Y-118197000D01*
X103781435Y-117411040D01*
X103541344Y-117478020D01*
X103424244Y-117727048D01*
X103357977Y-117994135D01*
X103345090Y-118269017D01*
X101712200Y-118269017D01*
X101712200Y-74255000D01*
X103346928Y-74255000D01*
X103346928Y-75779000D01*
X103359188Y-75903482D01*
X103395498Y-76023180D01*
X103454463Y-76133494D01*
X103533815Y-76230185D01*
X103630506Y-76309537D01*
X103740820Y-76368502D01*
X103860518Y-76404812D01*
X103944465Y-76413080D01*
X103856465Y-76471880D01*
X103661880Y-76666465D01*
X103508995Y-76895273D01*
X103403686Y-77149510D01*
X103350000Y-77419408D01*
X103350000Y-77694592D01*
X103403686Y-77964490D01*
X103508995Y-78218727D01*
X103661880Y-78447535D01*
X103856465Y-78642120D01*
X104085273Y-78795005D01*
X104162515Y-78827000D01*
X104085273Y-78858995D01*
X103856465Y-79011880D01*
X103661880Y-79206465D01*
X103508995Y-79435273D01*
X103403686Y-79689510D01*
X103350000Y-79959408D01*
X103350000Y-80234592D01*
X103403686Y-80504490D01*
X103508995Y-80758727D01*
X103661880Y-80987535D01*
X103856465Y-81182120D01*
X104085273Y-81335005D01*
X104162515Y-81367000D01*
X104085273Y-81398995D01*
X103856465Y-81551880D01*
X103661880Y-81746465D01*
X103508995Y-81975273D01*
X103403686Y-82229510D01*
X103350000Y-82499408D01*
X103350000Y-82774592D01*
X103403686Y-83044490D01*
X103508995Y-83298727D01*
X103661880Y-83527535D01*
X103856465Y-83722120D01*
X104085273Y-83875005D01*
X104162515Y-83907000D01*
X104085273Y-83938995D01*
X103856465Y-84091880D01*
X103661880Y-84286465D01*
X103508995Y-84515273D01*
X103403686Y-84769510D01*
X103350000Y-85039408D01*
X103350000Y-85314592D01*
X103403686Y-85584490D01*
X103508995Y-85838727D01*
X103661880Y-86067535D01*
X103856465Y-86262120D01*
X104085273Y-86415005D01*
X104162515Y-86447000D01*
X104085273Y-86478995D01*
X103856465Y-86631880D01*
X103661880Y-86826465D01*
X103508995Y-87055273D01*
X103403686Y-87309510D01*
X103350000Y-87579408D01*
X103350000Y-87854592D01*
X103403686Y-88124490D01*
X103508995Y-88378727D01*
X103661880Y-88607535D01*
X103856465Y-88802120D01*
X104085273Y-88955005D01*
X104162515Y-88987000D01*
X104085273Y-89018995D01*
X103856465Y-89171880D01*
X103661880Y-89366465D01*
X103508995Y-89595273D01*
X103403686Y-89849510D01*
X103350000Y-90119408D01*
X103350000Y-90394592D01*
X103403686Y-90664490D01*
X103508995Y-90918727D01*
X103661880Y-91147535D01*
X103856465Y-91342120D01*
X104085273Y-91495005D01*
X104162515Y-91527000D01*
X104085273Y-91558995D01*
X103856465Y-91711880D01*
X103661880Y-91906465D01*
X103508995Y-92135273D01*
X103403686Y-92389510D01*
X103350000Y-92659408D01*
X103350000Y-92934592D01*
X103403686Y-93204490D01*
X103508995Y-93458727D01*
X103661880Y-93687535D01*
X103856465Y-93882120D01*
X104085273Y-94035005D01*
X104162515Y-94067000D01*
X104085273Y-94098995D01*
X103856465Y-94251880D01*
X103661880Y-94446465D01*
X103508995Y-94675273D01*
X103403686Y-94929510D01*
X103350000Y-95199408D01*
X103350000Y-95474592D01*
X103403686Y-95744490D01*
X103508995Y-95998727D01*
X103661880Y-96227535D01*
X103856465Y-96422120D01*
X104085273Y-96575005D01*
X104162515Y-96607000D01*
X104085273Y-96638995D01*
X103856465Y-96791880D01*
X103661880Y-96986465D01*
X103508995Y-97215273D01*
X103403686Y-97469510D01*
X103350000Y-97739408D01*
X103350000Y-98014592D01*
X103403686Y-98284490D01*
X103508995Y-98538727D01*
X103661880Y-98767535D01*
X103856465Y-98962120D01*
X104085273Y-99115005D01*
X104162515Y-99147000D01*
X104085273Y-99178995D01*
X103856465Y-99331880D01*
X103661880Y-99526465D01*
X103508995Y-99755273D01*
X103403686Y-100009510D01*
X103350000Y-100279408D01*
X103350000Y-100554592D01*
X103403686Y-100824490D01*
X103508995Y-101078727D01*
X103661880Y-101307535D01*
X103856465Y-101502120D01*
X104085273Y-101655005D01*
X104162515Y-101687000D01*
X104085273Y-101718995D01*
X103856465Y-101871880D01*
X103661880Y-102066465D01*
X103508995Y-102295273D01*
X103403686Y-102549510D01*
X103350000Y-102819408D01*
X103350000Y-103094592D01*
X103403686Y-103364490D01*
X103508995Y-103618727D01*
X103661880Y-103847535D01*
X103856465Y-104042120D01*
X104085273Y-104195005D01*
X104162515Y-104227000D01*
X104085273Y-104258995D01*
X103856465Y-104411880D01*
X103661880Y-104606465D01*
X103508995Y-104835273D01*
X103403686Y-105089510D01*
X103350000Y-105359408D01*
X103350000Y-105634592D01*
X103403686Y-105904490D01*
X103508995Y-106158727D01*
X103661880Y-106387535D01*
X103856465Y-106582120D01*
X104085273Y-106735005D01*
X104162515Y-106767000D01*
X104085273Y-106798995D01*
X103856465Y-106951880D01*
X103661880Y-107146465D01*
X103508995Y-107375273D01*
X103403686Y-107629510D01*
X103350000Y-107899408D01*
X103350000Y-108174592D01*
X103403686Y-108444490D01*
X103508995Y-108698727D01*
X103661880Y-108927535D01*
X103856465Y-109122120D01*
X104085273Y-109275005D01*
X104162515Y-109307000D01*
X104085273Y-109338995D01*
X103856465Y-109491880D01*
X103661880Y-109686465D01*
X103508995Y-109915273D01*
X103403686Y-110169510D01*
X103350000Y-110439408D01*
X103350000Y-110714592D01*
X103403686Y-110984490D01*
X103508995Y-111238727D01*
X103661880Y-111467535D01*
X103856465Y-111662120D01*
X104085273Y-111815005D01*
X104162515Y-111847000D01*
X104085273Y-111878995D01*
X103856465Y-112031880D01*
X103661880Y-112226465D01*
X103508995Y-112455273D01*
X103403686Y-112709510D01*
X103350000Y-112979408D01*
X103350000Y-113254592D01*
X103403686Y-113524490D01*
X103508995Y-113778727D01*
X103661880Y-114007535D01*
X103856465Y-114202120D01*
X104085273Y-114355005D01*
X104162515Y-114387000D01*
X104085273Y-114418995D01*
X103856465Y-114571880D01*
X103661880Y-114766465D01*
X103508995Y-114995273D01*
X103403686Y-115249510D01*
X103350000Y-115519408D01*
X103350000Y-115794592D01*
X103403686Y-116064490D01*
X103508995Y-116318727D01*
X103661880Y-116547535D01*
X103856465Y-116742120D01*
X104085273Y-116895005D01*
X104156943Y-116924692D01*
X104143977Y-116929364D01*
X104028020Y-116991344D01*
X103961040Y-117231435D01*
X104747000Y-118017395D01*
X105532960Y-117231435D01*
X105465980Y-116991344D01*
X105330240Y-116927515D01*
X105408727Y-116895005D01*
X105637535Y-116742120D01*
X105832120Y-116547535D01*
X105985005Y-116318727D01*
X106090314Y-116064490D01*
X106144000Y-115794592D01*
X106144000Y-115519408D01*
X106090314Y-115249510D01*
X105985005Y-114995273D01*
X105832120Y-114766465D01*
X105637535Y-114571880D01*
X105408727Y-114418995D01*
X105331485Y-114387000D01*
X105408727Y-114355005D01*
X105637535Y-114202120D01*
X105832120Y-114007535D01*
X105985005Y-113778727D01*
X106090314Y-113524490D01*
X106144000Y-113254592D01*
X106144000Y-112979408D01*
X106090314Y-112709510D01*
X105985005Y-112455273D01*
X105832120Y-112226465D01*
X105637535Y-112031880D01*
X105408727Y-111878995D01*
X105331485Y-111847000D01*
X105408727Y-111815005D01*
X105637535Y-111662120D01*
X105777655Y-111522000D01*
X113979428Y-111522000D01*
X113979428Y-113522000D01*
X113991688Y-113646482D01*
X114027998Y-113766180D01*
X114086963Y-113876494D01*
X114166315Y-113973185D01*
X114263006Y-114052537D01*
X114373320Y-114111502D01*
X114493018Y-114147812D01*
X114617500Y-114160072D01*
X116522500Y-114160072D01*
X116646982Y-114147812D01*
X116766680Y-114111502D01*
X116876994Y-114052537D01*
X116973685Y-113973185D01*
X117053037Y-113876494D01*
X117097905Y-113792553D01*
X117223766Y-113895845D01*
X117499552Y-114043255D01*
X117798797Y-114134030D01*
X118110000Y-114164681D01*
X118421204Y-114134030D01*
X118720449Y-114043255D01*
X118996235Y-113895845D01*
X119237963Y-113697463D01*
X119380000Y-113524391D01*
X119522037Y-113697463D01*
X119763766Y-113895845D01*
X120039552Y-114043255D01*
X120338797Y-114134030D01*
X120650000Y-114164681D01*
X120961204Y-114134030D01*
X121260449Y-114043255D01*
X121536235Y-113895845D01*
X121777963Y-113697463D01*
X121976345Y-113455734D01*
X122123755Y-113179948D01*
X122214530Y-112880703D01*
X122237500Y-112647485D01*
X122237500Y-112396514D01*
X122214530Y-112163296D01*
X122123755Y-111864051D01*
X121976345Y-111588265D01*
X121777963Y-111346537D01*
X121536234Y-111148155D01*
X121260448Y-111000745D01*
X120961203Y-110909970D01*
X120650000Y-110879319D01*
X120338796Y-110909970D01*
X120039551Y-111000745D01*
X119763765Y-111148155D01*
X119522037Y-111346537D01*
X119380000Y-111519609D01*
X119237963Y-111346537D01*
X118996234Y-111148155D01*
X118720448Y-111000745D01*
X118421203Y-110909970D01*
X118110000Y-110879319D01*
X117798796Y-110909970D01*
X117499551Y-111000745D01*
X117223765Y-111148155D01*
X117097905Y-111251446D01*
X117053037Y-111167506D01*
X116973685Y-111070815D01*
X116876994Y-110991463D01*
X116766680Y-110932498D01*
X116646982Y-110896188D01*
X116522500Y-110883928D01*
X114617500Y-110883928D01*
X114493018Y-110896188D01*
X114373320Y-110932498D01*
X114263006Y-110991463D01*
X114166315Y-111070815D01*
X114086963Y-111167506D01*
X114027998Y-111277820D01*
X113991688Y-111397518D01*
X113979428Y-111522000D01*
X105777655Y-111522000D01*
X105832120Y-111467535D01*
X105985005Y-111238727D01*
X106090314Y-110984490D01*
X106144000Y-110714592D01*
X106144000Y-110439408D01*
X106090314Y-110169510D01*
X105985005Y-109915273D01*
X105832120Y-109686465D01*
X105637535Y-109491880D01*
X105408727Y-109338995D01*
X105331485Y-109307000D01*
X105408727Y-109275005D01*
X105637535Y-109122120D01*
X105832120Y-108927535D01*
X105985005Y-108698727D01*
X106090314Y-108444490D01*
X106144000Y-108174592D01*
X106144000Y-107899408D01*
X106090314Y-107629510D01*
X105985005Y-107375273D01*
X105832120Y-107146465D01*
X105637535Y-106951880D01*
X105408727Y-106798995D01*
X105331485Y-106767000D01*
X105408727Y-106735005D01*
X105637535Y-106582120D01*
X105832120Y-106387535D01*
X105985005Y-106158727D01*
X106090314Y-105904490D01*
X106144000Y-105634592D01*
X106144000Y-105359408D01*
X106090314Y-105089510D01*
X105985005Y-104835273D01*
X105832120Y-104606465D01*
X105637535Y-104411880D01*
X105408727Y-104258995D01*
X105331485Y-104227000D01*
X105408727Y-104195005D01*
X105637535Y-104042120D01*
X105832120Y-103847535D01*
X105985005Y-103618727D01*
X106090314Y-103364490D01*
X106144000Y-103094592D01*
X106144000Y-102819408D01*
X106090314Y-102549510D01*
X105985005Y-102295273D01*
X105832120Y-102066465D01*
X105637535Y-101871880D01*
X105408727Y-101718995D01*
X105331485Y-101687000D01*
X105408727Y-101655005D01*
X105637535Y-101502120D01*
X105832120Y-101307535D01*
X105985005Y-101078727D01*
X106090314Y-100824490D01*
X106144000Y-100554592D01*
X106144000Y-100279408D01*
X106090314Y-100009510D01*
X105985005Y-99755273D01*
X105832120Y-99526465D01*
X105637535Y-99331880D01*
X105408727Y-99178995D01*
X105331485Y-99147000D01*
X105408727Y-99115005D01*
X105637535Y-98962120D01*
X105832120Y-98767535D01*
X105985005Y-98538727D01*
X106090314Y-98284490D01*
X106144000Y-98014592D01*
X106144000Y-97739408D01*
X106090314Y-97469510D01*
X105985005Y-97215273D01*
X105832120Y-96986465D01*
X105637535Y-96791880D01*
X105408727Y-96638995D01*
X105331485Y-96607000D01*
X105408727Y-96575005D01*
X105637535Y-96422120D01*
X105832120Y-96227535D01*
X105985005Y-95998727D01*
X106090314Y-95744490D01*
X106144000Y-95474592D01*
X106144000Y-95199408D01*
X106090314Y-94929510D01*
X105985005Y-94675273D01*
X105832120Y-94446465D01*
X105637535Y-94251880D01*
X105408727Y-94098995D01*
X105331485Y-94067000D01*
X105408727Y-94035005D01*
X105637535Y-93882120D01*
X105832120Y-93687535D01*
X105985005Y-93458727D01*
X106090314Y-93204490D01*
X106144000Y-92934592D01*
X106144000Y-92659408D01*
X106090314Y-92389510D01*
X105985005Y-92135273D01*
X105832120Y-91906465D01*
X105637535Y-91711880D01*
X105408727Y-91558995D01*
X105331485Y-91527000D01*
X105408727Y-91495005D01*
X105637535Y-91342120D01*
X105832120Y-91147535D01*
X105985005Y-90918727D01*
X106090314Y-90664490D01*
X106144000Y-90394592D01*
X106144000Y-90119408D01*
X106090314Y-89849510D01*
X105985005Y-89595273D01*
X105832120Y-89366465D01*
X105637535Y-89171880D01*
X105408727Y-89018995D01*
X105331485Y-88987000D01*
X105408727Y-88955005D01*
X105637535Y-88802120D01*
X105832120Y-88607535D01*
X105985005Y-88378727D01*
X106090314Y-88124490D01*
X106144000Y-87854592D01*
X106144000Y-87579408D01*
X106090314Y-87309510D01*
X105985005Y-87055273D01*
X105832120Y-86826465D01*
X105637535Y-86631880D01*
X105408727Y-86478995D01*
X105331485Y-86447000D01*
X105408727Y-86415005D01*
X105637535Y-86262120D01*
X105832120Y-86067535D01*
X105985005Y-85838727D01*
X106090314Y-85584490D01*
X106144000Y-85314592D01*
X106144000Y-85039408D01*
X106090314Y-84769510D01*
X105985005Y-84515273D01*
X105832120Y-84286465D01*
X105637535Y-84091880D01*
X105408727Y-83938995D01*
X105331485Y-83907000D01*
X105408727Y-83875005D01*
X105637535Y-83722120D01*
X105832120Y-83527535D01*
X105985005Y-83298727D01*
X106090314Y-83044490D01*
X106144000Y-82774592D01*
X106144000Y-82499408D01*
X106090314Y-82229510D01*
X105985005Y-81975273D01*
X105832120Y-81746465D01*
X105637535Y-81551880D01*
X105408727Y-81398995D01*
X105331485Y-81367000D01*
X105408727Y-81335005D01*
X105637535Y-81182120D01*
X105832120Y-80987535D01*
X105985005Y-80758727D01*
X106090314Y-80504490D01*
X106144000Y-80234592D01*
X106144000Y-79959408D01*
X106090314Y-79689510D01*
X105985005Y-79435273D01*
X105832120Y-79206465D01*
X105637535Y-79011880D01*
X105408727Y-78858995D01*
X105331485Y-78827000D01*
X105408727Y-78795005D01*
X105637535Y-78642120D01*
X105832120Y-78447535D01*
X105985005Y-78218727D01*
X106090314Y-77964490D01*
X106144000Y-77694592D01*
X106144000Y-77419408D01*
X106090314Y-77149510D01*
X105985005Y-76895273D01*
X105832120Y-76666465D01*
X105637535Y-76471880D01*
X105549535Y-76413080D01*
X105633482Y-76404812D01*
X105753180Y-76368502D01*
X105863494Y-76309537D01*
X105960185Y-76230185D01*
X106039537Y-76133494D01*
X106098502Y-76023180D01*
X106134812Y-75903482D01*
X106147072Y-75779000D01*
X106147072Y-74879408D01*
X128750000Y-74879408D01*
X128750000Y-75154592D01*
X128803686Y-75424490D01*
X128908995Y-75678727D01*
X129061880Y-75907535D01*
X129256465Y-76102120D01*
X129485273Y-76255005D01*
X129562515Y-76287000D01*
X129485273Y-76318995D01*
X129256465Y-76471880D01*
X129061880Y-76666465D01*
X128908995Y-76895273D01*
X128803686Y-77149510D01*
X128750000Y-77419408D01*
X128750000Y-77694592D01*
X128803686Y-77964490D01*
X128908995Y-78218727D01*
X129061880Y-78447535D01*
X129256465Y-78642120D01*
X129485273Y-78795005D01*
X129562515Y-78827000D01*
X129485273Y-78858995D01*
X129256465Y-79011880D01*
X129061880Y-79206465D01*
X128908995Y-79435273D01*
X128803686Y-79689510D01*
X128750000Y-79959408D01*
X128750000Y-80234592D01*
X128803686Y-80504490D01*
X128908995Y-80758727D01*
X129061880Y-80987535D01*
X129256465Y-81182120D01*
X129485273Y-81335005D01*
X129562515Y-81367000D01*
X129485273Y-81398995D01*
X129256465Y-81551880D01*
X129061880Y-81746465D01*
X128908995Y-81975273D01*
X128803686Y-82229510D01*
X128750000Y-82499408D01*
X128750000Y-82774592D01*
X128803686Y-83044490D01*
X128908995Y-83298727D01*
X129061880Y-83527535D01*
X129256465Y-83722120D01*
X129485273Y-83875005D01*
X129562515Y-83907000D01*
X129485273Y-83938995D01*
X129256465Y-84091880D01*
X129061880Y-84286465D01*
X128908995Y-84515273D01*
X128803686Y-84769510D01*
X128750000Y-85039408D01*
X128750000Y-85314592D01*
X128803686Y-85584490D01*
X128908995Y-85838727D01*
X129061880Y-86067535D01*
X129256465Y-86262120D01*
X129485273Y-86415005D01*
X129562515Y-86447000D01*
X129485273Y-86478995D01*
X129256465Y-86631880D01*
X129061880Y-86826465D01*
X128908995Y-87055273D01*
X128803686Y-87309510D01*
X128750000Y-87579408D01*
X128750000Y-87854592D01*
X128803686Y-88124490D01*
X128908995Y-88378727D01*
X129061880Y-88607535D01*
X129256465Y-88802120D01*
X129485273Y-88955005D01*
X129562515Y-88987000D01*
X129485273Y-89018995D01*
X129256465Y-89171880D01*
X129061880Y-89366465D01*
X128908995Y-89595273D01*
X128803686Y-89849510D01*
X128750000Y-90119408D01*
X128750000Y-90394592D01*
X128803686Y-90664490D01*
X128908995Y-90918727D01*
X129061880Y-91147535D01*
X129256465Y-91342120D01*
X129485273Y-91495005D01*
X129562515Y-91527000D01*
X129485273Y-91558995D01*
X129256465Y-91711880D01*
X129061880Y-91906465D01*
X128908995Y-92135273D01*
X128803686Y-92389510D01*
X128750000Y-92659408D01*
X128750000Y-92934592D01*
X128803686Y-93204490D01*
X128908995Y-93458727D01*
X129061880Y-93687535D01*
X129256465Y-93882120D01*
X129485273Y-94035005D01*
X129562515Y-94067000D01*
X129485273Y-94098995D01*
X129256465Y-94251880D01*
X129061880Y-94446465D01*
X128908995Y-94675273D01*
X128803686Y-94929510D01*
X128750000Y-95199408D01*
X128750000Y-95474592D01*
X128803686Y-95744490D01*
X128908995Y-95998727D01*
X129061880Y-96227535D01*
X129256465Y-96422120D01*
X129485273Y-96575005D01*
X129562515Y-96607000D01*
X129485273Y-96638995D01*
X129256465Y-96791880D01*
X129061880Y-96986465D01*
X128908995Y-97215273D01*
X128803686Y-97469510D01*
X128750000Y-97739408D01*
X128750000Y-98014592D01*
X128803686Y-98284490D01*
X128908995Y-98538727D01*
X129061880Y-98767535D01*
X129256465Y-98962120D01*
X129485273Y-99115005D01*
X129562515Y-99147000D01*
X129485273Y-99178995D01*
X129256465Y-99331880D01*
X129061880Y-99526465D01*
X128908995Y-99755273D01*
X128803686Y-100009510D01*
X128750000Y-100279408D01*
X128750000Y-100554592D01*
X128803686Y-100824490D01*
X128908995Y-101078727D01*
X129061880Y-101307535D01*
X129256465Y-101502120D01*
X129485273Y-101655005D01*
X129562515Y-101687000D01*
X129485273Y-101718995D01*
X129256465Y-101871880D01*
X129061880Y-102066465D01*
X128908995Y-102295273D01*
X128803686Y-102549510D01*
X128750000Y-102819408D01*
X128750000Y-103094592D01*
X128803686Y-103364490D01*
X128908995Y-103618727D01*
X129061880Y-103847535D01*
X129256465Y-104042120D01*
X129485273Y-104195005D01*
X129562515Y-104227000D01*
X129485273Y-104258995D01*
X129256465Y-104411880D01*
X129061880Y-104606465D01*
X128908995Y-104835273D01*
X128803686Y-105089510D01*
X128750000Y-105359408D01*
X128750000Y-105634592D01*
X128803686Y-105904490D01*
X128908995Y-106158727D01*
X129061880Y-106387535D01*
X129256465Y-106582120D01*
X129485273Y-106735005D01*
X129562515Y-106767000D01*
X129485273Y-106798995D01*
X129256465Y-106951880D01*
X129061880Y-107146465D01*
X128908995Y-107375273D01*
X128803686Y-107629510D01*
X128750000Y-107899408D01*
X128750000Y-108174592D01*
X128803686Y-108444490D01*
X128908995Y-108698727D01*
X129061880Y-108927535D01*
X129256465Y-109122120D01*
X129485273Y-109275005D01*
X129562515Y-109307000D01*
X129485273Y-109338995D01*
X129256465Y-109491880D01*
X129061880Y-109686465D01*
X128908995Y-109915273D01*
X128803686Y-110169510D01*
X128750000Y-110439408D01*
X128750000Y-110714592D01*
X128803686Y-110984490D01*
X128908995Y-111238727D01*
X129061880Y-111467535D01*
X129256465Y-111662120D01*
X129485273Y-111815005D01*
X129562515Y-111847000D01*
X129485273Y-111878995D01*
X129256465Y-112031880D01*
X129061880Y-112226465D01*
X128908995Y-112455273D01*
X128803686Y-112709510D01*
X128750000Y-112979408D01*
X128750000Y-113254592D01*
X128803686Y-113524490D01*
X128908995Y-113778727D01*
X129061880Y-114007535D01*
X129256465Y-114202120D01*
X129485273Y-114355005D01*
X129562515Y-114387000D01*
X129485273Y-114418995D01*
X129256465Y-114571880D01*
X129061880Y-114766465D01*
X128908995Y-114995273D01*
X128803686Y-115249510D01*
X128750000Y-115519408D01*
X128750000Y-115794592D01*
X128803686Y-116064490D01*
X128908995Y-116318727D01*
X129061880Y-116547535D01*
X129256465Y-116742120D01*
X129485273Y-116895005D01*
X129562515Y-116927000D01*
X129485273Y-116958995D01*
X129256465Y-117111880D01*
X129061880Y-117306465D01*
X128908995Y-117535273D01*
X128803686Y-117789510D01*
X128750000Y-118059408D01*
X128750000Y-118334592D01*
X128803686Y-118604490D01*
X128908995Y-118858727D01*
X129061880Y-119087535D01*
X129256465Y-119282120D01*
X129485273Y-119435005D01*
X129739510Y-119540314D01*
X130009408Y-119594000D01*
X130284592Y-119594000D01*
X130554490Y-119540314D01*
X130808727Y-119435005D01*
X131037535Y-119282120D01*
X131232120Y-119087535D01*
X131385005Y-118858727D01*
X131490314Y-118604490D01*
X131544000Y-118334592D01*
X131544000Y-118059408D01*
X131490314Y-117789510D01*
X131385005Y-117535273D01*
X131232120Y-117306465D01*
X131037535Y-117111880D01*
X130808727Y-116958995D01*
X130731485Y-116927000D01*
X130808727Y-116895005D01*
X131037535Y-116742120D01*
X131232120Y-116547535D01*
X131385005Y-116318727D01*
X131490314Y-116064490D01*
X131544000Y-115794592D01*
X131544000Y-115519408D01*
X131490314Y-115249510D01*
X131385005Y-114995273D01*
X131232120Y-114766465D01*
X131037535Y-114571880D01*
X130808727Y-114418995D01*
X130731485Y-114387000D01*
X130808727Y-114355005D01*
X131037535Y-114202120D01*
X131232120Y-114007535D01*
X131385005Y-113778727D01*
X131490314Y-113524490D01*
X131544000Y-113254592D01*
X131544000Y-112979408D01*
X131490314Y-112709510D01*
X131385005Y-112455273D01*
X131232120Y-112226465D01*
X131037535Y-112031880D01*
X130808727Y-111878995D01*
X130731485Y-111847000D01*
X130808727Y-111815005D01*
X131037535Y-111662120D01*
X131232120Y-111467535D01*
X131385005Y-111238727D01*
X131490314Y-110984490D01*
X131544000Y-110714592D01*
X131544000Y-110439408D01*
X131490314Y-110169510D01*
X131385005Y-109915273D01*
X131232120Y-109686465D01*
X131037535Y-109491880D01*
X130808727Y-109338995D01*
X130731485Y-109307000D01*
X130808727Y-109275005D01*
X131037535Y-109122120D01*
X131232120Y-108927535D01*
X131385005Y-108698727D01*
X131490314Y-108444490D01*
X131544000Y-108174592D01*
X131544000Y-107899408D01*
X131490314Y-107629510D01*
X131385005Y-107375273D01*
X131232120Y-107146465D01*
X131037535Y-106951880D01*
X130808727Y-106798995D01*
X130731485Y-106767000D01*
X130808727Y-106735005D01*
X131037535Y-106582120D01*
X131232120Y-106387535D01*
X131385005Y-106158727D01*
X131490314Y-105904490D01*
X131544000Y-105634592D01*
X131544000Y-105359408D01*
X131490314Y-105089510D01*
X131385005Y-104835273D01*
X131232120Y-104606465D01*
X131037535Y-104411880D01*
X130808727Y-104258995D01*
X130731485Y-104227000D01*
X130808727Y-104195005D01*
X131037535Y-104042120D01*
X131232120Y-103847535D01*
X131385005Y-103618727D01*
X131490314Y-103364490D01*
X131544000Y-103094592D01*
X131544000Y-102819408D01*
X131490314Y-102549510D01*
X131385005Y-102295273D01*
X131232120Y-102066465D01*
X131037535Y-101871880D01*
X130808727Y-101718995D01*
X130731485Y-101687000D01*
X130808727Y-101655005D01*
X131037535Y-101502120D01*
X131232120Y-101307535D01*
X131385005Y-101078727D01*
X131490314Y-100824490D01*
X131544000Y-100554592D01*
X131544000Y-100279408D01*
X131490314Y-100009510D01*
X131385005Y-99755273D01*
X131232120Y-99526465D01*
X131037535Y-99331880D01*
X130808727Y-99178995D01*
X130731485Y-99147000D01*
X130808727Y-99115005D01*
X131037535Y-98962120D01*
X131232120Y-98767535D01*
X131385005Y-98538727D01*
X131490314Y-98284490D01*
X131544000Y-98014592D01*
X131544000Y-97739408D01*
X131490314Y-97469510D01*
X131385005Y-97215273D01*
X131232120Y-96986465D01*
X131037535Y-96791880D01*
X130808727Y-96638995D01*
X130731485Y-96607000D01*
X130808727Y-96575005D01*
X131037535Y-96422120D01*
X131232120Y-96227535D01*
X131385005Y-95998727D01*
X131490314Y-95744490D01*
X131544000Y-95474592D01*
X131544000Y-95199408D01*
X131490314Y-94929510D01*
X131385005Y-94675273D01*
X131232120Y-94446465D01*
X131037535Y-94251880D01*
X130808727Y-94098995D01*
X130731485Y-94067000D01*
X130808727Y-94035005D01*
X131037535Y-93882120D01*
X131232120Y-93687535D01*
X131385005Y-93458727D01*
X131490314Y-93204490D01*
X131544000Y-92934592D01*
X131544000Y-92659408D01*
X131490314Y-92389510D01*
X131385005Y-92135273D01*
X131232120Y-91906465D01*
X131037535Y-91711880D01*
X130808727Y-91558995D01*
X130731485Y-91527000D01*
X130808727Y-91495005D01*
X131037535Y-91342120D01*
X131232120Y-91147535D01*
X131385005Y-90918727D01*
X131490314Y-90664490D01*
X131544000Y-90394592D01*
X131544000Y-90119408D01*
X131490314Y-89849510D01*
X131385005Y-89595273D01*
X131232120Y-89366465D01*
X131037535Y-89171880D01*
X130808727Y-89018995D01*
X130731485Y-88987000D01*
X130808727Y-88955005D01*
X131037535Y-88802120D01*
X131232120Y-88607535D01*
X131385005Y-88378727D01*
X131490314Y-88124490D01*
X131544000Y-87854592D01*
X131544000Y-87579408D01*
X131490314Y-87309510D01*
X131385005Y-87055273D01*
X131232120Y-86826465D01*
X131037535Y-86631880D01*
X130808727Y-86478995D01*
X130731485Y-86447000D01*
X130808727Y-86415005D01*
X131037535Y-86262120D01*
X131232120Y-86067535D01*
X131385005Y-85838727D01*
X131490314Y-85584490D01*
X131544000Y-85314592D01*
X131544000Y-85039408D01*
X131490314Y-84769510D01*
X131385005Y-84515273D01*
X131232120Y-84286465D01*
X131037535Y-84091880D01*
X130808727Y-83938995D01*
X130731485Y-83907000D01*
X130808727Y-83875005D01*
X131037535Y-83722120D01*
X131232120Y-83527535D01*
X131385005Y-83298727D01*
X131490314Y-83044490D01*
X131544000Y-82774592D01*
X131544000Y-82499408D01*
X131490314Y-82229510D01*
X131385005Y-81975273D01*
X131232120Y-81746465D01*
X131037535Y-81551880D01*
X130808727Y-81398995D01*
X130731485Y-81367000D01*
X130808727Y-81335005D01*
X131037535Y-81182120D01*
X131232120Y-80987535D01*
X131385005Y-80758727D01*
X131490314Y-80504490D01*
X131544000Y-80234592D01*
X131544000Y-79959408D01*
X131490314Y-79689510D01*
X131385005Y-79435273D01*
X131232120Y-79206465D01*
X131037535Y-79011880D01*
X130808727Y-78858995D01*
X130731485Y-78827000D01*
X130808727Y-78795005D01*
X131037535Y-78642120D01*
X131232120Y-78447535D01*
X131385005Y-78218727D01*
X131490314Y-77964490D01*
X131544000Y-77694592D01*
X131544000Y-77419408D01*
X131490314Y-77149510D01*
X131385005Y-76895273D01*
X131232120Y-76666465D01*
X131037535Y-76471880D01*
X130808727Y-76318995D01*
X130731485Y-76287000D01*
X130808727Y-76255005D01*
X131037535Y-76102120D01*
X131232120Y-75907535D01*
X131385005Y-75678727D01*
X131490314Y-75424490D01*
X131544000Y-75154592D01*
X131544000Y-74879408D01*
X131490314Y-74609510D01*
X131385005Y-74355273D01*
X131232120Y-74126465D01*
X131037535Y-73931880D01*
X130808727Y-73778995D01*
X130554490Y-73673686D01*
X130284592Y-73620000D01*
X130009408Y-73620000D01*
X129739510Y-73673686D01*
X129485273Y-73778995D01*
X129256465Y-73931880D01*
X129061880Y-74126465D01*
X128908995Y-74355273D01*
X128803686Y-74609510D01*
X128750000Y-74879408D01*
X106147072Y-74879408D01*
X106147072Y-74255000D01*
X106134812Y-74130518D01*
X106098502Y-74010820D01*
X106039537Y-73900506D01*
X105960185Y-73803815D01*
X105863494Y-73724463D01*
X105753180Y-73665498D01*
X105633482Y-73629188D01*
X105509000Y-73616928D01*
X103985000Y-73616928D01*
X103860518Y-73629188D01*
X103740820Y-73665498D01*
X103630506Y-73724463D01*
X103533815Y-73803815D01*
X103454463Y-73900506D01*
X103395498Y-74010820D01*
X103359188Y-74130518D01*
X103346928Y-74255000D01*
X101712200Y-74255000D01*
X101712200Y-70304535D01*
X101738503Y-70036272D01*
X102717800Y-70036272D01*
X102717800Y-70476528D01*
X102803690Y-70908325D01*
X102972169Y-71315069D01*
X103216762Y-71681129D01*
X103528071Y-71992438D01*
X103894131Y-72237031D01*
X104300875Y-72405510D01*
X104732672Y-72491400D01*
X105172928Y-72491400D01*
X105604725Y-72405510D01*
X106011469Y-72237031D01*
X106377529Y-71992438D01*
X106688838Y-71681129D01*
X106933431Y-71315069D01*
X107101910Y-70908325D01*
X107187800Y-70476528D01*
X107187800Y-70036272D01*
X107182748Y-70010872D01*
X127762200Y-70010872D01*
X127762200Y-70451128D01*
X127848090Y-70882925D01*
X128016569Y-71289669D01*
X128261162Y-71655729D01*
X128572471Y-71967038D01*
X128938531Y-72211631D01*
X129345275Y-72380110D01*
X129777072Y-72466000D01*
X130217328Y-72466000D01*
X130649125Y-72380110D01*
X131055869Y-72211631D01*
X131421929Y-71967038D01*
X131733238Y-71655729D01*
X131977831Y-71289669D01*
X132146310Y-70882925D01*
X132232200Y-70451128D01*
X132232200Y-70010872D01*
X132146310Y-69579075D01*
X131977831Y-69172331D01*
X131733238Y-68806271D01*
X131421929Y-68494962D01*
X131055869Y-68250369D01*
X130649125Y-68081890D01*
X130217328Y-67996000D01*
X129777072Y-67996000D01*
X129345275Y-68081890D01*
X128938531Y-68250369D01*
X128572471Y-68494962D01*
X128261162Y-68806271D01*
X128016569Y-69172331D01*
X127848090Y-69579075D01*
X127762200Y-70010872D01*
X107182748Y-70010872D01*
X107101910Y-69604475D01*
X106933431Y-69197731D01*
X106688838Y-68831671D01*
X106377529Y-68520362D01*
X106011469Y-68275769D01*
X105604725Y-68107290D01*
X105172928Y-68021400D01*
X104732672Y-68021400D01*
X104300875Y-68107290D01*
X103894131Y-68275769D01*
X103528071Y-68520362D01*
X103216762Y-68831671D01*
X102972169Y-69197731D01*
X102803690Y-69604475D01*
X102717800Y-70036272D01*
X101738503Y-70036272D01*
X101777837Y-69635112D01*
X101961816Y-69025746D01*
X102260648Y-68463725D01*
X102662952Y-67970453D01*
X103153404Y-67564716D01*
X103713327Y-67261966D01*
X104321387Y-67073740D01*
X104988721Y-67003600D01*
X129961255Y-67003600D01*
X130630688Y-67069238D01*
X130630688Y-67069238D01*
G37*
X130630688Y-67069238D02*
X131240054Y-67253217D01*
X131802075Y-67552049D01*
X132295347Y-67954353D01*
X132701084Y-68444805D01*
X133003834Y-69004728D01*
X133192060Y-69612788D01*
X133262201Y-70280132D01*
X133262200Y-132232645D01*
X133196561Y-132902088D01*
X133012582Y-133511453D01*
X132713751Y-134073474D01*
X132311447Y-134566747D01*
X131820992Y-134972486D01*
X131261076Y-135275233D01*
X130653011Y-135463460D01*
X129985678Y-135533600D01*
X105013155Y-135533600D01*
X104343712Y-135467961D01*
X103734347Y-135283982D01*
X103172326Y-134985151D01*
X102679053Y-134582847D01*
X102273314Y-134092392D01*
X101970567Y-133532476D01*
X101782340Y-132924411D01*
X101712200Y-132257078D01*
X101712200Y-132063072D01*
X115240000Y-132063072D01*
X115240000Y-132503328D01*
X115325890Y-132935125D01*
X115494369Y-133341869D01*
X115738962Y-133707929D01*
X116050271Y-134019238D01*
X116416331Y-134263831D01*
X116823075Y-134432310D01*
X117254872Y-134518200D01*
X117695128Y-134518200D01*
X118126925Y-134432310D01*
X118533669Y-134263831D01*
X118899729Y-134019238D01*
X119211038Y-133707929D01*
X119455631Y-133341869D01*
X119624110Y-132935125D01*
X119710000Y-132503328D01*
X119710000Y-132063072D01*
X119624110Y-131631275D01*
X119455631Y-131224531D01*
X119211038Y-130858471D01*
X118899729Y-130547162D01*
X118533669Y-130302569D01*
X118126925Y-130134090D01*
X117695128Y-130048200D01*
X117254872Y-130048200D01*
X116823075Y-130134090D01*
X116416331Y-130302569D01*
X116050271Y-130547162D01*
X115738962Y-130858471D01*
X115494369Y-131224531D01*
X115325890Y-131631275D01*
X115240000Y-132063072D01*
X101712200Y-132063072D01*
X101712200Y-128473713D01*
X102842849Y-128473713D01*
X102885443Y-128773067D01*
X102985618Y-129058359D01*
X103065579Y-129207952D01*
X103319760Y-129291635D01*
X104204235Y-128407160D01*
X103319760Y-127522685D01*
X103065579Y-127606368D01*
X102934682Y-127878935D01*
X102859475Y-128171802D01*
X102842849Y-128473713D01*
X101712200Y-128473713D01*
X101712200Y-127343080D01*
X103499365Y-127343080D01*
X104383840Y-128227555D01*
X104397983Y-128213413D01*
X104577588Y-128393018D01*
X104563445Y-128407160D01*
X104577588Y-128421303D01*
X104397983Y-128600908D01*
X104383840Y-128586765D01*
X103499365Y-129471240D01*
X103583048Y-129725421D01*
X103855615Y-129856318D01*
X104148482Y-129931525D01*
X104450393Y-129948151D01*
X104749747Y-129905557D01*
X105035039Y-129805382D01*
X105184632Y-129725421D01*
X105268314Y-129471242D01*
X105384262Y-129587190D01*
X105431027Y-129540425D01*
X105434338Y-129551340D01*
X105493303Y-129661654D01*
X105572655Y-129758345D01*
X105669346Y-129837697D01*
X105779660Y-129896662D01*
X105899358Y-129932972D01*
X106023840Y-129945232D01*
X107823840Y-129945232D01*
X107948322Y-129932972D01*
X108068020Y-129896662D01*
X108178334Y-129837697D01*
X108275025Y-129758345D01*
X108354377Y-129661654D01*
X108413342Y-129551340D01*
X108435686Y-129477680D01*
X123927768Y-129477680D01*
X123927768Y-130780880D01*
X123944801Y-130953822D01*
X123995247Y-131120118D01*
X124077165Y-131273377D01*
X124187410Y-131407710D01*
X124321743Y-131517955D01*
X124475002Y-131599873D01*
X124641298Y-131650319D01*
X124814240Y-131667352D01*
X126117440Y-131667352D01*
X126290382Y-131650319D01*
X126456678Y-131599873D01*
X126609937Y-131517955D01*
X126744270Y-131407710D01*
X126854515Y-131273377D01*
X126936433Y-131120118D01*
X126986879Y-130953822D01*
X127003912Y-130780880D01*
X127003912Y-129477680D01*
X126986879Y-129304738D01*
X126936433Y-129138442D01*
X126854515Y-128985183D01*
X126744270Y-128850850D01*
X126609937Y-128740605D01*
X126528735Y-128697202D01*
X126658152Y-128567785D01*
X126826139Y-128316375D01*
X126941851Y-128037023D01*
X127000840Y-127740464D01*
X127000840Y-127438096D01*
X126941851Y-127141537D01*
X126826139Y-126862185D01*
X126658152Y-126610775D01*
X126444345Y-126396968D01*
X126328077Y-126319280D01*
X126444345Y-126241592D01*
X126658152Y-126027785D01*
X126826139Y-125776375D01*
X126941851Y-125497023D01*
X127000840Y-125200464D01*
X127000840Y-124898096D01*
X126941851Y-124601537D01*
X126826139Y-124322185D01*
X126658152Y-124070775D01*
X126444345Y-123856968D01*
X126192935Y-123688981D01*
X125913583Y-123573269D01*
X125617024Y-123514280D01*
X125314656Y-123514280D01*
X125018097Y-123573269D01*
X124738745Y-123688981D01*
X124487335Y-123856968D01*
X124273528Y-124070775D01*
X124105541Y-124322185D01*
X123989829Y-124601537D01*
X123930840Y-124898096D01*
X123930840Y-125200464D01*
X123989829Y-125497023D01*
X124105541Y-125776375D01*
X124273528Y-126027785D01*
X124487335Y-126241592D01*
X124603603Y-126319280D01*
X124487335Y-126396968D01*
X124273528Y-126610775D01*
X124105541Y-126862185D01*
X123989829Y-127141537D01*
X123930840Y-127438096D01*
X123930840Y-127740464D01*
X123989829Y-128037023D01*
X124105541Y-128316375D01*
X124273528Y-128567785D01*
X124402945Y-128697202D01*
X124321743Y-128740605D01*
X124187410Y-128850850D01*
X124077165Y-128985183D01*
X123995247Y-129138442D01*
X123944801Y-129304738D01*
X123927768Y-129477680D01*
X108435686Y-129477680D01*
X108449652Y-129431642D01*
X108461912Y-129307160D01*
X108461912Y-127507160D01*
X108449652Y-127382678D01*
X108413342Y-127262980D01*
X108354377Y-127152666D01*
X108275025Y-127055975D01*
X108178334Y-126976623D01*
X108068020Y-126917658D01*
X107948322Y-126881348D01*
X107823840Y-126869088D01*
X106023840Y-126869088D01*
X105899358Y-126881348D01*
X105779660Y-126917658D01*
X105669346Y-126976623D01*
X105572655Y-127055975D01*
X105493303Y-127152666D01*
X105434338Y-127262980D01*
X105431027Y-127273895D01*
X105384262Y-127227130D01*
X105268314Y-127343078D01*
X105184632Y-127088899D01*
X104912065Y-126958002D01*
X104619198Y-126882795D01*
X104317287Y-126866169D01*
X104017933Y-126908763D01*
X103732641Y-127008938D01*
X103583048Y-127088899D01*
X103499365Y-127343080D01*
X101712200Y-127343080D01*
X101712200Y-119162565D01*
X103961040Y-119162565D01*
X104028020Y-119402656D01*
X104277048Y-119519756D01*
X104544135Y-119586023D01*
X104819017Y-119598910D01*
X105091133Y-119557922D01*
X105350023Y-119464636D01*
X105465980Y-119402656D01*
X105532960Y-119162565D01*
X104747000Y-118376605D01*
X103961040Y-119162565D01*
X101712200Y-119162565D01*
X101712200Y-118269017D01*
X103345090Y-118269017D01*
X103386078Y-118541133D01*
X103479364Y-118800023D01*
X103541344Y-118915980D01*
X103781435Y-118982960D01*
X104567395Y-118197000D01*
X104926605Y-118197000D01*
X105712565Y-118982960D01*
X105952656Y-118915980D01*
X106069756Y-118666952D01*
X106136023Y-118399865D01*
X106148910Y-118124983D01*
X106107922Y-117852867D01*
X106014636Y-117593977D01*
X105952656Y-117478020D01*
X105712565Y-117411040D01*
X104926605Y-118197000D01*
X104567395Y-118197000D01*
X103781435Y-117411040D01*
X103541344Y-117478020D01*
X103424244Y-117727048D01*
X103357977Y-117994135D01*
X103345090Y-118269017D01*
X101712200Y-118269017D01*
X101712200Y-74255000D01*
X103346928Y-74255000D01*
X103346928Y-75779000D01*
X103359188Y-75903482D01*
X103395498Y-76023180D01*
X103454463Y-76133494D01*
X103533815Y-76230185D01*
X103630506Y-76309537D01*
X103740820Y-76368502D01*
X103860518Y-76404812D01*
X103944465Y-76413080D01*
X103856465Y-76471880D01*
X103661880Y-76666465D01*
X103508995Y-76895273D01*
X103403686Y-77149510D01*
X103350000Y-77419408D01*
X103350000Y-77694592D01*
X103403686Y-77964490D01*
X103508995Y-78218727D01*
X103661880Y-78447535D01*
X103856465Y-78642120D01*
X104085273Y-78795005D01*
X104162515Y-78827000D01*
X104085273Y-78858995D01*
X103856465Y-79011880D01*
X103661880Y-79206465D01*
X103508995Y-79435273D01*
X103403686Y-79689510D01*
X103350000Y-79959408D01*
X103350000Y-80234592D01*
X103403686Y-80504490D01*
X103508995Y-80758727D01*
X103661880Y-80987535D01*
X103856465Y-81182120D01*
X104085273Y-81335005D01*
X104162515Y-81367000D01*
X104085273Y-81398995D01*
X103856465Y-81551880D01*
X103661880Y-81746465D01*
X103508995Y-81975273D01*
X103403686Y-82229510D01*
X103350000Y-82499408D01*
X103350000Y-82774592D01*
X103403686Y-83044490D01*
X103508995Y-83298727D01*
X103661880Y-83527535D01*
X103856465Y-83722120D01*
X104085273Y-83875005D01*
X104162515Y-83907000D01*
X104085273Y-83938995D01*
X103856465Y-84091880D01*
X103661880Y-84286465D01*
X103508995Y-84515273D01*
X103403686Y-84769510D01*
X103350000Y-85039408D01*
X103350000Y-85314592D01*
X103403686Y-85584490D01*
X103508995Y-85838727D01*
X103661880Y-86067535D01*
X103856465Y-86262120D01*
X104085273Y-86415005D01*
X104162515Y-86447000D01*
X104085273Y-86478995D01*
X103856465Y-86631880D01*
X103661880Y-86826465D01*
X103508995Y-87055273D01*
X103403686Y-87309510D01*
X103350000Y-87579408D01*
X103350000Y-87854592D01*
X103403686Y-88124490D01*
X103508995Y-88378727D01*
X103661880Y-88607535D01*
X103856465Y-88802120D01*
X104085273Y-88955005D01*
X104162515Y-88987000D01*
X104085273Y-89018995D01*
X103856465Y-89171880D01*
X103661880Y-89366465D01*
X103508995Y-89595273D01*
X103403686Y-89849510D01*
X103350000Y-90119408D01*
X103350000Y-90394592D01*
X103403686Y-90664490D01*
X103508995Y-90918727D01*
X103661880Y-91147535D01*
X103856465Y-91342120D01*
X104085273Y-91495005D01*
X104162515Y-91527000D01*
X104085273Y-91558995D01*
X103856465Y-91711880D01*
X103661880Y-91906465D01*
X103508995Y-92135273D01*
X103403686Y-92389510D01*
X103350000Y-92659408D01*
X103350000Y-92934592D01*
X103403686Y-93204490D01*
X103508995Y-93458727D01*
X103661880Y-93687535D01*
X103856465Y-93882120D01*
X104085273Y-94035005D01*
X104162515Y-94067000D01*
X104085273Y-94098995D01*
X103856465Y-94251880D01*
X103661880Y-94446465D01*
X103508995Y-94675273D01*
X103403686Y-94929510D01*
X103350000Y-95199408D01*
X103350000Y-95474592D01*
X103403686Y-95744490D01*
X103508995Y-95998727D01*
X103661880Y-96227535D01*
X103856465Y-96422120D01*
X104085273Y-96575005D01*
X104162515Y-96607000D01*
X104085273Y-96638995D01*
X103856465Y-96791880D01*
X103661880Y-96986465D01*
X103508995Y-97215273D01*
X103403686Y-97469510D01*
X103350000Y-97739408D01*
X103350000Y-98014592D01*
X103403686Y-98284490D01*
X103508995Y-98538727D01*
X103661880Y-98767535D01*
X103856465Y-98962120D01*
X104085273Y-99115005D01*
X104162515Y-99147000D01*
X104085273Y-99178995D01*
X103856465Y-99331880D01*
X103661880Y-99526465D01*
X103508995Y-99755273D01*
X103403686Y-100009510D01*
X103350000Y-100279408D01*
X103350000Y-100554592D01*
X103403686Y-100824490D01*
X103508995Y-101078727D01*
X103661880Y-101307535D01*
X103856465Y-101502120D01*
X104085273Y-101655005D01*
X104162515Y-101687000D01*
X104085273Y-101718995D01*
X103856465Y-101871880D01*
X103661880Y-102066465D01*
X103508995Y-102295273D01*
X103403686Y-102549510D01*
X103350000Y-102819408D01*
X103350000Y-103094592D01*
X103403686Y-103364490D01*
X103508995Y-103618727D01*
X103661880Y-103847535D01*
X103856465Y-104042120D01*
X104085273Y-104195005D01*
X104162515Y-104227000D01*
X104085273Y-104258995D01*
X103856465Y-104411880D01*
X103661880Y-104606465D01*
X103508995Y-104835273D01*
X103403686Y-105089510D01*
X103350000Y-105359408D01*
X103350000Y-105634592D01*
X103403686Y-105904490D01*
X103508995Y-106158727D01*
X103661880Y-106387535D01*
X103856465Y-106582120D01*
X104085273Y-106735005D01*
X104162515Y-106767000D01*
X104085273Y-106798995D01*
X103856465Y-106951880D01*
X103661880Y-107146465D01*
X103508995Y-107375273D01*
X103403686Y-107629510D01*
X103350000Y-107899408D01*
X103350000Y-108174592D01*
X103403686Y-108444490D01*
X103508995Y-108698727D01*
X103661880Y-108927535D01*
X103856465Y-109122120D01*
X104085273Y-109275005D01*
X104162515Y-109307000D01*
X104085273Y-109338995D01*
X103856465Y-109491880D01*
X103661880Y-109686465D01*
X103508995Y-109915273D01*
X103403686Y-110169510D01*
X103350000Y-110439408D01*
X103350000Y-110714592D01*
X103403686Y-110984490D01*
X103508995Y-111238727D01*
X103661880Y-111467535D01*
X103856465Y-111662120D01*
X104085273Y-111815005D01*
X104162515Y-111847000D01*
X104085273Y-111878995D01*
X103856465Y-112031880D01*
X103661880Y-112226465D01*
X103508995Y-112455273D01*
X103403686Y-112709510D01*
X103350000Y-112979408D01*
X103350000Y-113254592D01*
X103403686Y-113524490D01*
X103508995Y-113778727D01*
X103661880Y-114007535D01*
X103856465Y-114202120D01*
X104085273Y-114355005D01*
X104162515Y-114387000D01*
X104085273Y-114418995D01*
X103856465Y-114571880D01*
X103661880Y-114766465D01*
X103508995Y-114995273D01*
X103403686Y-115249510D01*
X103350000Y-115519408D01*
X103350000Y-115794592D01*
X103403686Y-116064490D01*
X103508995Y-116318727D01*
X103661880Y-116547535D01*
X103856465Y-116742120D01*
X104085273Y-116895005D01*
X104156943Y-116924692D01*
X104143977Y-116929364D01*
X104028020Y-116991344D01*
X103961040Y-117231435D01*
X104747000Y-118017395D01*
X105532960Y-117231435D01*
X105465980Y-116991344D01*
X105330240Y-116927515D01*
X105408727Y-116895005D01*
X105637535Y-116742120D01*
X105832120Y-116547535D01*
X105985005Y-116318727D01*
X106090314Y-116064490D01*
X106144000Y-115794592D01*
X106144000Y-115519408D01*
X106090314Y-115249510D01*
X105985005Y-114995273D01*
X105832120Y-114766465D01*
X105637535Y-114571880D01*
X105408727Y-114418995D01*
X105331485Y-114387000D01*
X105408727Y-114355005D01*
X105637535Y-114202120D01*
X105832120Y-114007535D01*
X105985005Y-113778727D01*
X106090314Y-113524490D01*
X106144000Y-113254592D01*
X106144000Y-112979408D01*
X106090314Y-112709510D01*
X105985005Y-112455273D01*
X105832120Y-112226465D01*
X105637535Y-112031880D01*
X105408727Y-111878995D01*
X105331485Y-111847000D01*
X105408727Y-111815005D01*
X105637535Y-111662120D01*
X105777655Y-111522000D01*
X113979428Y-111522000D01*
X113979428Y-113522000D01*
X113991688Y-113646482D01*
X114027998Y-113766180D01*
X114086963Y-113876494D01*
X114166315Y-113973185D01*
X114263006Y-114052537D01*
X114373320Y-114111502D01*
X114493018Y-114147812D01*
X114617500Y-114160072D01*
X116522500Y-114160072D01*
X116646982Y-114147812D01*
X116766680Y-114111502D01*
X116876994Y-114052537D01*
X116973685Y-113973185D01*
X117053037Y-113876494D01*
X117097905Y-113792553D01*
X117223766Y-113895845D01*
X117499552Y-114043255D01*
X117798797Y-114134030D01*
X118110000Y-114164681D01*
X118421204Y-114134030D01*
X118720449Y-114043255D01*
X118996235Y-113895845D01*
X119237963Y-113697463D01*
X119380000Y-113524391D01*
X119522037Y-113697463D01*
X119763766Y-113895845D01*
X120039552Y-114043255D01*
X120338797Y-114134030D01*
X120650000Y-114164681D01*
X120961204Y-114134030D01*
X121260449Y-114043255D01*
X121536235Y-113895845D01*
X121777963Y-113697463D01*
X121976345Y-113455734D01*
X122123755Y-113179948D01*
X122214530Y-112880703D01*
X122237500Y-112647485D01*
X122237500Y-112396514D01*
X122214530Y-112163296D01*
X122123755Y-111864051D01*
X121976345Y-111588265D01*
X121777963Y-111346537D01*
X121536234Y-111148155D01*
X121260448Y-111000745D01*
X120961203Y-110909970D01*
X120650000Y-110879319D01*
X120338796Y-110909970D01*
X120039551Y-111000745D01*
X119763765Y-111148155D01*
X119522037Y-111346537D01*
X119380000Y-111519609D01*
X119237963Y-111346537D01*
X118996234Y-111148155D01*
X118720448Y-111000745D01*
X118421203Y-110909970D01*
X118110000Y-110879319D01*
X117798796Y-110909970D01*
X117499551Y-111000745D01*
X117223765Y-111148155D01*
X117097905Y-111251446D01*
X117053037Y-111167506D01*
X116973685Y-111070815D01*
X116876994Y-110991463D01*
X116766680Y-110932498D01*
X116646982Y-110896188D01*
X116522500Y-110883928D01*
X114617500Y-110883928D01*
X114493018Y-110896188D01*
X114373320Y-110932498D01*
X114263006Y-110991463D01*
X114166315Y-111070815D01*
X114086963Y-111167506D01*
X114027998Y-111277820D01*
X113991688Y-111397518D01*
X113979428Y-111522000D01*
X105777655Y-111522000D01*
X105832120Y-111467535D01*
X105985005Y-111238727D01*
X106090314Y-110984490D01*
X106144000Y-110714592D01*
X106144000Y-110439408D01*
X106090314Y-110169510D01*
X105985005Y-109915273D01*
X105832120Y-109686465D01*
X105637535Y-109491880D01*
X105408727Y-109338995D01*
X105331485Y-109307000D01*
X105408727Y-109275005D01*
X105637535Y-109122120D01*
X105832120Y-108927535D01*
X105985005Y-108698727D01*
X106090314Y-108444490D01*
X106144000Y-108174592D01*
X106144000Y-107899408D01*
X106090314Y-107629510D01*
X105985005Y-107375273D01*
X105832120Y-107146465D01*
X105637535Y-106951880D01*
X105408727Y-106798995D01*
X105331485Y-106767000D01*
X105408727Y-106735005D01*
X105637535Y-106582120D01*
X105832120Y-106387535D01*
X105985005Y-106158727D01*
X106090314Y-105904490D01*
X106144000Y-105634592D01*
X106144000Y-105359408D01*
X106090314Y-105089510D01*
X105985005Y-104835273D01*
X105832120Y-104606465D01*
X105637535Y-104411880D01*
X105408727Y-104258995D01*
X105331485Y-104227000D01*
X105408727Y-104195005D01*
X105637535Y-104042120D01*
X105832120Y-103847535D01*
X105985005Y-103618727D01*
X106090314Y-103364490D01*
X106144000Y-103094592D01*
X106144000Y-102819408D01*
X106090314Y-102549510D01*
X105985005Y-102295273D01*
X105832120Y-102066465D01*
X105637535Y-101871880D01*
X105408727Y-101718995D01*
X105331485Y-101687000D01*
X105408727Y-101655005D01*
X105637535Y-101502120D01*
X105832120Y-101307535D01*
X105985005Y-101078727D01*
X106090314Y-100824490D01*
X106144000Y-100554592D01*
X106144000Y-100279408D01*
X106090314Y-100009510D01*
X105985005Y-99755273D01*
X105832120Y-99526465D01*
X105637535Y-99331880D01*
X105408727Y-99178995D01*
X105331485Y-99147000D01*
X105408727Y-99115005D01*
X105637535Y-98962120D01*
X105832120Y-98767535D01*
X105985005Y-98538727D01*
X106090314Y-98284490D01*
X106144000Y-98014592D01*
X106144000Y-97739408D01*
X106090314Y-97469510D01*
X105985005Y-97215273D01*
X105832120Y-96986465D01*
X105637535Y-96791880D01*
X105408727Y-96638995D01*
X105331485Y-96607000D01*
X105408727Y-96575005D01*
X105637535Y-96422120D01*
X105832120Y-96227535D01*
X105985005Y-95998727D01*
X106090314Y-95744490D01*
X106144000Y-95474592D01*
X106144000Y-95199408D01*
X106090314Y-94929510D01*
X105985005Y-94675273D01*
X105832120Y-94446465D01*
X105637535Y-94251880D01*
X105408727Y-94098995D01*
X105331485Y-94067000D01*
X105408727Y-94035005D01*
X105637535Y-93882120D01*
X105832120Y-93687535D01*
X105985005Y-93458727D01*
X106090314Y-93204490D01*
X106144000Y-92934592D01*
X106144000Y-92659408D01*
X106090314Y-92389510D01*
X105985005Y-92135273D01*
X105832120Y-91906465D01*
X105637535Y-91711880D01*
X105408727Y-91558995D01*
X105331485Y-91527000D01*
X105408727Y-91495005D01*
X105637535Y-91342120D01*
X105832120Y-91147535D01*
X105985005Y-90918727D01*
X106090314Y-90664490D01*
X106144000Y-90394592D01*
X106144000Y-90119408D01*
X106090314Y-89849510D01*
X105985005Y-89595273D01*
X105832120Y-89366465D01*
X105637535Y-89171880D01*
X105408727Y-89018995D01*
X105331485Y-88987000D01*
X105408727Y-88955005D01*
X105637535Y-88802120D01*
X105832120Y-88607535D01*
X105985005Y-88378727D01*
X106090314Y-88124490D01*
X106144000Y-87854592D01*
X106144000Y-87579408D01*
X106090314Y-87309510D01*
X105985005Y-87055273D01*
X105832120Y-86826465D01*
X105637535Y-86631880D01*
X105408727Y-86478995D01*
X105331485Y-86447000D01*
X105408727Y-86415005D01*
X105637535Y-86262120D01*
X105832120Y-86067535D01*
X105985005Y-85838727D01*
X106090314Y-85584490D01*
X106144000Y-85314592D01*
X106144000Y-85039408D01*
X106090314Y-84769510D01*
X105985005Y-84515273D01*
X105832120Y-84286465D01*
X105637535Y-84091880D01*
X105408727Y-83938995D01*
X105331485Y-83907000D01*
X105408727Y-83875005D01*
X105637535Y-83722120D01*
X105832120Y-83527535D01*
X105985005Y-83298727D01*
X106090314Y-83044490D01*
X106144000Y-82774592D01*
X106144000Y-82499408D01*
X106090314Y-82229510D01*
X105985005Y-81975273D01*
X105832120Y-81746465D01*
X105637535Y-81551880D01*
X105408727Y-81398995D01*
X105331485Y-81367000D01*
X105408727Y-81335005D01*
X105637535Y-81182120D01*
X105832120Y-80987535D01*
X105985005Y-80758727D01*
X106090314Y-80504490D01*
X106144000Y-80234592D01*
X106144000Y-79959408D01*
X106090314Y-79689510D01*
X105985005Y-79435273D01*
X105832120Y-79206465D01*
X105637535Y-79011880D01*
X105408727Y-78858995D01*
X105331485Y-78827000D01*
X105408727Y-78795005D01*
X105637535Y-78642120D01*
X105832120Y-78447535D01*
X105985005Y-78218727D01*
X106090314Y-77964490D01*
X106144000Y-77694592D01*
X106144000Y-77419408D01*
X106090314Y-77149510D01*
X105985005Y-76895273D01*
X105832120Y-76666465D01*
X105637535Y-76471880D01*
X105549535Y-76413080D01*
X105633482Y-76404812D01*
X105753180Y-76368502D01*
X105863494Y-76309537D01*
X105960185Y-76230185D01*
X106039537Y-76133494D01*
X106098502Y-76023180D01*
X106134812Y-75903482D01*
X106147072Y-75779000D01*
X106147072Y-74879408D01*
X128750000Y-74879408D01*
X128750000Y-75154592D01*
X128803686Y-75424490D01*
X128908995Y-75678727D01*
X129061880Y-75907535D01*
X129256465Y-76102120D01*
X129485273Y-76255005D01*
X129562515Y-76287000D01*
X129485273Y-76318995D01*
X129256465Y-76471880D01*
X129061880Y-76666465D01*
X128908995Y-76895273D01*
X128803686Y-77149510D01*
X128750000Y-77419408D01*
X128750000Y-77694592D01*
X128803686Y-77964490D01*
X128908995Y-78218727D01*
X129061880Y-78447535D01*
X129256465Y-78642120D01*
X129485273Y-78795005D01*
X129562515Y-78827000D01*
X129485273Y-78858995D01*
X129256465Y-79011880D01*
X129061880Y-79206465D01*
X128908995Y-79435273D01*
X128803686Y-79689510D01*
X128750000Y-79959408D01*
X128750000Y-80234592D01*
X128803686Y-80504490D01*
X128908995Y-80758727D01*
X129061880Y-80987535D01*
X129256465Y-81182120D01*
X129485273Y-81335005D01*
X129562515Y-81367000D01*
X129485273Y-81398995D01*
X129256465Y-81551880D01*
X129061880Y-81746465D01*
X128908995Y-81975273D01*
X128803686Y-82229510D01*
X128750000Y-82499408D01*
X128750000Y-82774592D01*
X128803686Y-83044490D01*
X128908995Y-83298727D01*
X129061880Y-83527535D01*
X129256465Y-83722120D01*
X129485273Y-83875005D01*
X129562515Y-83907000D01*
X129485273Y-83938995D01*
X129256465Y-84091880D01*
X129061880Y-84286465D01*
X128908995Y-84515273D01*
X128803686Y-84769510D01*
X128750000Y-85039408D01*
X128750000Y-85314592D01*
X128803686Y-85584490D01*
X128908995Y-85838727D01*
X129061880Y-86067535D01*
X129256465Y-86262120D01*
X129485273Y-86415005D01*
X129562515Y-86447000D01*
X129485273Y-86478995D01*
X129256465Y-86631880D01*
X129061880Y-86826465D01*
X128908995Y-87055273D01*
X128803686Y-87309510D01*
X128750000Y-87579408D01*
X128750000Y-87854592D01*
X128803686Y-88124490D01*
X128908995Y-88378727D01*
X129061880Y-88607535D01*
X129256465Y-88802120D01*
X129485273Y-88955005D01*
X129562515Y-88987000D01*
X129485273Y-89018995D01*
X129256465Y-89171880D01*
X129061880Y-89366465D01*
X128908995Y-89595273D01*
X128803686Y-89849510D01*
X128750000Y-90119408D01*
X128750000Y-90394592D01*
X128803686Y-90664490D01*
X128908995Y-90918727D01*
X129061880Y-91147535D01*
X129256465Y-91342120D01*
X129485273Y-91495005D01*
X129562515Y-91527000D01*
X129485273Y-91558995D01*
X129256465Y-91711880D01*
X129061880Y-91906465D01*
X128908995Y-92135273D01*
X128803686Y-92389510D01*
X128750000Y-92659408D01*
X128750000Y-92934592D01*
X128803686Y-93204490D01*
X128908995Y-93458727D01*
X129061880Y-93687535D01*
X129256465Y-93882120D01*
X129485273Y-94035005D01*
X129562515Y-94067000D01*
X129485273Y-94098995D01*
X129256465Y-94251880D01*
X129061880Y-94446465D01*
X128908995Y-94675273D01*
X128803686Y-94929510D01*
X128750000Y-95199408D01*
X128750000Y-95474592D01*
X128803686Y-95744490D01*
X128908995Y-95998727D01*
X129061880Y-96227535D01*
X129256465Y-96422120D01*
X129485273Y-96575005D01*
X129562515Y-96607000D01*
X129485273Y-96638995D01*
X129256465Y-96791880D01*
X129061880Y-96986465D01*
X128908995Y-97215273D01*
X128803686Y-97469510D01*
X128750000Y-97739408D01*
X128750000Y-98014592D01*
X128803686Y-98284490D01*
X128908995Y-98538727D01*
X129061880Y-98767535D01*
X129256465Y-98962120D01*
X129485273Y-99115005D01*
X129562515Y-99147000D01*
X129485273Y-99178995D01*
X129256465Y-99331880D01*
X129061880Y-99526465D01*
X128908995Y-99755273D01*
X128803686Y-100009510D01*
X128750000Y-100279408D01*
X128750000Y-100554592D01*
X128803686Y-100824490D01*
X128908995Y-101078727D01*
X129061880Y-101307535D01*
X129256465Y-101502120D01*
X129485273Y-101655005D01*
X129562515Y-101687000D01*
X129485273Y-101718995D01*
X129256465Y-101871880D01*
X129061880Y-102066465D01*
X128908995Y-102295273D01*
X128803686Y-102549510D01*
X128750000Y-102819408D01*
X128750000Y-103094592D01*
X128803686Y-103364490D01*
X128908995Y-103618727D01*
X129061880Y-103847535D01*
X129256465Y-104042120D01*
X129485273Y-104195005D01*
X129562515Y-104227000D01*
X129485273Y-104258995D01*
X129256465Y-104411880D01*
X129061880Y-104606465D01*
X128908995Y-104835273D01*
X128803686Y-105089510D01*
X128750000Y-105359408D01*
X128750000Y-105634592D01*
X128803686Y-105904490D01*
X128908995Y-106158727D01*
X129061880Y-106387535D01*
X129256465Y-106582120D01*
X129485273Y-106735005D01*
X129562515Y-106767000D01*
X129485273Y-106798995D01*
X129256465Y-106951880D01*
X129061880Y-107146465D01*
X128908995Y-107375273D01*
X128803686Y-107629510D01*
X128750000Y-107899408D01*
X128750000Y-108174592D01*
X128803686Y-108444490D01*
X128908995Y-108698727D01*
X129061880Y-108927535D01*
X129256465Y-109122120D01*
X129485273Y-109275005D01*
X129562515Y-109307000D01*
X129485273Y-109338995D01*
X129256465Y-109491880D01*
X129061880Y-109686465D01*
X128908995Y-109915273D01*
X128803686Y-110169510D01*
X128750000Y-110439408D01*
X128750000Y-110714592D01*
X128803686Y-110984490D01*
X128908995Y-111238727D01*
X129061880Y-111467535D01*
X129256465Y-111662120D01*
X129485273Y-111815005D01*
X129562515Y-111847000D01*
X129485273Y-111878995D01*
X129256465Y-112031880D01*
X129061880Y-112226465D01*
X128908995Y-112455273D01*
X128803686Y-112709510D01*
X128750000Y-112979408D01*
X128750000Y-113254592D01*
X128803686Y-113524490D01*
X128908995Y-113778727D01*
X129061880Y-114007535D01*
X129256465Y-114202120D01*
X129485273Y-114355005D01*
X129562515Y-114387000D01*
X129485273Y-114418995D01*
X129256465Y-114571880D01*
X129061880Y-114766465D01*
X128908995Y-114995273D01*
X128803686Y-115249510D01*
X128750000Y-115519408D01*
X128750000Y-115794592D01*
X128803686Y-116064490D01*
X128908995Y-116318727D01*
X129061880Y-116547535D01*
X129256465Y-116742120D01*
X129485273Y-116895005D01*
X129562515Y-116927000D01*
X129485273Y-116958995D01*
X129256465Y-117111880D01*
X129061880Y-117306465D01*
X128908995Y-117535273D01*
X128803686Y-117789510D01*
X128750000Y-118059408D01*
X128750000Y-118334592D01*
X128803686Y-118604490D01*
X128908995Y-118858727D01*
X129061880Y-119087535D01*
X129256465Y-119282120D01*
X129485273Y-119435005D01*
X129739510Y-119540314D01*
X130009408Y-119594000D01*
X130284592Y-119594000D01*
X130554490Y-119540314D01*
X130808727Y-119435005D01*
X131037535Y-119282120D01*
X131232120Y-119087535D01*
X131385005Y-118858727D01*
X131490314Y-118604490D01*
X131544000Y-118334592D01*
X131544000Y-118059408D01*
X131490314Y-117789510D01*
X131385005Y-117535273D01*
X131232120Y-117306465D01*
X131037535Y-117111880D01*
X130808727Y-116958995D01*
X130731485Y-116927000D01*
X130808727Y-116895005D01*
X131037535Y-116742120D01*
X131232120Y-116547535D01*
X131385005Y-116318727D01*
X131490314Y-116064490D01*
X131544000Y-115794592D01*
X131544000Y-115519408D01*
X131490314Y-115249510D01*
X131385005Y-114995273D01*
X131232120Y-114766465D01*
X131037535Y-114571880D01*
X130808727Y-114418995D01*
X130731485Y-114387000D01*
X130808727Y-114355005D01*
X131037535Y-114202120D01*
X131232120Y-114007535D01*
X131385005Y-113778727D01*
X131490314Y-113524490D01*
X131544000Y-113254592D01*
X131544000Y-112979408D01*
X131490314Y-112709510D01*
X131385005Y-112455273D01*
X131232120Y-112226465D01*
X131037535Y-112031880D01*
X130808727Y-111878995D01*
X130731485Y-111847000D01*
X130808727Y-111815005D01*
X131037535Y-111662120D01*
X131232120Y-111467535D01*
X131385005Y-111238727D01*
X131490314Y-110984490D01*
X131544000Y-110714592D01*
X131544000Y-110439408D01*
X131490314Y-110169510D01*
X131385005Y-109915273D01*
X131232120Y-109686465D01*
X131037535Y-109491880D01*
X130808727Y-109338995D01*
X130731485Y-109307000D01*
X130808727Y-109275005D01*
X131037535Y-109122120D01*
X131232120Y-108927535D01*
X131385005Y-108698727D01*
X131490314Y-108444490D01*
X131544000Y-108174592D01*
X131544000Y-107899408D01*
X131490314Y-107629510D01*
X131385005Y-107375273D01*
X131232120Y-107146465D01*
X131037535Y-106951880D01*
X130808727Y-106798995D01*
X130731485Y-106767000D01*
X130808727Y-106735005D01*
X131037535Y-106582120D01*
X131232120Y-106387535D01*
X131385005Y-106158727D01*
X131490314Y-105904490D01*
X131544000Y-105634592D01*
X131544000Y-105359408D01*
X131490314Y-105089510D01*
X131385005Y-104835273D01*
X131232120Y-104606465D01*
X131037535Y-104411880D01*
X130808727Y-104258995D01*
X130731485Y-104227000D01*
X130808727Y-104195005D01*
X131037535Y-104042120D01*
X131232120Y-103847535D01*
X131385005Y-103618727D01*
X131490314Y-103364490D01*
X131544000Y-103094592D01*
X131544000Y-102819408D01*
X131490314Y-102549510D01*
X131385005Y-102295273D01*
X131232120Y-102066465D01*
X131037535Y-101871880D01*
X130808727Y-101718995D01*
X130731485Y-101687000D01*
X130808727Y-101655005D01*
X131037535Y-101502120D01*
X131232120Y-101307535D01*
X131385005Y-101078727D01*
X131490314Y-100824490D01*
X131544000Y-100554592D01*
X131544000Y-100279408D01*
X131490314Y-100009510D01*
X131385005Y-99755273D01*
X131232120Y-99526465D01*
X131037535Y-99331880D01*
X130808727Y-99178995D01*
X130731485Y-99147000D01*
X130808727Y-99115005D01*
X131037535Y-98962120D01*
X131232120Y-98767535D01*
X131385005Y-98538727D01*
X131490314Y-98284490D01*
X131544000Y-98014592D01*
X131544000Y-97739408D01*
X131490314Y-97469510D01*
X131385005Y-97215273D01*
X131232120Y-96986465D01*
X131037535Y-96791880D01*
X130808727Y-96638995D01*
X130731485Y-96607000D01*
X130808727Y-96575005D01*
X131037535Y-96422120D01*
X131232120Y-96227535D01*
X131385005Y-95998727D01*
X131490314Y-95744490D01*
X131544000Y-95474592D01*
X131544000Y-95199408D01*
X131490314Y-94929510D01*
X131385005Y-94675273D01*
X131232120Y-94446465D01*
X131037535Y-94251880D01*
X130808727Y-94098995D01*
X130731485Y-94067000D01*
X130808727Y-94035005D01*
X131037535Y-93882120D01*
X131232120Y-93687535D01*
X131385005Y-93458727D01*
X131490314Y-93204490D01*
X131544000Y-92934592D01*
X131544000Y-92659408D01*
X131490314Y-92389510D01*
X131385005Y-92135273D01*
X131232120Y-91906465D01*
X131037535Y-91711880D01*
X130808727Y-91558995D01*
X130731485Y-91527000D01*
X130808727Y-91495005D01*
X131037535Y-91342120D01*
X131232120Y-91147535D01*
X131385005Y-90918727D01*
X131490314Y-90664490D01*
X131544000Y-90394592D01*
X131544000Y-90119408D01*
X131490314Y-89849510D01*
X131385005Y-89595273D01*
X131232120Y-89366465D01*
X131037535Y-89171880D01*
X130808727Y-89018995D01*
X130731485Y-88987000D01*
X130808727Y-88955005D01*
X131037535Y-88802120D01*
X131232120Y-88607535D01*
X131385005Y-88378727D01*
X131490314Y-88124490D01*
X131544000Y-87854592D01*
X131544000Y-87579408D01*
X131490314Y-87309510D01*
X131385005Y-87055273D01*
X131232120Y-86826465D01*
X131037535Y-86631880D01*
X130808727Y-86478995D01*
X130731485Y-86447000D01*
X130808727Y-86415005D01*
X131037535Y-86262120D01*
X131232120Y-86067535D01*
X131385005Y-85838727D01*
X131490314Y-85584490D01*
X131544000Y-85314592D01*
X131544000Y-85039408D01*
X131490314Y-84769510D01*
X131385005Y-84515273D01*
X131232120Y-84286465D01*
X131037535Y-84091880D01*
X130808727Y-83938995D01*
X130731485Y-83907000D01*
X130808727Y-83875005D01*
X131037535Y-83722120D01*
X131232120Y-83527535D01*
X131385005Y-83298727D01*
X131490314Y-83044490D01*
X131544000Y-82774592D01*
X131544000Y-82499408D01*
X131490314Y-82229510D01*
X131385005Y-81975273D01*
X131232120Y-81746465D01*
X131037535Y-81551880D01*
X130808727Y-81398995D01*
X130731485Y-81367000D01*
X130808727Y-81335005D01*
X131037535Y-81182120D01*
X131232120Y-80987535D01*
X131385005Y-80758727D01*
X131490314Y-80504490D01*
X131544000Y-80234592D01*
X131544000Y-79959408D01*
X131490314Y-79689510D01*
X131385005Y-79435273D01*
X131232120Y-79206465D01*
X131037535Y-79011880D01*
X130808727Y-78858995D01*
X130731485Y-78827000D01*
X130808727Y-78795005D01*
X131037535Y-78642120D01*
X131232120Y-78447535D01*
X131385005Y-78218727D01*
X131490314Y-77964490D01*
X131544000Y-77694592D01*
X131544000Y-77419408D01*
X131490314Y-77149510D01*
X131385005Y-76895273D01*
X131232120Y-76666465D01*
X131037535Y-76471880D01*
X130808727Y-76318995D01*
X130731485Y-76287000D01*
X130808727Y-76255005D01*
X131037535Y-76102120D01*
X131232120Y-75907535D01*
X131385005Y-75678727D01*
X131490314Y-75424490D01*
X131544000Y-75154592D01*
X131544000Y-74879408D01*
X131490314Y-74609510D01*
X131385005Y-74355273D01*
X131232120Y-74126465D01*
X131037535Y-73931880D01*
X130808727Y-73778995D01*
X130554490Y-73673686D01*
X130284592Y-73620000D01*
X130009408Y-73620000D01*
X129739510Y-73673686D01*
X129485273Y-73778995D01*
X129256465Y-73931880D01*
X129061880Y-74126465D01*
X128908995Y-74355273D01*
X128803686Y-74609510D01*
X128750000Y-74879408D01*
X106147072Y-74879408D01*
X106147072Y-74255000D01*
X106134812Y-74130518D01*
X106098502Y-74010820D01*
X106039537Y-73900506D01*
X105960185Y-73803815D01*
X105863494Y-73724463D01*
X105753180Y-73665498D01*
X105633482Y-73629188D01*
X105509000Y-73616928D01*
X103985000Y-73616928D01*
X103860518Y-73629188D01*
X103740820Y-73665498D01*
X103630506Y-73724463D01*
X103533815Y-73803815D01*
X103454463Y-73900506D01*
X103395498Y-74010820D01*
X103359188Y-74130518D01*
X103346928Y-74255000D01*
X101712200Y-74255000D01*
X101712200Y-70304535D01*
X101738503Y-70036272D01*
X102717800Y-70036272D01*
X102717800Y-70476528D01*
X102803690Y-70908325D01*
X102972169Y-71315069D01*
X103216762Y-71681129D01*
X103528071Y-71992438D01*
X103894131Y-72237031D01*
X104300875Y-72405510D01*
X104732672Y-72491400D01*
X105172928Y-72491400D01*
X105604725Y-72405510D01*
X106011469Y-72237031D01*
X106377529Y-71992438D01*
X106688838Y-71681129D01*
X106933431Y-71315069D01*
X107101910Y-70908325D01*
X107187800Y-70476528D01*
X107187800Y-70036272D01*
X107182748Y-70010872D01*
X127762200Y-70010872D01*
X127762200Y-70451128D01*
X127848090Y-70882925D01*
X128016569Y-71289669D01*
X128261162Y-71655729D01*
X128572471Y-71967038D01*
X128938531Y-72211631D01*
X129345275Y-72380110D01*
X129777072Y-72466000D01*
X130217328Y-72466000D01*
X130649125Y-72380110D01*
X131055869Y-72211631D01*
X131421929Y-71967038D01*
X131733238Y-71655729D01*
X131977831Y-71289669D01*
X132146310Y-70882925D01*
X132232200Y-70451128D01*
X132232200Y-70010872D01*
X132146310Y-69579075D01*
X131977831Y-69172331D01*
X131733238Y-68806271D01*
X131421929Y-68494962D01*
X131055869Y-68250369D01*
X130649125Y-68081890D01*
X130217328Y-67996000D01*
X129777072Y-67996000D01*
X129345275Y-68081890D01*
X128938531Y-68250369D01*
X128572471Y-68494962D01*
X128261162Y-68806271D01*
X128016569Y-69172331D01*
X127848090Y-69579075D01*
X127762200Y-70010872D01*
X107182748Y-70010872D01*
X107101910Y-69604475D01*
X106933431Y-69197731D01*
X106688838Y-68831671D01*
X106377529Y-68520362D01*
X106011469Y-68275769D01*
X105604725Y-68107290D01*
X105172928Y-68021400D01*
X104732672Y-68021400D01*
X104300875Y-68107290D01*
X103894131Y-68275769D01*
X103528071Y-68520362D01*
X103216762Y-68831671D01*
X102972169Y-69197731D01*
X102803690Y-69604475D01*
X102717800Y-70036272D01*
X101738503Y-70036272D01*
X101777837Y-69635112D01*
X101961816Y-69025746D01*
X102260648Y-68463725D01*
X102662952Y-67970453D01*
X103153404Y-67564716D01*
X103713327Y-67261966D01*
X104321387Y-67073740D01*
X104988721Y-67003600D01*
X129961255Y-67003600D01*
X130630688Y-67069238D01*
M02*
