M48
; DRILL file {KiCad 5.1.3-ffb9f22~84~ubuntu18.04.1} date Fri 09 Aug 2019 10:50:57 PM EEST
; FORMAT={-:-/ absolute / inch / decimal}
; #@! TF.CreationDate,2019-08-09T22:50:57+03:00
; #@! TF.GenerationSoftware,Kicad,Pcbnew,5.1.3-ffb9f22~84~ubuntu18.04.1
FMAT,2
INCH
T1C0.0300
T2C0.0354
T3C0.0433
T4C0.1260
%
G90
G05
T1
X4.1239Y-2.9534
X4.1239Y-3.0534
X4.1239Y-3.1534
X4.1239Y-3.2534
X4.1239Y-3.3534
X4.1239Y-3.4534
X4.1239Y-3.5534
X4.1239Y-3.6534
X4.1239Y-3.7534
X4.1239Y-3.8534
X4.1239Y-3.9534
X4.1239Y-4.0534
X4.1239Y-4.1534
X4.1239Y-4.2534
X4.1239Y-4.3534
X4.1239Y-4.4534
X4.1239Y-4.5534
X4.1239Y-4.6534
X5.1239Y-2.9534
X5.1239Y-3.0534
X5.1239Y-3.1534
X5.1239Y-3.2534
X5.1239Y-3.3534
X5.1239Y-3.4534
X5.1239Y-3.5534
X5.1239Y-3.6534
X5.1239Y-3.7534
X5.1239Y-3.8534
X5.1239Y-3.9534
X5.1239Y-4.0534
X5.1239Y-4.1534
X5.1239Y-4.2534
X5.1239Y-4.3534
X5.1239Y-4.4534
X5.1239Y-4.5534
X5.1239Y-4.6534
T2
X4.9396Y-4.9232
X4.9396Y-5.0232
X4.9396Y-5.1232
X4.1096Y-5.0554
X4.2096Y-5.0554
T3
X4.55Y-4.43
X4.65Y-4.43
X4.75Y-4.43
T4
X5.118Y-2.765
X4.132Y-2.766
X4.625Y-5.208
T0
M30
